<svg width="25" height="24" viewBox="0 0 25 24" fill="none" xmlns="http://www.w3.org/2000/svg">
<path d="M24.6058 11.542L21.7646 8.96346L22.6128 8.26458C22.9925 7.95004 23.3139 7.57018 23.5622 7.1426C24.5004 5.50351 24.2274 3.49117 22.8826 2.13521C21.5378 0.779259 19.5422 0.50395 17.9168 1.45009C17.4928 1.70046 17.1161 2.02455 16.8042 2.40734L16.111 3.26267L13.5538 0.397705L13.5239 0.365852C13.291 0.131571 12.9755 0 12.6465 0C12.3176 0 12.002 0.131571 11.7691 0.365852L8.3776 3.78597L8.43913 5.0215L10.1508 6.43199C10.3794 6.6203 10.5733 6.84775 10.7236 7.10392C11.2823 8.07993 11.115 9.28303 10.3071 10.0976C9.49924 10.9123 8.30631 11.081 7.33817 10.5177C7.08393 10.3661 6.85817 10.1704 6.67124 9.93979L5.2729 8.21422L4.04761 8.15224L0.363446 11.8672C0.24822 11.9833 0.156817 12.1213 0.0944569 12.2731C0.0320965 12.4249 0 12.5876 0 12.7519C0 12.9162 0.0320965 13.0789 0.0944569 13.2307C0.156817 13.3825 0.24822 13.5204 0.363446 13.6366L9.42944 22.7784C9.81351 23.1657 10.2695 23.4729 10.7713 23.6825C11.2731 23.8921 11.8109 24 12.3541 24C12.8972 24 13.4351 23.8921 13.9369 23.6825C14.4387 23.4729 14.8946 23.1657 15.2787 22.7784L24.6372 13.3416C24.8695 13.1067 25 12.7886 25 12.4569C25 12.1252 24.8695 11.807 24.6372 11.5722L24.6058 11.542ZM14.1088 21.5989C13.8784 21.8312 13.6048 22.0156 13.3037 22.1413C13.0026 22.2671 12.6799 22.3318 12.354 22.3318C12.0282 22.3318 11.7055 22.2671 11.4044 22.1413C11.1033 22.0156 10.8297 21.8312 10.5993 21.5989L1.82548 12.7517L4.57076 9.98379L5.39331 10.999L5.39848 11.0052C5.7104 11.388 6.0871 11.7121 6.51112 11.9625C8.13663 12.9086 10.1323 12.6332 11.477 11.2772C12.8218 9.92123 13.0948 7.90899 12.1565 6.26996C11.9083 5.84239 11.5868 5.46255 11.2072 5.14803L10.1943 4.31339L12.6306 1.85672L15.5268 5.10147L16.7821 5.07129L18.0779 3.4724C18.2646 3.24193 18.4902 3.04644 18.7442 2.89488C19.7121 2.33149 20.9052 2.50029 21.7131 3.31486C22.521 4.12942 22.6884 5.33236 22.1297 6.30859C21.9794 6.56476 21.7855 6.79221 21.5569 6.98052L19.9712 8.287L19.9412 9.55287L23.1592 12.4732L14.1088 21.5989Z" fill="#758842"/>
</svg>
