<svg width="90" height="82" viewBox="0 0 90 82" fill="none" xmlns="http://www.w3.org/2000/svg">
<path d="M87.2096 47.2719L78.9406 36.6174L82.3776 34.7888C83.9172 33.9645 85.2954 32.8792 86.4485 31.5834C90.8213 26.6069 91.1902 19.5644 87.3658 14.0593C83.5415 8.55425 76.7208 6.30899 70.3939 8.47223C68.7412 9.04868 67.2058 9.90752 65.859 11.009L62.8628 13.4726L55.7796 2.02706L55.6956 1.89882C55.0329 0.947306 54.0126 0.292016 52.8583 0.0766996C51.7041 -0.138617 50.5103 0.103622 49.5387 0.750279L35.3837 10.1958L34.7849 14.4502L39.8607 20.3815C40.5386 21.1734 41.0689 22.0761 41.4274 23.0482C42.7442 26.7429 41.3638 30.7369 37.9921 32.9866C34.6204 35.2363 30.3235 35.0309 27.298 32.4762C26.506 31.7925 25.8428 30.9774 25.339 30.0684L21.5704 23.2676L17.3121 22.2542L1.93605 32.5137C1.45515 32.8345 1.0435 33.2452 0.724606 33.7221C0.40571 34.1991 0.185814 34.733 0.0774731 35.2934C-0.0308671 35.8539 -0.0255297 36.4298 0.0931803 36.9884C0.211891 37.547 0.44165 38.0773 0.769337 38.549L26.5514 75.6639C27.6436 77.2363 29.0409 78.5825 30.6634 79.6259C32.2858 80.6692 34.1018 81.3892 36.0076 81.7447C37.9134 82.1002 39.8716 82.0843 41.7705 81.6978C43.6694 81.3114 45.4717 80.562 47.0747 79.4925L86.1332 53.4305C87.1031 52.7816 87.7707 51.7818 87.9894 50.6505C88.2081 49.5191 87.9601 48.3486 87.2998 47.3956L87.2096 47.2719ZM43.7477 74.7034C42.786 75.3451 41.7045 75.7948 40.5652 76.0266C39.4259 76.2585 38.2509 76.268 37.1074 76.0547C35.964 75.8414 34.8744 75.4094 33.9009 74.7834C32.9274 74.1574 32.089 73.3497 31.4337 72.4063L6.48262 36.4877L17.9401 28.8437L20.1568 32.8446L20.1708 32.8691C21.0128 34.3791 22.1208 35.7311 23.4435 36.8626C28.5231 41.1536 35.7067 41.5206 41.3192 37.7757C46.9317 34.0309 49.2163 27.3462 47.005 21.1416C46.4157 19.5208 45.5384 18.0148 44.4137 16.6935L41.4102 13.1838L51.5783 6.39922L59.6005 19.3621L64.0252 20.0808L69.6257 15.4754C70.4329 14.8115 71.3532 14.2924 72.3444 13.9417C76.112 12.6536 80.1871 14.0103 82.4846 17.3174C84.782 20.6245 84.5762 24.8371 81.9722 27.8011C81.2759 28.5765 80.4456 29.2254 79.5194 29.718L73.0944 33.1363L72.1545 37.4343L81.5199 49.5013L43.7477 74.7034Z" fill="#DD678C"/>
</svg>
