<svg width="43" height="33" viewBox="0 0 43 33" fill="none" xmlns="http://www.w3.org/2000/svg">
<path d="M32.2647 0C28.4516 0 24.3452 0.793031 21.5098 2.97387C18.6744 0.793031 14.568 0 10.7549 0C7.91951 0 4.90814 0.436167 2.38563 1.56624C0.958163 2.22049 0 3.62812 0 5.234V27.5975C0 30.1748 2.38563 32.0781 4.84948 31.4437C6.7658 30.948 8.79945 30.7299 10.7549 30.7299C13.8054 30.7299 17.0514 31.2454 19.6717 32.5539C20.8449 33.1487 22.1746 33.1487 23.3283 32.5539C25.9486 31.2256 29.1946 30.7299 32.2451 30.7299C34.2005 30.7299 36.2342 30.948 38.1505 31.4437C40.6144 32.0979 43 30.1947 43 27.5975V5.234C43 3.62812 42.0418 2.22049 40.6144 1.56624C38.1114 0.436167 35.1 0 32.2647 0ZM39.1087 25.2382C39.1087 26.4872 37.9745 27.3992 36.7622 27.1811C35.2956 26.9036 33.7704 26.7846 32.2647 26.7846C28.9404 26.7846 24.1496 28.0733 21.5098 29.7585V6.93902C24.1496 5.25383 28.9404 3.96515 32.2647 3.96515C34.0637 3.96515 35.8431 4.14359 37.5443 4.52028C38.4438 4.71853 39.1087 5.53139 39.1087 6.4632V25.2382Z" fill="#788E39"/>
<path d="M25.4851 12.8253C24.8493 12.8253 24.2731 12.4428 24.0744 11.8307C23.8161 11.0848 24.2532 10.2625 25.0281 10.0329C28.0879 9.07667 32.0418 8.77067 35.6778 9.1723C36.4925 9.26793 37.0885 9.97557 36.9892 10.7597C36.8898 11.5439 36.1547 12.1176 35.3401 12.022C32.1213 11.6586 28.6045 11.9455 25.9421 12.7679C25.7831 12.787 25.6242 12.8253 25.4851 12.8253ZM25.4851 17.9126C24.8493 17.9126 24.2731 17.5301 24.0744 16.9181C23.8161 16.1722 24.2532 15.3498 25.0281 15.1203C28.0681 14.164 32.0418 13.858 35.6778 14.2597C36.4925 14.3553 37.0885 15.0629 36.9892 15.8471C36.8898 16.6312 36.1547 17.205 35.3401 17.1094C32.1213 16.746 28.6045 17.0329 25.9421 17.8553C25.7927 17.8919 25.6393 17.9112 25.4851 17.9126ZM25.4851 23C24.8493 23 24.2731 22.6175 24.0744 22.0055C23.8161 21.2596 24.2532 20.4372 25.0281 20.2077C28.0681 19.2514 32.0418 18.9454 35.6778 19.347C36.4925 19.4427 37.0885 20.1503 36.9892 20.9345C36.8898 21.7186 36.1547 22.2732 35.3401 22.1967C32.1213 21.8333 28.6045 22.1202 25.9421 22.9426C25.7927 22.9793 25.6393 22.9985 25.4851 23Z" fill="#788E39"/>
</svg>
