<svg width="26" height="22" viewBox="0 0 26 22" fill="none" xmlns="http://www.w3.org/2000/svg">
<path d="M18.2982 7.34016L15.678 5.92191L16.1843 5.22147C16.4106 4.90663 16.5809 4.55319 16.6872 4.17751C17.0845 2.74003 16.5013 1.25346 15.2357 0.478479C13.9701 -0.296504 12.4182 -0.117448 11.3741 0.923974C11.1024 1.19836 10.8801 1.51991 10.7176 1.87375L10.3572 2.66363L7.89676 0.970685L7.86827 0.952157C7.6492 0.818361 7.38729 0.779299 7.14001 0.84354C6.89273 0.907782 6.68026 1.07008 6.54921 1.29484L4.64229 4.57429L4.92064 5.50772L6.4723 6.25278C6.67951 6.35224 6.86799 6.48842 7.0291 6.65509C7.63245 7.29284 7.73267 8.24616 7.27842 9.02728C6.82418 9.8084 5.95914 10.1705 5.12558 9.92852C4.90597 9.86211 4.69952 9.7565 4.51567 9.61652L3.14037 8.56916L2.20766 8.76101L0.136157 12.3232C0.0713674 12.4346 0.0285713 12.558 0.0102127 12.6863C-0.00814594 12.8147 -0.00170759 12.9455 0.0291601 13.0712C0.0600278 13.1969 0.11472 13.3152 0.190115 13.4191C0.265509 13.5231 0.360129 13.6108 0.468571 13.6772L9.00091 18.9022C9.36237 19.1236 9.76282 19.2696 10.1794 19.332C10.596 19.3944 11.0206 19.3719 11.4288 19.2659C11.8371 19.1598 12.2212 18.9722 12.559 18.7138C12.8968 18.4554 13.1819 18.1313 13.3978 17.76L18.6598 8.71112C18.7903 8.48605 18.8286 8.21712 18.7663 7.9633C18.704 7.70948 18.5462 7.49151 18.3274 7.35717L18.2982 7.34016Z" fill="#E07496"/>
<path d="M25.9999 18.7883H22.825V22.0005H21.3597V18.7883H18.1848V17.3707H21.3597V14.1406H22.825V17.3707H25.9999V18.7883Z" fill="#E07496"/>
</svg>
