<svg width="48" height="48" viewBox="0 0 48 48" fill="none" xmlns="http://www.w3.org/2000/svg">
<path d="M34.6674 37.896L32.2984 35.8047L33.0056 35.2379C33.3222 34.9828 33.5902 34.6748 33.7972 34.328C34.5795 32.9986 34.3519 31.3666 33.2306 30.2669C32.1093 29.1672 30.4454 28.9439 29.0901 29.7112C28.7366 29.9143 28.4226 30.1771 28.1625 30.4876L27.5845 31.1813L25.4524 28.8577L25.4274 28.8319C25.2332 28.6419 24.9702 28.5352 24.6959 28.5352C24.4216 28.5352 24.1585 28.6419 23.9643 28.8319L21.1365 31.6057L21.1878 32.6077L22.615 33.7516C22.8056 33.9044 22.9672 34.0888 23.0926 34.2966C23.5584 35.0882 23.4189 36.0639 22.7453 36.7246C22.0717 37.3853 21.0771 37.5221 20.2698 37.0653C20.0579 36.9423 19.8696 36.7836 19.7138 36.5966L18.5478 35.1971L17.5262 35.1468L14.4544 38.1597C14.3583 38.2539 14.2821 38.3658 14.2301 38.4889C14.1781 38.612 14.1514 38.744 14.1514 38.8772C14.1514 39.0105 14.1781 39.1425 14.2301 39.2656C14.2821 39.3887 14.3583 39.5006 14.4544 39.5948L22.0135 47.009C22.3337 47.3231 22.7139 47.5723 23.1323 47.7423C23.5507 47.9122 23.9992 47.9997 24.452 47.9997C24.9049 47.9997 25.3534 47.9122 25.7718 47.7423C26.1902 47.5723 26.5703 47.3231 26.8906 47.009L34.6936 39.3555C34.8873 39.165 34.996 38.907 34.996 38.638C34.996 38.369 34.8873 38.1109 34.6936 37.9205L34.6674 37.896ZM25.9151 46.0523C25.723 46.2408 25.4949 46.3903 25.2439 46.4923C24.9928 46.5943 24.7237 46.6468 24.452 46.6468C24.1803 46.6468 23.9112 46.5943 23.6602 46.4923C23.4091 46.3903 23.181 46.2408 22.9889 46.0523L15.6734 38.8771L17.9624 36.6322L18.6482 37.4556L18.6526 37.4606C18.9126 37.7711 19.2267 38.034 19.5803 38.237C20.9356 39.0043 22.5995 38.781 23.7208 37.6813C24.842 36.5815 25.0696 34.9495 24.2873 33.6202C24.0803 33.2735 23.8123 32.9654 23.4958 32.7103L22.6512 32.0334L24.6826 30.041L27.0974 32.6726L28.1441 32.6481L29.2245 31.3514C29.3802 31.1644 29.5682 31.0059 29.78 30.883C30.5871 30.426 31.5819 30.563 32.2555 31.2236C32.9291 31.8842 33.0687 32.8598 32.6028 33.6516C32.4775 33.8593 32.3158 34.0438 32.1252 34.1965L30.8031 35.2561L30.7781 36.2828L33.4612 38.6512L25.9151 46.0523Z" fill="white"/>
<path d="M13.3326 10.1035L15.7016 12.1948L14.9944 12.7616C14.6778 13.0167 14.4098 13.3248 14.2028 13.6715C13.4205 15.0009 13.6481 16.6329 14.7694 17.7326C15.8907 18.8324 17.5546 19.0556 18.9099 18.2883C19.2634 18.0852 19.5774 17.8224 19.8375 17.5119L20.4155 16.8183L22.5476 19.1418L22.5726 19.1676C22.7668 19.3576 23.0298 19.4644 23.3041 19.4644C23.5784 19.4644 23.8415 19.3576 24.0357 19.1676L26.8635 16.3938L26.8122 15.3918L25.385 14.2479C25.1944 14.0951 25.0328 13.9107 24.9074 13.7029C24.4416 12.9113 24.5811 11.9356 25.2547 11.2749C25.9283 10.6143 26.9229 10.4774 27.7302 10.9342C27.9421 11.0572 28.1304 11.2159 28.2862 11.4029L29.4522 12.8024L30.4738 12.8527L33.5456 9.8398C33.6417 9.74558 33.7179 9.63371 33.7699 9.51059C33.8219 9.38748 33.8486 9.25552 33.8486 9.12226C33.8486 8.989 33.8219 8.85705 33.7699 8.73393C33.7179 8.61082 33.6417 8.49895 33.5456 8.40472L25.9865 0.990494C25.6663 0.676401 25.2861 0.427248 24.8677 0.257261C24.4493 0.0872754 24.0008 -0.000215031 23.548 -0.000214992C23.0951 -0.000214953 22.6466 0.0872755 22.2282 0.257262C21.8098 0.427248 21.4297 0.676401 21.1094 0.990494L13.3064 8.64403C13.1127 8.83449 13.004 9.09252 13.004 9.36153C13.004 9.63054 13.1127 9.88857 13.3064 10.079L13.3326 10.1035ZM22.0849 1.94717C22.277 1.75871 22.5051 1.60922 22.7561 1.50723C23.0072 1.40524 23.2763 1.35274 23.548 1.35274C23.8197 1.35274 24.0888 1.40524 24.3398 1.50723C24.5909 1.60922 24.819 1.75871 25.0111 1.94717L32.3266 9.12239L30.0376 11.3673L29.3518 10.5439L29.3474 10.5389C29.0874 10.2284 28.7733 9.96556 28.4197 9.76251C27.0644 8.99517 25.4005 9.21849 24.2792 10.3182C23.158 11.418 22.9304 13.05 23.7127 14.3793C23.9197 14.726 24.1877 15.0341 24.5042 15.2892L25.3488 15.9661L23.3174 17.9585L20.9026 15.3269L19.8559 15.3514L18.7755 16.6482C18.6198 16.8351 18.4318 16.9936 18.22 17.1165C17.4129 17.5735 16.4181 17.4366 15.7445 16.7759C15.0709 16.1153 14.9313 15.1397 15.3972 14.3479C15.5225 14.1402 15.6842 13.9557 15.8748 13.803L17.1969 12.7434L17.2219 11.7168L14.5388 9.3483L22.0849 1.94717Z" fill="white"/>
<path d="M10.2246 34.0696L12.3408 31.7285L12.9144 32.4274C13.1725 32.7402 13.4843 33.0051 13.8352 33.2096C15.1804 33.9827 16.832 33.7578 17.9449 32.6497C19.0577 31.5417 19.2837 29.8974 18.5071 28.5582C18.3017 28.2088 18.0357 27.8985 17.7215 27.6415L17.0195 27.0703L19.3709 24.9634L19.397 24.9387C19.5893 24.7469 19.6973 24.4869 19.6973 24.2158C19.6973 23.9448 19.5893 23.6848 19.397 23.4929L16.59 20.6985L15.576 20.7492L14.4184 22.1595C14.2639 22.3479 14.0772 22.5076 13.8669 22.6315C13.0659 23.0918 12.0785 22.9539 11.4099 22.2883C10.7414 21.6227 10.6029 20.6398 11.0652 19.8421C11.1896 19.6326 11.3502 19.4466 11.5395 19.2926L12.9557 18.1404L13.0066 17.1309L9.95765 14.0954C9.8623 14.0004 9.7491 13.9251 9.62451 13.8737C9.49992 13.8223 9.36639 13.7959 9.23154 13.7959C9.09668 13.7959 8.96315 13.8223 8.83856 13.8737C8.71397 13.9251 8.60077 14.0004 8.50542 14.0954L1.00255 21.5652C0.684704 21.8816 0.432572 22.2573 0.260554 22.6708C0.0885354 23.0842 -1.01874e-06 23.5274 -1.03853e-06 23.9749C-1.05833e-06 24.4224 0.0885353 24.8655 0.260554 25.279C0.432572 25.6925 0.684704 26.0681 1.00255 26.3846L8.74758 34.0954C8.94032 34.2868 9.20143 34.3943 9.47366 34.3943C9.74589 34.3943 10.007 34.2868 10.1997 34.0954L10.2246 34.0696ZM1.97066 25.4207C1.77995 25.2308 1.62867 25.0054 1.52546 24.7573C1.42225 24.5093 1.36913 24.2434 1.36913 23.9749C1.36913 23.7063 1.42225 23.4405 1.52546 23.1924C1.62868 22.9443 1.77995 22.7189 1.97066 22.529L9.23166 15.3L11.5034 17.5619L10.6702 18.2396L10.6651 18.2439C10.3509 18.5009 10.0849 18.8113 9.87944 19.1607C9.10292 20.5 9.32892 22.1442 10.4418 23.2523C11.5547 24.3603 13.2062 24.5852 14.5514 23.8121C14.9023 23.6075 15.214 23.3427 15.4722 23.0299L16.1572 22.1954L18.1734 24.2027L15.5104 26.589L15.5352 27.6233L16.8474 28.6909C17.0365 28.8448 17.197 29.0306 17.3214 29.2399C17.7838 30.0374 17.6452 31.0205 16.9767 31.6861C16.3082 32.3518 15.3209 32.4897 14.5197 32.0293C14.3094 31.9055 14.1228 31.7458 13.9682 31.5574L12.896 30.2509L11.857 30.2262L9.46027 32.8776L1.97066 25.4207Z" fill="white"/>
<path d="M37.7754 13.9309L35.6592 16.272L35.0856 15.5731C34.8275 15.2602 34.5157 14.9954 34.1648 14.7908C32.8196 14.0178 31.168 14.2427 30.0551 15.3507C28.9423 16.4588 28.7163 18.1031 29.4929 19.4423C29.6983 19.7916 29.9643 20.102 30.2785 20.359L30.9805 20.9302L28.6291 23.0371L28.603 23.0617C28.4107 23.2536 28.3027 23.5136 28.3027 23.7847C28.3027 24.0557 28.4107 24.3157 28.603 24.5076L31.41 27.302L32.424 27.2513L33.5816 25.841C33.7361 25.6526 33.9228 25.4929 34.1331 25.369C34.9341 24.9087 35.9215 25.0465 36.5901 25.7122C37.2586 26.3778 37.3971 27.3607 36.9348 28.1584C36.8104 28.3679 36.6498 28.5539 36.4605 28.7079L35.0443 29.8601L34.9934 30.8696L38.0423 33.9051C38.1377 34.0001 38.2509 34.0754 38.3755 34.1268C38.5001 34.1781 38.6336 34.2046 38.7685 34.2046C38.9033 34.2046 39.0369 34.1781 39.1614 34.1268C39.286 34.0754 39.3992 34.0001 39.4946 33.9051L46.9974 26.4353C47.3153 26.1189 47.5674 25.7432 47.7394 25.3297C47.9115 24.9163 48 24.4731 48 24.0256C48 23.5781 47.9115 23.1349 47.7394 22.7215C47.5674 22.308 47.3153 21.9323 46.9974 21.6159L39.2524 13.9051C39.0597 13.7137 38.7986 13.6062 38.5263 13.6062C38.2541 13.6062 37.993 13.7137 37.8003 13.9051L37.7754 13.9309ZM46.0293 22.5798C46.22 22.7697 46.3713 22.9951 46.4745 23.2431C46.5777 23.4912 46.6309 23.7571 46.6309 24.0256C46.6309 24.2941 46.5777 24.56 46.4745 24.8081C46.3713 25.0562 46.22 25.2816 46.0293 25.4715L38.7683 32.7005L36.4966 30.4386L37.3298 29.7608L37.3349 29.7566C37.6491 29.4996 37.9151 29.1892 38.1206 28.8398C38.8971 27.5005 38.6711 25.8562 37.5582 24.7482C36.4453 23.6402 34.7938 23.4153 33.4486 24.1884C33.0977 24.3929 32.786 24.6578 32.5278 24.9706L31.8428 25.8051L29.8266 23.7978L32.4896 21.4115L32.4648 20.3772L31.1526 19.3096C30.9635 19.1557 30.803 18.9699 30.6786 18.7606C30.2162 17.9631 30.3548 16.98 31.0233 16.3143C31.6918 15.6487 32.6791 15.5108 33.4803 15.9711C33.6906 16.095 33.8772 16.2547 34.0318 16.4431L35.104 17.7496L36.143 17.7743L38.5397 15.1228L46.0293 22.5798Z" fill="white"/>
</svg>
