<svg width="67" height="32" viewBox="0 0 67 32" fill="none" xmlns="http://www.w3.org/2000/svg">
<path fill-rule="evenodd" clip-rule="evenodd" d="M11.6808 10.6129L15.4888 14.5735C15.811 14.9085 15.8003 15.4428 15.4655 15.7649C15.3079 15.9166 15.1004 16 14.8816 16C14.6504 16 14.4347 15.9082 14.2743 15.7416L10.4374 11.751C9.34788 12.5167 8.07358 12.92 6.73636 12.92C3.17438 12.92 0.276367 10.022 0.276367 6.45999C0.276367 2.89801 3.17438 0 6.73636 0C9.02645 0 11.0421 1.1979 12.1896 3H10.0236C9.16684 2.18562 8.00895 1.68522 6.73636 1.68522C4.10349 1.68522 1.96158 3.82713 1.96158 6.45999C1.96158 9.09286 4.10349 11.2348 6.73636 11.2348C9.36923 11.2348 11.5111 9.09286 11.5111 6.45999C11.5111 6.30485 11.5037 6.1514 11.4892 6H13.1802C13.1909 6.15196 13.1964 6.30535 13.1964 6.45999C13.1964 7.98455 12.6599 9.44901 11.6808 10.6129Z" fill="#505050"/>
<path fill-rule="evenodd" clip-rule="evenodd" d="M11.6808 26.6129L15.4888 30.5735C15.811 30.9085 15.8003 31.4428 15.4655 31.7649C15.3079 31.9166 15.1004 32 14.8816 32C14.6504 32 14.4347 31.9082 14.2743 31.7416L10.4374 27.751C9.34788 28.5167 8.07358 28.92 6.73636 28.92C3.17438 28.92 0.276367 26.022 0.276367 22.46C0.276367 18.898 3.17438 16 6.73636 16C9.02645 16 11.0421 17.1979 12.1896 19H10.0236C9.16684 18.1856 8.00895 17.6852 6.73636 17.6852C4.10349 17.6852 1.96158 19.8271 1.96158 22.46C1.96158 25.0929 4.10349 27.2348 6.73636 27.2348C9.36923 27.2348 11.5111 25.0929 11.5111 22.46C11.5111 22.3049 11.5037 22.1514 11.4892 22H13.1802C13.1909 22.152 13.1964 22.3054 13.1964 22.46C13.1964 23.9845 12.6599 25.449 11.6808 26.6129Z" fill="#E07496"/>
<g clip-path="url(#clip0)">
<path d="M31.7065 4.96552H30.8253C30.8185 4.95805 30.8122 4.95035 30.805 4.94321L26.0007 0.161595C25.7842 -0.053865 25.4332 -0.053865 25.2167 0.161595C25.0002 0.377055 25.0002 0.726384 25.2167 0.941843L29.2595 4.96549H19.7405L23.7833 0.941843C23.9998 0.726384 23.9998 0.377055 23.7833 0.161595C23.5668 -0.053865 23.2158 -0.053865 22.9993 0.161595L18.195 4.94321C18.1878 4.95039 18.1815 4.95809 18.1747 4.96552H17.2935C16.5803 4.96552 16 5.54303 16 6.25286V6.9885C16 7.66465 16.5264 8.22068 17.1928 8.272L18.2553 14.6169C18.3895 15.4183 19.0794 16 19.8957 16H29.2666C30.0889 16 30.7967 15.389 30.913 14.5789L31.8184 8.27108C32.4794 8.21444 33 7.66082 33 6.9885V6.25286C33 5.54303 32.4197 4.96552 31.7065 4.96552ZM31.8913 6.9885C31.8913 7.08991 31.8084 7.1724 31.7065 7.1724C31.5363 7.1724 26.4059 7.1724 26.1631 7.1724C25.857 7.1724 25.6087 7.41942 25.6087 7.72413C25.6087 8.02882 25.8569 8.27587 26.1631 8.27587H30.6978L29.8155 14.4229C29.7767 14.6929 29.5408 14.8966 29.2667 14.8966H19.8957C19.6236 14.8966 19.3937 14.7027 19.3489 14.4355L18.3175 8.27587H22.8369C23.1431 8.27587 23.3913 8.02885 23.3913 7.72413C23.3913 7.41945 23.1431 7.1724 22.8369 7.1724C22.5937 7.1724 17.463 7.1724 17.2935 7.1724C17.1916 7.1724 17.1087 7.08988 17.1087 6.9885V6.25286C17.1087 6.15144 17.1916 6.06896 17.2935 6.06896H31.7065C31.8084 6.06896 31.8913 6.15147 31.8913 6.25286V6.9885Z" fill="#505050"/>
<path d="M21.174 8.91016C20.8678 8.91016 20.6196 9.15749 20.6196 9.4626V12.7772C20.6196 13.0823 20.8678 13.3297 21.174 13.3297C21.4801 13.3297 21.7283 13.0823 21.7283 12.7772V9.46257C21.7283 9.15749 21.4801 8.91016 21.174 8.91016Z" fill="#505050"/>
<path d="M24.5 8.91016C24.1939 8.91016 23.9457 9.15749 23.9457 9.4626V12.7772C23.9457 13.0823 24.1939 13.3297 24.5 13.3297C24.8062 13.3297 25.0544 13.0823 25.0544 12.7772V9.46257C25.0544 9.15749 24.8062 8.91016 24.5 8.91016Z" fill="#505050"/>
<path d="M27.8263 8.91016C27.5201 8.91016 27.2719 9.15749 27.2719 9.4626V12.7772C27.2719 13.0823 27.5201 13.3297 27.8263 13.3297C28.1324 13.3297 28.3806 13.0823 28.3806 12.7772V9.46257C28.3806 9.15749 28.1324 8.91016 27.8263 8.91016Z" fill="#505050"/>
</g>
<g clip-path="url(#clip1)">
<path d="M31.7065 20.9655H30.8253C30.8185 20.958 30.8122 20.9504 30.805 20.9432L26.0007 16.1616C25.7842 15.9461 25.4332 15.9461 25.2167 16.1616C25.0002 16.3771 25.0002 16.7264 25.2167 16.9418L29.2595 20.9655H19.7405L23.7833 16.9418C23.9998 16.7264 23.9998 16.3771 23.7833 16.1616C23.5668 15.9461 23.2158 15.9461 22.9993 16.1616L18.195 20.9432C18.1878 20.9504 18.1815 20.9581 18.1747 20.9655H17.2935C16.5803 20.9655 16 21.543 16 22.2529V22.9885C16 23.6647 16.5264 24.2207 17.1928 24.272L18.2553 30.6169C18.3895 31.4183 19.0794 32 19.8957 32H29.2666C30.0889 32 30.7967 31.389 30.913 30.5789L31.8184 24.2711C32.4794 24.2144 33 23.6608 33 22.9885V22.2529C33 21.543 32.4197 20.9655 31.7065 20.9655ZM31.8913 22.9885C31.8913 23.0899 31.8084 23.1724 31.7065 23.1724C31.5363 23.1724 26.4059 23.1724 26.1631 23.1724C25.857 23.1724 25.6087 23.4194 25.6087 23.7241C25.6087 24.0288 25.8569 24.2759 26.1631 24.2759H30.6978L29.8155 30.4229C29.7767 30.6929 29.5408 30.8966 29.2667 30.8966H19.8957C19.6236 30.8966 19.3937 30.7027 19.3489 30.4355L18.3175 24.2759H22.8369C23.1431 24.2759 23.3913 24.0289 23.3913 23.7241C23.3913 23.4195 23.1431 23.1724 22.8369 23.1724C22.5937 23.1724 17.463 23.1724 17.2935 23.1724C17.1916 23.1724 17.1087 23.0899 17.1087 22.9885V22.2529C17.1087 22.1514 17.1916 22.069 17.2935 22.069H31.7065C31.8084 22.069 31.8913 22.1515 31.8913 22.2529V22.9885Z" fill="#788E39"/>
<path d="M21.174 24.9102C20.8678 24.9102 20.6196 25.1575 20.6196 25.4626V28.7772C20.6196 29.0823 20.8678 29.3297 21.174 29.3297C21.4801 29.3297 21.7283 29.0823 21.7283 28.7772V25.4626C21.7283 25.1575 21.4801 24.9102 21.174 24.9102Z" fill="#788E39"/>
<path d="M24.5 24.9102C24.1939 24.9102 23.9457 25.1575 23.9457 25.4626V28.7772C23.9457 29.0823 24.1939 29.3297 24.5 29.3297C24.8062 29.3297 25.0544 29.0823 25.0544 28.7772V25.4626C25.0544 25.1575 24.8062 24.9102 24.5 24.9102Z" fill="#788E39"/>
<path d="M27.8263 24.9102C27.5201 24.9102 27.2719 25.1575 27.2719 25.4626V28.7772C27.2719 29.0823 27.5201 29.3297 27.8263 29.3297C28.1324 29.3297 28.3806 29.0823 28.3806 28.7772V25.4626C28.3806 25.1575 28.1324 24.9102 27.8263 24.9102Z" fill="#788E39"/>
</g>
<path d="M47.7308 10.1566C47.2006 9.69067 46.5575 9.28809 45.8193 8.96008C45.5038 8.81995 45.1345 8.96204 44.9944 9.27747C44.8542 9.5929 44.9963 9.96216 45.3118 10.1024C45.9342 10.379 46.4706 10.7131 46.9058 11.0956C47.4423 11.567 47.75 12.2496 47.75 12.9688V14.125C47.75 14.4696 47.4696 14.75 47.125 14.75H34.875C34.5304 14.75 34.25 14.4696 34.25 14.125V12.9688C34.25 12.2496 34.5577 11.567 35.0942 11.0956C35.7257 10.5406 37.5656 9.25 41 9.25C43.5502 9.25 45.625 7.17517 45.625 4.625C45.625 2.07483 43.5502 0 41 0C38.4498 0 36.375 2.07483 36.375 4.625C36.375 6.11584 37.0842 7.44397 38.1829 8.29028C36.1726 8.73218 34.9221 9.58276 34.2692 10.1566C33.4626 10.8652 33 11.8901 33 12.9688V14.125C33 15.1589 33.8411 16 34.875 16H47.125C48.1589 16 49 15.1589 49 14.125V12.9688C49 11.8901 48.5374 10.8652 47.7308 10.1566ZM37.625 4.625C37.625 2.76404 39.139 1.25 41 1.25C42.861 1.25 44.375 2.76404 44.375 4.625C44.375 6.48596 42.861 8 41 8C39.139 8 37.625 6.48596 37.625 4.625Z" fill="#505050"/>
<path d="M47.7308 26.1566C47.2006 25.6907 46.5575 25.2881 45.8193 24.9601C45.5038 24.82 45.1345 24.962 44.9944 25.2775C44.8542 25.5929 44.9963 25.9622 45.3118 26.1024C45.9342 26.379 46.4706 26.7131 46.9058 27.0956C47.4423 27.567 47.75 28.2496 47.75 28.9688V30.125C47.75 30.4696 47.4696 30.75 47.125 30.75H34.875C34.5304 30.75 34.25 30.4696 34.25 30.125V28.9688C34.25 28.2496 34.5577 27.567 35.0942 27.0956C35.7257 26.5406 37.5656 25.25 41 25.25C43.5502 25.25 45.625 23.1752 45.625 20.625C45.625 18.0748 43.5502 16 41 16C38.4498 16 36.375 18.0748 36.375 20.625C36.375 22.1158 37.0842 23.444 38.1829 24.2903C36.1726 24.7322 34.9221 25.5828 34.2692 26.1566C33.4626 26.8652 33 27.8901 33 28.9688V30.125C33 31.1589 33.8411 32 34.875 32H47.125C48.1589 32 49 31.1589 49 30.125V28.9688C49 27.8901 48.5374 26.8652 47.7308 26.1566ZM37.625 20.625C37.625 18.764 39.139 17.25 41 17.25C42.861 17.25 44.375 18.764 44.375 20.625C44.375 22.486 42.861 24 41 24C39.139 24 37.625 22.486 37.625 20.625Z" fill="#E07496"/>
<path d="M65.5088 1.83849C63.5514 -0.0242199 60.3653 -0.02422 58.4072 1.83807L58 2.22479L57.5933 1.83825C55.635 -0.0242904 52.4493 -0.0240794 50.491 1.83825C49.5295 2.7528 49 3.96587 49 5.25364C49 6.54184 49.5295 7.75469 50.4912 8.66963L57.5653 15.3856C57.6869 15.5014 57.8436 15.5591 58 15.5591C58.1564 15.5591 58.3129 15.5012 58.4347 15.3854L65.5088 8.66963C66.4703 7.7549 67 6.54187 67 5.25385C67 3.96587 66.4703 2.75301 65.5088 1.83849ZM64.6385 7.75385L58 14.0566L51.3617 7.75406C50.6533 7.08039 50.2632 6.19238 50.2632 5.25385C50.2632 4.31532 50.6533 3.42731 51.3617 2.75365C52.1006 2.05049 53.0712 1.69913 54.0419 1.69913C55.0128 1.69913 55.9838 2.05091 56.7227 2.75407L57.5648 3.55387C57.8086 3.78566 58.1911 3.78566 58.4349 3.55387L59.2773 2.75365C60.7554 1.34754 63.1602 1.34754 64.6383 2.75365C65.3465 3.42735 65.7368 4.31532 65.7368 5.25385C65.7368 6.19238 65.3465 7.08018 64.6385 7.75385Z" fill="#505050"/>
<path d="M65.5088 17.8385C63.5514 15.9758 60.3653 15.9758 58.4072 17.8381L58 18.2248L57.5933 17.8383C55.635 15.9757 52.4493 15.9759 50.491 17.8383C49.5295 18.7528 49 19.9659 49 21.2536C49 22.5418 49.5295 23.7547 50.4912 24.6696L57.5653 31.3856C57.6869 31.5014 57.8436 31.5591 58 31.5591C58.1564 31.5591 58.3129 31.5012 58.4347 31.3854L65.5088 24.6696C66.4703 23.7549 67 22.5419 67 21.2539C67 19.9659 66.4703 18.753 65.5088 17.8385ZM64.6385 23.7539L58 30.0566L51.3617 23.7541C50.6533 23.0804 50.2632 22.1924 50.2632 21.2539C50.2632 20.3153 50.6533 19.4273 51.3617 18.7537C52.1006 18.0505 53.0712 17.6991 54.0419 17.6991C55.0128 17.6991 55.9838 18.0509 56.7227 18.7541L57.5648 19.5539C57.8086 19.7857 58.1911 19.7857 58.4349 19.5539L59.2773 18.7537C60.7554 17.3475 63.1602 17.3475 64.6383 18.7537C65.3465 19.4274 65.7368 20.3153 65.7368 21.2539C65.7368 22.1924 65.3465 23.0802 64.6385 23.7539Z" fill="#788E39"/>
<defs>
<clipPath id="clip0">
<rect width="17" height="16" fill="white" transform="translate(16)"/>
</clipPath>
<clipPath id="clip1">
<rect width="17" height="16" fill="white" transform="translate(16 16)"/>
</clipPath>
</defs>
</svg>
