<svg width="20" height="22" viewBox="0 0 20 22" fill="none" xmlns="http://www.w3.org/2000/svg">
<path d="M19.3011 8.77711L16.5974 7.3545L17.1199 6.6519C17.3534 6.3361 17.5291 5.98157 17.6388 5.60474C18.0488 4.16284 17.4469 2.67171 16.141 1.89434C14.8351 1.11698 13.2338 1.29658 12.1565 2.34121C11.8761 2.61643 11.6468 2.93898 11.479 3.2939L11.1072 4.08621L8.56836 2.38806L8.53897 2.36948C8.31292 2.23527 8.04267 2.19609 7.78751 2.26053C7.53235 2.32496 7.31311 2.48776 7.17789 2.71321L5.21023 6.00273L5.49745 6.93903L7.09854 7.68638C7.31234 7.78615 7.50683 7.92275 7.67307 8.08993C8.29564 8.72964 8.39904 9.68589 7.93033 10.4694C7.46162 11.2529 6.56903 11.6161 5.70891 11.3734C5.48231 11.3068 5.26928 11.2009 5.07958 11.0605L3.66047 10.0099L2.69806 10.2023L0.560567 13.7755C0.493713 13.8872 0.449554 14.011 0.430611 14.1397C0.411667 14.2684 0.418311 14.3996 0.450162 14.5257C0.482012 14.6519 0.538447 14.7705 0.616243 14.8748C0.694039 14.9791 0.791672 15.067 0.903569 15.1336L9.70768 20.3747C10.0807 20.5967 10.4939 20.7432 10.9237 20.8058C11.3536 20.8684 11.7917 20.8458 12.213 20.7394C12.6343 20.633 13.0305 20.4449 13.3791 20.1857C13.7277 19.9265 14.0218 19.6014 14.2446 19.2289L19.6743 10.1523C19.8089 9.92652 19.8485 9.65676 19.7842 9.40216C19.7199 9.14756 19.557 8.92892 19.3313 8.79417L19.3011 8.77711ZM13.1086 18.5527C12.9749 18.7762 12.7984 18.9712 12.5893 19.1267C12.3801 19.2822 12.1423 19.3951 11.8896 19.459C11.6368 19.5228 11.3739 19.5364 11.116 19.4988C10.8581 19.4613 10.6102 19.3734 10.3864 19.2401L1.86606 14.168L3.45888 11.5057L4.29367 12.1238L4.29888 12.1275C4.61503 12.3603 4.97005 12.5353 5.34747 12.6444C6.79169 13.0522 8.28622 12.4499 9.06644 11.1457C9.84665 9.84141 9.66833 8.2434 8.62285 7.16913C8.34739 6.88957 8.02445 6.66098 7.66899 6.49393L6.72158 6.0517L8.1351 3.6888L11.0105 5.61205L11.9783 5.34297L12.6734 3.86191C12.7736 3.64843 12.9107 3.45419 13.0783 3.2881C13.7199 2.66606 14.678 2.56191 15.4626 3.02889C16.2471 3.49587 16.6101 4.38642 16.366 5.24519C16.2991 5.47125 16.1928 5.68382 16.0519 5.87314L15.0753 7.18656L15.2974 8.16407L18.3595 9.77527L13.1086 18.5527Z" fill="#D7AE89"/>
</svg>
