<svg width="24" height="18" viewBox="0 0 24 18" fill="none" xmlns="http://www.w3.org/2000/svg">
<path d="M2.02148 6.92898L1.18994 6.54545V4.90909L11.9999 0L22.8099 4.90909V6.54545L21.9783 6.92898V13.7557C21.9783 14.0795 21.8636 14.3224 21.634 14.4844C21.4045 14.6463 21.1035 14.7273 20.731 14.7273C20.3586 14.7273 20.0576 14.6463 19.828 14.4844C19.5985 14.3224 19.4837 14.0795 19.4837 13.7557V8.05398L13.2472 10.892V17.0284C13.2472 17.3523 13.1324 17.5952 12.9029 17.7571C12.6734 17.919 12.3724 18 11.9999 18C11.6275 18 11.3265 17.919 11.0969 17.7571C10.8674 17.5952 10.7526 17.3523 10.7526 17.0284V10.892L4.51609 8.05398V13.7557C4.51609 14.0795 4.40132 14.3224 4.17178 14.4844C3.94224 14.6463 3.64124 14.7273 3.26878 14.7273C2.89632 14.7273 2.59532 14.6463 2.36579 14.4844C2.13625 14.3224 2.02148 14.0795 2.02148 13.7557V6.92898Z" fill="#DFDFDF"/>
<path d="M14.6778 14.2792C14.6778 14.8735 13.5234 15.3553 12.0993 15.3553C10.6752 15.3553 9.52075 14.8735 9.52075 14.2792C9.52075 13.6849 10.6752 13.2031 12.0993 13.2031C13.5234 13.2031 14.6778 13.6849 14.6778 14.2792Z" fill="#DFDFDF"/>
<path d="M10.81 10.8555L9.52075 14.2794H14.5786L13.3885 10.8555H10.81Z" fill="#DFDFDF"/>
<path d="M5.15705 9.68156C5.15705 10.2759 4.0026 10.7576 2.57852 10.7576C1.15444 10.7576 0 10.2759 0 9.68156C0 9.08725 1.15444 8.60547 2.57852 8.60547C4.0026 8.60547 5.15705 9.08725 5.15705 9.68156Z" fill="#DFDFDF"/>
<path d="M1.28926 6.26172L0 9.68563H5.05788L3.86779 6.26172H1.28926Z" fill="#DFDFDF"/>
<path d="M24.0001 9.68156C24.0001 10.2759 22.8456 10.7576 21.4215 10.7576C19.9975 10.7576 18.843 10.2759 18.843 9.68156C18.843 9.08725 19.9975 8.60547 21.4215 8.60547C22.8456 8.60547 24.0001 9.08725 24.0001 9.68156Z" fill="#DFDFDF"/>
<path d="M20.1323 6.26172L18.843 9.68563H23.9009L22.7108 6.26172H20.1323Z" fill="#DFDFDF"/>
<path d="M9.52064 14.3782L2.87598 10.563L4.76028 4.8891C7.04129 4.43257 11.7223 3.51953 12.1983 3.51953C12.6744 3.51953 16.1653 4.04127 17.8513 4.30214L22.7108 10.563L14.5785 14.3782H9.52064Z" fill="#DFDFDF"/>
</svg>
