<svg width="18" height="18" viewBox="0 0 18 18" fill="none" xmlns="http://www.w3.org/2000/svg">
<path d="M9 0C10.1335 0 11.0987 0.398438 11.8956 1.19531C12.6925 1.99219 13.0909 2.95739 13.0909 4.09091C13.0909 5.22443 12.6925 6.18963 11.8956 6.98651C11.0987 7.78338 10.1335 8.18182 9 8.18182C7.86648 8.18182 6.90128 7.78338 6.1044 6.98651C5.30753 6.18963 4.90909 5.22443 4.90909 4.09091C4.90909 2.95739 5.30753 1.99219 6.1044 1.19531C6.90128 0.398438 7.86648 0 9 0ZM12.4773 4.11648C12.1449 4.18466 11.6697 4.1527 11.0518 4.0206C10.4339 3.88849 9.91193 3.73295 9.4858 3.55398C9.19602 3.42614 8.91903 3.27912 8.65483 3.11293C8.39062 2.94673 8.08807 2.73793 7.74716 2.48651C7.40625 2.23509 7.14205 2.04972 6.95455 1.9304C7.09091 2.9446 6.61364 3.66903 5.52273 4.10369C5.53125 5.06676 5.87429 5.88494 6.55185 6.55824C7.2294 7.23153 8.04545 7.56818 9 7.56818C9.95455 7.56818 10.7706 7.23153 11.4482 6.55824C12.1257 5.88494 12.4687 5.07102 12.4773 4.11648ZM10.6619 15.5327H7.41477C7.32955 15.5327 7.21875 15.5156 7.08239 15.4815C6.94602 15.4474 6.78409 15.3622 6.59659 15.2259C6.40909 15.0895 6.28551 14.919 6.22585 14.7145C6.08949 14.2543 5.97443 13.5639 5.88068 12.6435C5.78693 11.723 5.71449 10.9027 5.66335 10.1825C5.61222 9.46236 5.55682 9.06392 5.49716 8.98722C5.4375 9.01278 5.30327 9.08097 5.09446 9.19176C4.88565 9.30256 4.67045 9.40057 4.44886 9.4858C4.19318 9.57955 3.84375 9.70739 3.40057 9.86932C2.95739 10.0312 2.60795 10.1612 2.35227 10.2592C2.09659 10.3572 1.81321 10.4744 1.50213 10.6108C1.19105 10.7472 0.939631 10.8857 0.747869 11.0263C0.556108 11.1669 0.409091 11.3097 0.306818 11.4545C0.102273 12 0 14.1818 0 18H18C18 17.0455 17.9766 15.8011 17.9297 14.267C17.8828 12.733 17.804 11.7955 17.6932 11.4545C17.5909 11.3097 17.4439 11.1669 17.2521 11.0263C17.0604 10.8857 16.8089 10.7472 16.4979 10.6108C16.1868 10.4744 15.9034 10.3572 15.6477 10.2592C15.392 10.1612 15.0426 10.0312 14.5994 9.86932C14.1562 9.70739 13.8068 9.57955 13.5511 9.4858C13.3295 9.40057 13.1143 9.30256 12.9055 9.19176C12.6967 9.08097 12.5625 9.01278 12.5028 8.98722C12.4432 9.06392 12.3942 9.46236 12.3558 10.1825C12.3175 10.9027 12.2578 11.723 12.1768 12.6435C12.0959 13.5639 11.9872 14.2543 11.8509 14.7145C11.7912 14.919 11.6676 15.0895 11.4801 15.2259C11.2926 15.3622 11.1307 15.4474 10.9943 15.4815C10.858 15.5156 10.7472 15.5327 10.6619 15.5327ZM9 9.40909L11.4545 8.59091V11.0455L9 10.2273L6.54545 11.0455V8.59091L9 9.40909ZM9 12.2727C8.89773 12.2727 8.80398 12.2322 8.71875 12.1513C8.63352 12.0703 8.59091 11.9744 8.59091 11.8636C8.59091 11.7528 8.63352 11.657 8.71875 11.576C8.80398 11.495 8.89773 11.4545 9 11.4545C9.10227 11.4545 9.19602 11.495 9.28125 11.576C9.36648 11.657 9.40909 11.7528 9.40909 11.8636C9.40909 11.9744 9.36648 12.0703 9.28125 12.1513C9.19602 12.2322 9.10227 12.2727 9 12.2727ZM9 13.9091C8.89773 13.9091 8.80398 13.8686 8.71875 13.7876C8.63352 13.7067 8.59091 13.6108 8.59091 13.5C8.59091 13.3892 8.63352 13.2933 8.71875 13.2124C8.80398 13.1314 8.89773 13.0909 9 13.0909C9.10227 13.0909 9.19602 13.1314 9.28125 13.2124C9.36648 13.2933 9.40909 13.3892 9.40909 13.5C9.40909 13.6108 9.36648 13.7067 9.28125 13.7876C9.19602 13.8686 9.10227 13.9091 9 13.9091Z" fill="#DFDFDF"/>
</svg>
