<svg width="22" height="18" viewBox="0 0 22 18" fill="none" xmlns="http://www.w3.org/2000/svg">
<path d="M20.625 6.42857C20.625 8.14286 20.1667 9 19.25 9C19.207 9 19.1712 9.03348 19.1426 9.10045C19.2142 9.52902 19.25 9.92411 19.25 10.2857C19.25 11.7321 18.8597 13.1685 18.0791 14.5949C17.2985 16.0212 16.278 17.1562 15.0176 18H6.98242C5.56445 17.0491 4.45443 15.7299 3.65234 14.0424C3.39453 14.1094 3.09375 14.1429 2.75 14.1429C2.26302 14.1429 1.80469 13.8315 1.375 13.2087C0.945312 12.5859 0.608724 11.8326 0.365234 10.9487C0.121745 10.0647 0 9.20089 0 8.35714C0 6.21429 0.916667 5.14286 2.75 5.14286C3.48047 5.14286 4.05339 5.29018 4.46875 5.58482C5.24219 4.64732 6.19824 3.91071 7.33691 3.375C8.47559 2.83929 9.69661 2.57143 11 2.57143C12.3893 2.57143 13.6855 2.87612 14.8887 3.48549C16.0918 4.09487 17.0729 4.92187 17.832 5.96652C17.8607 5.88616 17.875 5.82589 17.875 5.78571C17.875 4.90179 18.2116 4.14509 18.8848 3.51562C19.5579 2.88616 20.3672 2.57143 21.3125 2.57143C21.5417 2.57143 21.7708 2.59152 22 2.6317V5.14286C21.6133 5.14286 21.2874 5.26674 21.0225 5.51451C20.7575 5.76228 20.625 6.06696 20.625 6.42857ZM2.75 6.42857C1.83333 6.42857 1.375 7.19196 1.375 8.71875C1.375 9.48214 1.57194 10.2891 1.96582 11.1395C2.3597 11.99 2.75716 12.529 3.1582 12.7567C2.88607 11.8862 2.75 11.0625 2.75 10.2857C2.75 9.14732 3.01497 8.0558 3.54492 7.01116C3.30143 6.62277 3.03646 6.42857 2.75 6.42857ZM9.625 1.27567C9.625 0.920759 9.75749 0.61942 10.0225 0.371652C10.2874 0.123884 10.6097 0 10.9893 0C11.3688 0 11.6947 0.123884 11.9668 0.371652C12.2389 0.61942 12.375 0.920759 12.375 1.27567C12.375 1.63058 12.2389 1.93527 11.9668 2.18973C11.6947 2.4442 11.3688 2.57143 10.9893 2.57143C10.6097 2.57143 10.2874 2.4442 10.0225 2.18973C9.75749 1.93527 9.625 1.63058 9.625 1.27567Z" fill="#DFDFDF"/>
</svg>
