<svg width="22" height="18" viewBox="0 0 22 18" fill="none" xmlns="http://www.w3.org/2000/svg">
<path d="M11.2749 14.3713C14.4458 14.3713 17.022 11.9834 17.1316 9.00009C17.022 6.01678 14.4458 3.62891 11.2749 3.62891C8.10429 3.62891 5.52736 6.01678 5.41919 9.00009C5.52699 11.9834 8.10392 14.3713 11.2749 14.3713Z" fill="#DFDFDF"/>
<path d="M11.2753 1.08008C6.82028 1.08008 3.20825 4.62607 3.20825 9.00006C3.20825 13.3737 6.82065 16.92 11.2753 16.92C15.7299 16.92 19.3419 13.3737 19.3419 9.00006C19.3419 4.62607 15.7299 1.08008 11.2753 1.08008ZM11.2749 14.76C8.03468 14.76 5.40788 12.2685 5.40788 9.1941C5.40788 9.12858 5.41705 9.06486 5.41925 9.00006C5.41705 8.93526 5.40788 8.87118 5.40788 8.80602C5.40788 5.73163 8.03505 3.24007 11.2749 3.24007C14.5151 3.24007 17.1416 5.73163 17.1416 8.80602C17.1416 8.87118 17.1339 8.93526 17.132 9.00006C17.1342 9.06486 17.1416 9.12858 17.1416 9.1941C17.1412 12.2685 14.5151 14.76 11.2749 14.76Z" fill="#DFDFDF"/>
<path d="M0.54319 0.151593C0.63119 -0.187166 0.805357 0.147633 0.805357 0.147633C0.805357 0.147633 0.866223 3.65403 1.26222 3.69219C1.65822 3.73035 1.35316 0.0842734 1.82176 0.0144335C2.25736 -0.0536063 2.00876 3.75014 2.40549 3.71162C2.80076 3.67058 2.86749 0.165633 2.86749 0.165633C2.86749 0.165633 3.04349 -0.168806 3.13039 0.167433C4.20399 4.31102 3.33536 6.00482 3.33536 6.00482C3.33536 6.00482 3.18869 6.36086 2.84036 6.36266C2.80772 6.36086 2.83229 16.2036 2.83009 17.527C2.83082 18.1703 0.813423 18.1505 0.814523 17.51C0.81599 16.1867 0.855223 6.34502 0.82369 6.34574C0.474257 6.34574 0.327957 5.99006 0.327957 5.99006C0.327957 5.99006 -0.537377 4.29734 0.54319 0.151593" fill="#DFDFDF"/>
<path d="M19.6607 6.85859e-07C20.1146 -0.00107931 21.9978 1.332 22 6.28631C22.0022 7.87066 21.1218 7.8703 21.1233 8.86138C21.1248 9.85066 21.1303 17.7195 21.1303 17.7195C21.1303 17.7195 20.1645 18.37 19.4465 17.6893L19.4333 0.14076C19.4341 0.14112 19.4315 -0.000359313 19.6607 6.85859e-07Z" fill="#DFDFDF"/>
</svg>
