<svg width="40" height="40" viewBox="0 0 40 40" fill="none" xmlns="http://www.w3.org/2000/svg">
<path d="M23.6 4.2842C23.6 3.0224 22.5776 2 21.3158 2H18.686C17.4224 2 16.4 3.0224 16.4 4.2842C16.4 5.3246 15.6872 6.2174 14.717 6.599C14.564 6.6602 14.411 6.725 14.2616 6.7898C13.3058 7.2038 12.17 7.0778 11.432 6.3416C11.0037 5.91358 10.4229 5.67315 9.8174 5.67315C9.21187 5.67315 8.63112 5.91358 8.2028 6.3416L6.3416 8.2028C5.91358 8.63112 5.67315 9.21187 5.67315 9.8174C5.67315 10.4229 5.91358 11.0037 6.3416 11.432C7.0796 12.17 7.2056 13.304 6.788 14.2616C6.72239 14.4123 6.65938 14.5641 6.599 14.717C6.2174 15.6872 5.3246 16.4 4.2842 16.4C3.0224 16.4 2 17.4224 2 18.6842V21.3158C2 22.5776 3.0224 23.6 4.2842 23.6C5.3246 23.6 6.2174 24.3128 6.599 25.283C6.6602 25.436 6.725 25.589 6.788 25.7384C7.2038 26.6942 7.0778 27.83 6.3416 28.568C5.91358 28.9963 5.67315 29.5771 5.67315 30.1826C5.67315 30.7881 5.91358 31.3689 6.3416 31.7972L8.2028 33.6584C8.63112 34.0864 9.21187 34.3269 9.8174 34.3269C10.4229 34.3269 11.0037 34.0864 11.432 33.6584C12.17 32.9204 13.304 32.7944 14.2616 33.2102C14.411 33.2768 14.564 33.3398 14.717 33.401C15.6872 33.7826 16.4 34.6754 16.4 35.7158C16.4 36.9776 17.4224 38 18.6842 38H21.3158C22.5776 38 23.6 36.9776 23.6 35.7158C23.6 34.6754 24.3128 33.7826 25.283 33.3992C25.436 33.3398 25.589 33.2768 25.7384 33.212C26.6942 32.7944 27.83 32.9222 28.5662 33.6584C28.7783 33.8706 29.0302 34.0389 29.3074 34.1538C29.5846 34.2686 29.8817 34.3278 30.1817 34.3278C30.4817 34.3278 30.7788 34.2686 31.056 34.1538C31.3332 34.0389 31.5851 33.8706 31.7972 33.6584L33.6584 31.7972C34.0864 31.3689 34.3269 30.7881 34.3269 30.1826C34.3269 29.5771 34.0864 28.9963 33.6584 28.568C32.9204 27.83 32.7944 26.696 33.2102 25.7384C33.2768 25.589 33.3398 25.436 33.401 25.283C33.7826 24.3128 34.6754 23.6 35.7158 23.6C36.9776 23.6 38 22.5776 38 21.3158V18.686C38 17.4242 36.9776 16.4018 35.7158 16.4018C34.6754 16.4018 33.7826 15.689 33.3992 14.7188C33.3389 14.5659 33.2759 14.4141 33.2102 14.2634C32.7962 13.3076 32.9222 12.1718 33.6584 11.4338C34.0864 11.0055 34.3269 10.4247 34.3269 9.8192C34.3269 9.21367 34.0864 8.63292 33.6584 8.2046L31.7972 6.3434C31.3689 5.91538 30.7881 5.67495 30.1826 5.67495C29.5771 5.67495 28.9963 5.91538 28.568 6.3434C27.83 7.0814 26.696 7.2074 25.7384 6.7916C25.5877 6.72537 25.4359 6.66176 25.283 6.6008C24.3128 6.2174 23.6 5.3246 23.6 4.286V4.2842Z" stroke="#788E39" stroke-width="3"/>
<path d="M27.2 20C27.2 21.9096 26.4414 23.7409 25.0912 25.0912C23.7409 26.4414 21.9096 27.2 20 27.2C18.0904 27.2 16.2591 26.4414 14.9088 25.0912C13.5586 23.7409 12.8 21.9096 12.8 20C12.8 18.0904 13.5586 16.2591 14.9088 14.9088C16.2591 13.5586 18.0904 12.8 20 12.8C21.9096 12.8 23.7409 13.5586 25.0912 14.9088C26.4414 16.2591 27.2 18.0904 27.2 20Z" stroke="#788E39" stroke-width="3"/>
</svg>
