<svg width="111" height="129" viewBox="0 0 111 129" fill="none" xmlns="http://www.w3.org/2000/svg">
<path d="M88.8587 16.3468C103.877 44.9527 132.808 78.5457 77.9912 122.573C49.3853 137.591 26.4163 120.068 11.398 91.4624C-3.62037 62.8565 -5.001 33.9998 23.6049 18.9814C52.2108 3.96306 73.8403 -12.2591 88.8587 16.3468Z" fill="#A5B96E"/>
<path d="M47.8594 21.3779H35.7344V24.4092H47.8594V21.3779Z" fill="black"/>
<path d="M53.9219 21.3779H50.8907V24.4092H53.9219V21.3779Z" fill="black"/>
<path d="M32.7032 21.3779H29.6719V24.4092H32.7032V21.3779Z" fill="black"/>
<path d="M46.3438 100.19H37.25V103.222H46.3438V100.19Z" fill="black"/>
<path d="M103.938 42.5967H69.0782V22.8936C69.0782 18.715 65.6786 15.3154 61.5 15.3154H22.0938C17.9152 15.3154 14.5157 18.715 14.5157 22.8936V101.706C14.5157 105.885 17.9152 109.284 22.0938 109.284H61.5C65.6786 109.284 69.0782 105.885 69.0782 101.706V85.0342H103.938C106.444 85.0342 108.484 82.9941 108.484 80.4873V47.1436C108.484 44.6367 106.444 42.5967 103.938 42.5967ZM105.453 47.1436V51.6904H53.9219V47.1436C53.9219 46.3069 54.6024 45.6279 55.4375 45.6279H103.938C104.773 45.6279 105.453 46.3069 105.453 47.1436ZM50.8907 73.6306C48.646 75.1387 46.0437 75.9404 43.3125 75.9404C35.792 75.9404 29.6719 69.8218 29.6719 62.2998C29.6719 54.7778 35.792 48.6592 43.3125 48.6592C46.0437 48.6592 48.646 49.4609 50.8907 50.9675V73.6306ZM53.9219 54.7217H105.453V60.7842H53.9219V54.7217ZM22.0938 18.3467H61.5C64.0069 18.3467 66.0469 20.3867 66.0469 22.8936V27.4404H17.5469V22.8936C17.5469 20.3867 19.587 18.3467 22.0938 18.3467ZM61.5 106.253H22.0938C19.587 106.253 17.5469 104.213 17.5469 101.706V97.1592H66.0469V101.706C66.0469 104.213 64.0069 106.253 61.5 106.253ZM66.0469 94.1279H17.5469V30.4717H66.0469V42.5967H63.0157V33.5029H20.5782V91.0967H63.0157V85.0342H66.0469V94.1279ZM103.938 82.0029H61.5L59.9844 82.1424V88.0654H23.6094V36.5342H59.9844V42.5967H55.4375C52.9307 42.5967 50.8907 44.6367 50.8907 47.1436V47.4497C48.5612 46.2554 45.9861 45.6279 43.3125 45.6279C34.1203 45.6279 26.6407 53.1075 26.6407 62.2998C26.6407 71.4921 34.1203 78.9717 43.3125 78.9717C45.9861 78.9717 48.5596 78.3442 50.8907 77.1499V80.4873C50.8907 82.9941 52.9307 85.0342 55.4375 85.0342H56.9532V82.0029H55.4375C54.6024 82.0029 53.9219 81.3239 53.9219 80.4873V63.8154H105.453V80.4873C105.453 81.3239 104.773 82.0029 103.938 82.0029Z" fill="black"/>
<path d="M96.3594 66.8467C95.2515 66.8467 94.2269 67.1665 93.3327 67.6879C92.4097 67.1453 91.3685 66.8467 90.2969 66.8467C86.9535 66.8467 84.2344 69.5657 84.2344 72.9092C84.2344 76.2526 86.9535 78.9717 90.2969 78.9717C91.3685 78.9717 92.4097 78.6731 93.3327 78.1305C94.2269 78.6519 95.2515 78.9717 96.3594 78.9717C99.7029 78.9717 102.422 76.2526 102.422 72.9092C102.422 69.5657 99.7029 66.8467 96.3594 66.8467ZM87.2657 72.9092C87.2657 71.2374 88.6252 69.8779 90.2969 69.8779C90.5849 69.8779 90.8395 69.9264 91.0775 69.9931C90.5955 70.8616 90.2969 71.8467 90.2969 72.9092C90.2969 73.9716 90.5955 74.9568 91.0775 75.8252C90.8395 75.8919 90.5849 75.9404 90.2969 75.9404C88.6252 75.9404 87.2657 74.5809 87.2657 72.9092ZM96.3594 75.9404C94.6877 75.9404 93.3282 74.5809 93.3282 72.9092C93.3282 71.2374 94.6877 69.8779 96.3594 69.8779C98.0312 69.8779 99.3907 71.2374 99.3907 72.9092C99.3907 74.5809 98.0312 75.9404 96.3594 75.9404Z" fill="black"/>
<path d="M59.9844 75.9404H56.9532V78.9717H59.9844V75.9404Z" fill="black"/>
<path d="M66.0469 75.9404H63.0157V78.9717H66.0469V75.9404Z" fill="black"/>
<path d="M72.1094 75.9404H69.0782V78.9717H72.1094V75.9404Z" fill="black"/>
<path d="M78.1719 75.9404H75.1407V78.9717H78.1719V75.9404Z" fill="black"/>
<path d="M78.1719 69.8779H56.9532V72.9092H78.1719V69.8779Z" fill="black"/>
<path d="M41.7969 51.6904V55.0006C40.0373 55.628 38.7657 57.2952 38.7657 59.2686C38.7657 61.7754 40.8057 63.8154 43.3125 63.8154C44.1477 63.8154 44.8282 64.4944 44.8282 65.3311C44.8282 66.1677 44.1477 66.8467 43.3125 66.8467C42.4774 66.8467 41.7969 66.1677 41.7969 65.3311H38.7657C38.7657 67.3044 40.0373 68.9716 41.7969 69.5991V72.9092H44.8282V69.5991C46.5878 68.9716 47.8594 67.3044 47.8594 65.3311C47.8594 62.8242 45.8194 60.7842 43.3125 60.7842C42.4774 60.7842 41.7969 60.1052 41.7969 59.2686C41.7969 58.4319 42.4774 57.7529 43.3125 57.7529C44.1477 57.7529 44.8282 58.4319 44.8282 59.2686H47.8594C47.8594 57.2952 46.5878 55.628 44.8282 55.0006V51.6904H41.7969Z" fill="black"/>
</svg>
