<svg width="118" height="12" viewBox="0 0 118 12" fill="none" xmlns="http://www.w3.org/2000/svg">
<path d="M0 5.75195H6.288V7.23995H0V5.75195Z" fill="#67A755"/>
<path d="M9.21094 5.75195H15.4989V7.23995H9.21094V5.75195Z" fill="#67A755"/>
<path d="M18.4219 5.75195H24.7099V7.23995H18.4219V5.75195Z" fill="#67A755"/>
<path d="M27.6328 5.75195H33.9208V7.23995H27.6328V5.75195Z" fill="#67A755"/>
<path d="M36.8438 5.75195H43.1318V7.23995H36.8438V5.75195Z" fill="#67A755"/>
<path d="M46.0547 5.75195H52.3427V7.23995H46.0547V5.75195Z" fill="#67A755"/>
<path d="M55.2656 5.75195H61.5536V7.23995H55.2656V5.75195Z" fill="#67A755"/>
<path d="M64.4766 5.75195H70.7646V7.23995H64.4766V5.75195Z" fill="#67A755"/>
<path d="M73.6875 5.75195H79.9755V7.23995H73.6875V5.75195Z" fill="#67A755"/>
<path d="M82.8984 5.75195H89.1864V7.23995H82.8984V5.75195Z" fill="#67A755"/>
<path d="M92.1094 5.75195H98.3974V7.23995H92.1094V5.75195Z" fill="#67A755"/>
<path d="M117.56 6L108.56 11.1962L108.56 0.803847L117.56 6Z" fill="#67A755"/>
</svg>
