<svg width="116" height="113" viewBox="0 0 116 113" fill="none" xmlns="http://www.w3.org/2000/svg">
<path d="M42.6184 2.06921C74.05 9.54587 118.383 9.81236 115.549 80.0635C108.073 111.495 79.7709 117.295 48.3393 109.818C16.9076 102.341 -5.75155 84.4198 1.72511 52.9881C9.20177 21.5565 11.1867 -5.40745 42.6184 2.06921Z" fill="#A5B96E"/>
<g clip-path="url(#clip0)">
<path d="M32.186 19.7544C32.3698 19.7544 32.5566 19.7188 32.7367 19.644L33.3019 19.4089C35.3586 18.5539 36.5441 16.3545 36.1211 14.1793L36.1121 14.1332C36.111 14.1277 36.1091 14.1183 36.1081 14.1129C35.9337 13.2688 36.3902 12.4085 37.1936 12.067L37.7827 11.8164C38.5124 11.5062 38.8523 10.6634 38.5422 9.93359C38.2319 9.20376 37.3888 8.86363 36.6594 9.17409L36.0702 9.42464C34.0128 10.2992 32.8462 12.5153 33.2939 14.681L33.3029 14.7273C33.4667 15.5701 33.0029 16.424 32.1996 16.758L31.6342 16.9932C30.9023 17.2975 30.5554 18.1378 30.86 18.8699C31.0895 19.4218 31.6233 19.7544 32.186 19.7544ZM97.4685 16.9609C98.0314 17.5188 98.9404 17.515 99.4986 16.9517C100.057 16.3885 100.053 15.4798 99.4894 14.9216L96.393 11.853C95.8301 11.2951 94.9211 11.2991 94.3629 11.8622C93.8048 12.4253 93.8088 13.3341 94.3721 13.8922L97.4685 16.9609ZM97.234 48.5336C97.7922 49.0969 98.7011 49.1007 99.2641 48.5428L102.36 45.4741C102.924 44.916 102.928 44.0072 102.37 43.4441C101.811 42.8806 100.903 42.877 100.34 43.4349L97.2432 46.5035C96.6801 47.0615 96.6759 47.9703 97.234 48.5336ZM82.7877 12.3156L83.3768 12.5662C84.1802 12.9076 84.6367 13.768 84.4591 14.628L84.4489 14.6789C84.0261 16.854 85.2119 19.0533 87.2681 19.9081L87.8335 20.1433C88.5486 20.4419 89.4021 20.11 89.7103 19.3691C90.0148 18.6372 89.668 17.7967 88.936 17.4924L88.3704 17.2571C87.5675 16.9233 87.1035 16.0695 87.2662 15.2311L87.2737 15.1932C87.7241 13.0146 86.5574 10.7986 84.4998 9.92402L83.9105 9.67347C83.1814 9.3632 82.3379 9.70352 82.0278 10.4332C81.7179 11.1628 82.0579 12.0056 82.7877 12.3156ZM99.7724 75.0161H74.8761V59.5943C74.8761 58.5157 75.7673 57.6381 76.8629 57.6381H81.6959C84.66 57.6381 87.4142 56.0526 88.8828 53.5013L96.7993 39.7731C97.8484 37.9523 97.8475 35.7796 96.7961 33.9609C95.7338 32.1227 93.8253 31.0251 91.6739 31.0251C89.5682 31.0251 87.6107 32.1512 86.5657 33.964L81.0117 43.6001C80.6581 44.2118 79.9955 44.592 79.2823 44.592H78.3136C78.2897 39.865 78.3136 28.1713 78.3136 23.9546C78.3136 19.1025 76.4068 14.5415 72.9443 11.1117C69.4865 7.68611 64.8896 5.7998 60.0001 5.7998C57.8344 5.7998 55.7136 6.17132 53.6971 6.90421C52.952 7.17486 52.5674 7.99848 52.8383 8.74362C53.1091 9.48876 53.932 9.87406 54.6777 9.60246C56.3789 8.98441 58.1697 8.67089 60.0001 8.67089C64.1278 8.67089 68.0074 10.262 70.9238 13.1513C73.6701 15.8716 75.2521 19.4357 75.4253 23.2522C74.67 22.8582 73.8115 22.6341 72.9008 22.6341C70.3276 22.6341 67.7358 21.8876 65.4377 20.7857C64.1 20.1441 62.8304 19.3528 61.6648 18.4333C60.6876 17.662 59.2816 17.6824 58.3222 18.4819C57.1017 19.4987 55.7519 20.352 54.3104 21.0179C52.1219 22.0291 49.5503 22.6341 47.0992 22.6341C46.1887 22.6341 45.3304 22.8582 44.5753 23.252C44.7549 19.2577 46.461 15.573 49.4292 12.8131C50.0097 12.2733 50.0428 11.3651 49.5029 10.7842C48.9631 10.2039 48.0547 10.1704 47.474 10.7105C43.7959 14.1303 41.6864 18.9576 41.6864 23.9544C41.6864 29.3117 41.731 39.5446 41.6864 44.5918H40.7177C40.0044 44.5918 39.3419 44.2118 38.9891 43.6012L33.4344 33.9636C32.3893 32.1508 30.4318 31.0247 28.3091 31.0247C26.1749 31.0247 24.2664 32.1221 23.2041 33.9605C22.1529 35.7793 22.1518 37.9521 23.2011 39.7733L31.1168 53.4998C32.5861 56.0522 35.34 57.6378 38.3043 57.6378H43.1373C44.2329 57.6378 45.1241 58.5154 45.1241 59.5939V75.0157H20.2278C17.8532 75.0157 15.9211 76.9477 15.9211 79.3223V84.8642C15.9211 87.2388 17.8532 89.1709 20.2278 89.1709H24.2094L28.0377 102.753C28.2161 103.386 28.7918 103.799 29.4187 103.799C30.3445 103.799 31.0607 102.874 30.8012 101.974L27.1924 89.1709H73.8516C74.6445 89.1709 75.2871 88.5283 75.2871 87.7353C75.2871 86.9423 74.6445 86.2998 73.8516 86.2998H20.2278C19.4361 86.2998 18.7922 85.6559 18.7922 84.8642V79.3223C18.7922 78.5306 19.4361 77.8867 20.2278 77.8867H99.7724C100.564 77.8867 101.208 78.5306 101.208 79.3223V84.8642C101.208 85.6559 100.564 86.2998 99.7724 86.2998H80.5506C79.7576 86.2998 79.115 86.9423 79.115 87.7353C79.115 88.5283 79.7576 89.1709 80.5506 89.1709H92.8078L89.199 101.974C88.9839 102.737 89.4281 103.53 90.1913 103.745C90.9347 103.955 91.7466 103.525 91.9625 102.753L95.7908 89.1709H99.7724C102.147 89.1709 104.079 87.2388 104.079 84.8642V79.3223C104.079 76.9481 102.147 75.0161 99.7724 75.0161ZM89.053 35.398C89.5872 34.4716 90.5913 33.8962 91.6911 33.8962C92.7879 33.8962 93.7671 34.4574 94.3103 35.3974C94.8424 36.3181 94.8428 37.4181 94.312 38.3393L92.5676 41.3643L87.2681 38.4947L89.053 35.398ZM73.147 30.538V25.5173C74.3174 25.6271 75.2599 26.5118 75.4427 27.6432V28.4427C75.2666 29.5701 74.2841 30.471 73.146 30.5713C73.146 30.5602 73.147 30.5491 73.147 30.538ZM72.8111 33.4541H72.9008C73.8008 33.4541 74.6679 33.238 75.4425 32.831V44.592H66.6149C66.5896 44.592 66.5691 44.5715 66.5691 44.546V41.8237C69.678 40.0359 71.9852 37.0228 72.8111 33.4541ZM49.7243 25.3482C51.7299 25.0533 53.672 24.4752 55.5145 23.6241C57.1317 22.8768 58.649 21.9263 60.0271 20.7972C61.32 21.8007 62.7219 22.6674 64.1967 23.3745C66.1249 24.2986 68.1643 24.9486 70.2757 25.3124V30.538C70.2757 36.1431 65.6661 40.7032 59.9999 40.7032C54.3337 40.7032 49.7241 36.1431 49.7241 30.538V25.3482H49.7243ZM65.1495 47.064C63.6736 48.1546 61.8699 48.7692 60.0001 48.7692C58.1303 48.7692 56.3268 48.1548 54.8507 47.064C55.7172 46.5575 56.3022 45.6198 56.3022 44.5458V43.046C57.4759 43.388 58.7162 43.5743 60.0001 43.5743C61.2841 43.5743 62.5244 43.388 63.6981 43.046V44.5458C63.6981 45.6198 64.283 46.5577 65.1495 47.064ZM44.5575 27.6432C44.7405 26.5118 45.6828 25.6271 46.8532 25.5173V30.538C46.8532 30.5491 46.854 30.56 46.854 30.5713C45.7092 30.4703 44.7344 29.5756 44.5573 28.4427V27.6432H44.5575ZM44.5575 32.8312C45.3319 33.238 46.1992 33.4541 47.0992 33.4541H47.189C48.0149 37.0226 50.3221 40.0357 53.4309 41.8235V44.5458C53.4309 44.5713 53.4104 44.5918 53.3851 44.5918H44.5575V32.8312ZM25.6884 38.3399C25.1574 37.4181 25.1578 36.3181 25.6899 35.3974C26.2331 34.4574 27.2122 33.8962 28.3261 33.8962C29.4087 33.8962 30.4128 34.4716 30.9469 35.3978L32.7365 38.503L27.4566 41.4064L25.6884 38.3399ZM72.0051 59.5943V75.0161H47.9952V59.5943C47.9952 56.9326 45.8158 54.7671 43.1373 54.7671H38.3043C36.364 54.7671 34.5635 53.7329 33.6045 52.0669L28.8914 43.8941L34.1707 40.991L36.5024 45.0366C37.3674 46.5332 38.9826 47.463 40.7177 47.463H51.1221C53.3042 50.0908 56.5686 51.6403 59.9999 51.6403C63.4312 51.6403 66.6957 50.0908 68.8777 47.463H79.2821C81.0172 47.463 82.6327 46.5334 83.4982 45.0351L85.8337 40.9828L91.1326 43.852L86.3947 52.0677C85.4364 53.7325 83.6358 54.7669 81.6955 54.7669H76.8626C74.1842 54.7671 72.0051 56.9326 72.0051 59.5943ZM19.9493 45.6717C20.5122 46.2296 21.4212 46.2258 21.9793 45.6625C22.5375 45.0994 22.5334 44.1906 21.9701 43.6324L18.8738 40.5638C18.311 40.0059 17.402 40.0097 16.8437 40.573C16.2856 41.1361 16.2896 42.0449 16.8529 42.6031L19.9493 45.6717ZM86.8845 64.1825L86.8757 64.2277C86.4529 66.4026 87.6387 68.6021 89.695 69.4571L90.2604 69.6923C90.9758 69.9909 91.8287 69.659 92.1371 68.9181C92.4416 68.1861 92.0948 67.3457 91.3629 67.0413L90.7974 66.8061C89.9943 66.4721 89.5303 65.618 89.6942 64.7741L89.6992 64.7479C89.6997 64.7458 89.7001 64.7439 89.7005 64.7418C90.1509 62.5634 88.9843 60.3473 86.9267 59.4726L86.3373 59.222C85.6079 58.9118 84.7647 59.2521 84.4547 59.9817C84.1446 60.7114 84.4845 61.5543 85.2143 61.8644L85.8035 62.1149C86.6026 62.4545 87.0585 63.3078 86.8916 64.1477C86.8891 64.1591 86.8868 64.1708 86.8845 64.1825ZM25.1766 56.3862L25.7657 56.1356C26.4953 55.8254 26.8353 54.9826 26.5252 54.2528C26.2149 53.5229 25.3718 53.183 24.6423 53.4933L24.0532 53.7438C21.9956 54.6185 20.829 56.8346 21.2769 59.0002L21.2859 59.0465C21.4497 59.8891 20.9859 60.7431 20.1828 61.0769L19.6172 61.3122C18.8851 61.6167 18.5382 62.4568 18.8426 63.1889C19.1507 63.93 20.0025 64.2625 20.7193 63.9635L21.2851 63.7283C23.3416 62.8731 24.5271 60.6737 24.1043 58.4989L24.0953 58.4528L24.0913 58.4323C23.9165 57.588 24.373 56.7276 25.1766 56.3862Z" fill="black"/>
</g>
<defs>
<clipPath id="clip0">
<rect width="98" height="98" fill="white" transform="translate(11.0001 5.7998)"/>
</clipPath>
</defs>
</svg>
