<svg width="114" height="116" viewBox="0 0 114 116" fill="none" xmlns="http://www.w3.org/2000/svg">
<path d="M111.817 44.1645C103.455 75.3723 101.935 119.68 31.7921 114.862C0.584379 106.5 -4.41273 78.0453 3.94936 46.8376C12.3115 15.6298 30.8662 -6.51375 62.074 1.84835C93.2817 10.2104 120.179 12.9567 111.817 44.1645Z" fill="#A5B96E"/>
<path d="M79.7239 90.8247L74.3442 86.0191L75.9503 84.7166C76.6691 84.1303 77.2777 83.4224 77.7478 82.6255C79.5243 79.5707 79.0073 75.8203 76.4612 73.2932C73.915 70.766 70.1364 70.2529 67.0588 72.0163C66.2561 72.4829 65.5429 73.0869 64.9523 73.8003L63.6398 75.3944L58.7981 70.0549L58.7414 69.9956C58.3005 69.5589 57.7031 69.3137 57.0802 69.3137C56.4573 69.3137 55.8599 69.5589 55.419 69.9956L48.9975 76.3697L49.114 78.6724L52.3549 81.3011C52.7877 81.6521 53.1548 82.076 53.4394 82.5534C54.4973 84.3724 54.1804 86.6147 52.6508 88.1329C51.1212 89.6511 48.8625 89.9655 47.0294 88.9158C46.5481 88.6331 46.1206 88.2685 45.7667 87.8387L43.1191 84.6227L40.7991 84.5072L33.8235 91.4308C33.6054 91.6473 33.4323 91.9044 33.3142 92.1873C33.1962 92.4702 33.1354 92.7734 33.1354 93.0797C33.1354 93.3859 33.1962 93.6891 33.3142 93.972C33.4323 94.2549 33.6054 94.512 33.8235 94.7285L50.989 111.766C51.7162 112.488 52.5795 113.061 53.5296 113.451C54.4798 113.842 55.4981 114.043 56.5265 114.043C57.5549 114.043 58.5732 113.842 59.5234 113.451C60.4735 113.061 61.3368 112.488 62.064 111.766L79.7833 94.1786C80.2232 93.741 80.4702 93.148 80.4702 92.5298C80.4702 91.9116 80.2232 91.3187 79.7833 90.881L79.7239 90.8247ZM59.8489 109.568C59.4126 110.001 58.8946 110.344 58.3246 110.579C57.7545 110.813 57.1435 110.934 56.5264 110.934C55.9094 110.934 55.2984 110.813 54.7283 110.579C54.1582 110.344 53.6403 110.001 53.204 109.568L36.5917 93.0794L41.7896 87.9207L43.347 89.8127L43.3568 89.8242C43.9474 90.5377 44.6607 91.1418 45.4635 91.6084C48.5412 93.3717 52.3197 92.8585 54.8659 90.3313C57.4121 87.8041 57.9289 84.0538 56.1525 80.9992C55.6824 80.2023 55.0738 79.4944 54.3549 78.9082L52.4372 77.3527L57.0501 72.7741L62.5336 78.8214L64.9106 78.7652L67.3639 75.7853C67.7175 75.3558 68.1445 74.9914 68.6255 74.709C70.4581 73.659 72.7172 73.9736 74.2468 75.4917C75.7764 77.0098 76.0934 79.2517 75.0355 81.0711C74.7509 81.5486 74.3838 81.9725 73.951 82.3234L70.9487 84.7583L70.892 87.1176L76.9849 92.5602L59.8489 109.568Z" fill="#04051C"/>
<path d="M31.2761 26.958L36.6558 31.7636L35.0497 33.0662C34.3309 33.6524 33.7223 34.3603 33.2522 35.1572C31.4757 38.212 31.9927 41.9625 34.5389 44.4896C37.085 47.0167 40.8636 47.5298 43.9412 45.7664C44.7439 45.2998 45.4571 44.6958 46.0477 43.9824L47.3602 42.3883L52.2019 47.7278L52.2586 47.7872C52.6995 48.2238 53.297 48.469 53.9198 48.469C54.5427 48.469 55.1401 48.2238 55.581 47.7872L62.0025 41.413L61.8861 39.1103L58.6451 36.4816C58.2123 36.1306 57.8452 35.7067 57.5606 35.2293C56.5028 33.4103 56.8196 31.168 58.3492 29.6498C59.8788 28.1316 62.1375 27.8172 63.9706 28.8669C64.452 29.1496 64.8794 29.5142 65.2334 29.944L67.881 33.16L70.2009 33.2755L77.1765 26.352C77.3946 26.1354 77.5677 25.8784 77.6858 25.5954C77.8039 25.3125 77.8646 25.0093 77.8646 24.7031C77.8646 24.3968 77.8039 24.0936 77.6858 23.8107C77.5677 23.5278 77.3946 23.2707 77.1765 23.0542L60.011 6.01641C59.2838 5.29463 58.4205 4.72209 57.4704 4.33146C56.5203 3.94084 55.5019 3.73979 54.4735 3.73979C53.4451 3.73979 52.4268 3.94084 51.4767 4.33146C50.5265 4.72209 49.6632 5.29463 48.936 6.01641L31.2167 23.6041C30.7768 24.0418 30.5298 24.6347 30.5298 25.2529C30.5298 25.8711 30.7768 26.464 31.2167 26.9017L31.2761 26.958ZM51.1511 8.21484C51.5874 7.78177 52.1054 7.43824 52.6754 7.20386C53.2455 6.96948 53.8565 6.84885 54.4736 6.84885C55.0906 6.84885 55.7016 6.96948 56.2717 7.20386C56.8418 7.43824 57.3597 7.78177 57.7961 8.21484L74.4083 24.7034L69.2104 29.862L67.653 27.97L67.6432 27.9585C67.0526 27.245 66.3394 26.6409 65.5365 26.1743C62.4588 24.411 58.6803 24.9242 56.1341 27.4514C53.5879 29.9786 53.0711 33.7289 54.8476 36.7836C55.3176 37.5804 55.9262 38.2884 56.6451 38.8745L58.5628 40.4301L53.9499 45.0086L48.4664 38.9613L46.0894 39.0176L43.6361 41.9974C43.2826 42.427 42.8555 42.7913 42.3746 43.0738C40.5419 44.1238 38.2828 43.8092 36.7532 42.291C35.2236 40.7729 34.9066 38.531 35.9645 36.7116C36.2491 36.2341 36.6162 35.8102 37.049 35.4593L40.0513 33.0244L40.108 30.6652L34.0151 25.2225L51.1511 8.21484Z" fill="#04051C"/>
<path d="M24.2182 82.0306L29.0238 76.651L30.3264 78.257C30.9126 78.9759 31.6205 79.5845 32.4174 80.0546C35.4722 81.831 39.2227 81.3141 41.7498 78.7679C44.2769 76.2217 44.79 72.4431 43.0266 69.3656C42.56 68.5628 41.956 67.8496 41.2426 67.259L39.6485 65.9465L44.988 61.1048L45.0474 61.0482C45.484 60.6072 45.7292 60.0098 45.7292 59.3869C45.7292 58.7641 45.484 58.1667 45.0474 57.7257L38.6732 51.3042L36.3705 51.4207L33.7418 54.6616C33.3908 55.0944 32.9669 55.4615 32.4895 55.7461C30.6705 56.804 28.4283 56.4871 26.91 54.9575C25.3918 53.4279 25.0774 51.1692 26.1271 49.3362C26.4098 48.8548 26.7744 48.4273 27.2042 48.0734L30.4202 45.4258L30.5357 43.1058L23.6122 36.1303C23.3956 35.9121 23.1386 35.7391 22.8556 35.621C22.5727 35.5029 22.2695 35.4421 21.9633 35.4421C21.657 35.4421 21.3538 35.5029 21.0709 35.621C20.788 35.7391 20.5309 35.9121 20.3144 36.1303L3.27662 53.2958C2.55484 54.023 1.98229 54.8863 1.59167 55.8364C1.20104 56.7865 0.999991 57.8048 0.999991 58.8332C0.999991 59.8616 1.20104 60.88 1.59167 61.8301C1.98229 62.7802 2.55484 63.6435 3.27662 64.3707L20.8643 82.0901C21.302 82.5299 21.8949 82.7769 22.5131 82.7769C23.1313 82.7769 23.7242 82.5299 24.1619 82.0901L24.2182 82.0306ZM5.47504 62.1557C5.04197 61.7194 4.69844 61.2014 4.46406 60.6313C4.22969 60.0612 4.10906 59.4502 4.10906 58.8332C4.10906 58.2161 4.22969 57.6051 4.46406 57.0351C4.69844 56.465 5.04197 55.947 5.47504 55.5107L21.9636 38.8985L27.1222 44.0964L25.2303 45.6538L25.2187 45.6636C24.5052 46.2542 23.9012 46.9674 23.4346 47.7702C21.6712 50.848 22.1844 54.6265 24.7116 57.1727C27.2388 59.7188 30.9891 60.2357 34.0438 58.4592C34.8406 57.9891 35.5486 57.3805 36.1347 56.6617L37.6903 54.7439L42.2688 59.3569L36.2215 64.8404L36.2778 67.2173L39.2576 69.6706C39.6872 70.0242 40.0515 70.4513 40.334 70.9322C41.384 72.7649 41.0694 75.024 39.5512 76.5536C38.0331 78.0832 35.7912 78.4001 33.9718 77.3423C33.4943 77.0577 33.0704 76.6906 32.7195 76.2577L30.2846 73.2555L27.9254 73.1987L22.4827 79.2916L5.47504 62.1557Z" fill="#04051C"/>
<path d="M86.7817 35.7521L81.9761 41.1318L80.6736 39.5257C80.0874 38.8068 79.3794 38.1982 78.5826 37.7282C75.5278 35.9517 71.7773 36.4686 69.2502 39.0148C66.7231 41.561 66.21 45.3396 67.9733 48.4171C68.44 49.2199 69.044 49.9331 69.7574 50.5237L71.3515 51.8362L66.012 56.6779L65.9526 56.7345C65.516 57.1755 65.2708 57.7729 65.2708 58.3958C65.2708 59.0186 65.516 59.616 65.9526 60.057L72.3268 66.4785L74.6294 66.362L77.2582 63.1211C77.6091 62.6883 78.0331 62.3212 78.5105 62.0366C80.3295 60.9787 82.5717 61.2956 84.0899 62.8252C85.6082 64.3548 85.9226 66.6135 84.8729 68.4465C84.5902 68.9279 84.2256 69.3554 83.7957 69.7093L80.5798 72.3569L80.4642 74.6769L87.3878 81.6524C87.6044 81.8706 87.8614 82.0437 88.1443 82.1617C88.4273 82.2798 88.7305 82.3406 89.0367 82.3406C89.3429 82.3406 89.6462 82.2798 89.9291 82.1617C90.212 82.0437 90.4691 81.8706 90.6856 81.6524L107.723 64.4869C108.445 63.7598 109.018 62.8965 109.408 61.9463C109.799 60.9962 110 59.9779 110 58.9495C110 57.9211 109.799 56.9027 109.408 55.9526C109.018 55.0025 108.445 54.1392 107.723 53.412L90.1357 35.6927C89.698 35.2528 89.1051 35.0058 88.4869 35.0058C87.8687 35.0058 87.2758 35.2528 86.8381 35.6927L86.7817 35.7521ZM105.525 55.627C105.958 56.0633 106.302 56.5813 106.536 57.1514C106.77 57.7215 106.891 58.3325 106.891 58.9495C106.891 59.5666 106.77 60.1776 106.536 60.7476C106.302 61.3177 105.958 61.8357 105.525 62.272L89.0364 78.8842L83.8777 73.6863L85.7697 72.1289L85.7813 72.1191C86.4948 71.5286 87.0988 70.8153 87.5654 70.0125C89.3288 66.9347 88.8156 63.1562 86.2884 60.6101C83.7612 58.0639 80.0109 57.547 76.9562 59.3235C76.1593 59.7936 75.4514 60.4022 74.8652 61.121L73.3097 63.0388L68.7312 58.4259L74.7785 52.9423L74.7222 50.5654L71.7424 48.1121C71.3128 47.7585 70.9485 47.3315 70.666 46.8505C69.616 45.0178 69.9306 42.7588 71.4487 41.2292C72.9668 39.6995 75.2088 39.3826 77.0282 40.4405C77.5056 40.725 77.9295 41.0922 78.2805 41.525L80.7154 44.5272L83.0746 44.584L88.5173 38.4911L105.525 55.627Z" fill="#04051C"/>
</svg>
