<svg width="40" height="40" viewBox="0 0 40 40" fill="none" xmlns="http://www.w3.org/2000/svg">
<path d="M38.9415 15.1606L33.3653 12.2313L34.4429 10.7846C34.9245 10.1343 35.2868 9.40426 35.513 8.62833C36.3587 5.65932 35.1174 2.58893 32.424 0.988263C29.7306 -0.612408 26.4279 -0.24258 24.2059 1.9084C23.6278 2.47512 23.1548 3.13927 22.8088 3.87009L22.0418 5.50153L16.8056 2.00488L16.745 1.96661C16.2788 1.69026 15.7214 1.60958 15.1951 1.74227C14.6689 1.87496 14.2167 2.21017 13.9378 2.67439L9.87956 9.44785L10.4719 11.3758L13.7741 12.9146C14.2151 13.1201 14.6162 13.4014 14.9591 13.7456C16.2431 15.0628 16.4564 17.0318 15.4897 18.6452C14.523 20.2585 12.682 21.0063 10.9081 20.5066C10.4407 20.3695 10.0014 20.1513 9.61009 19.8622L6.68322 17.699L4.69827 18.0952L0.289765 25.4526C0.151882 25.6827 0.0608048 25.9376 0.0217342 26.2027C-0.0173359 26.4678 -0.00363399 26.7379 0.0620577 26.9976C0.127749 27.2572 0.244144 27.5015 0.404595 27.7162C0.565047 27.931 0.766413 28.1121 0.997196 28.2493L19.1554 39.0411C19.9247 39.4983 20.7769 39.8 21.6635 39.9288C22.55 40.0577 23.4536 40.0113 24.3225 39.7922C25.1914 39.5731 26.0087 39.1857 26.7276 38.652C27.4466 38.1183 28.0532 37.4489 28.5128 36.6819L39.7112 17.9922C39.989 17.5273 40.0705 16.9718 39.9379 16.4476C39.8052 15.9234 39.4693 15.4731 39.0038 15.1957L38.9415 15.1606ZM26.1697 35.2894C25.8939 35.7496 25.53 36.1513 25.0986 36.4715C24.6672 36.7917 24.1768 37.0241 23.6555 37.1556C23.1341 37.287 22.592 37.3149 22.0601 37.2376C21.5281 37.1603 21.0168 36.9793 20.5552 36.705L2.9823 26.261L6.26744 20.779L7.98918 22.0517L7.99993 22.0594C8.65198 22.5386 9.38418 22.8989 10.1626 23.1236C13.1413 23.9633 16.2237 22.7232 17.8329 20.0376C19.442 17.3521 19.0742 14.0616 16.918 11.8496C16.3499 11.2739 15.6838 10.8032 14.9507 10.4593L12.9967 9.54867L15.912 4.68323L21.8424 8.64339L23.8386 8.08933L25.2722 5.03967C25.4788 4.6001 25.7615 4.20014 26.1072 3.85815C27.4304 2.5773 29.4066 2.36284 31.0247 3.32441C32.6427 4.28597 33.3915 6.1197 32.8879 7.88798C32.7499 8.35348 32.5307 8.79118 32.2403 9.181L30.226 11.8855L30.6841 13.8983L36.9996 17.2159L26.1697 35.2894Z" fill="#E07496"/>
</svg>
