<svg width="45" height="51" viewBox="0 0 45 51" fill="none" xmlns="http://www.w3.org/2000/svg">
<g clip-path="url(#clip0_199_528)">
<path d="M43.2802 28.4859H40.4192C40.0386 24.9976 38.6453 21.6677 36.3998 18.9483C36.1371 18.63 35.6663 18.5849 35.3481 18.8479C35.0298 19.1106 34.985 19.5814 35.2477 19.8997C37.2721 22.3514 38.5406 25.3451 38.9145 28.4859H5.99558C6.96366 20.2673 13.976 13.8698 22.456 13.8698C26.2805 13.8698 29.8727 15.1344 32.845 17.5265C33.1664 17.7853 33.6368 17.7343 33.8952 17.4129C34.1539 17.0915 34.1029 16.6211 33.7819 16.3624C31.0971 14.2017 27.8275 12.8573 24.4128 12.483V11.6955C25.3953 11.2087 26.0342 10.3589 26.0342 9.37257C26.0342 7.82474 24.4626 6.6123 22.456 6.6123C20.4494 6.6123 18.8779 7.82474 18.8779 9.37257C18.8779 10.3589 19.5168 11.2087 20.4993 11.6955V12.4819C12.0932 13.3912 5.3987 20.0845 4.49249 28.4859H1.63184C0.945076 28.4859 0.386719 29.0446 0.386719 29.731V31.3469C0.386719 32.0337 0.945076 32.5921 1.63184 32.5921H2.72793C2.761 32.6559 2.79797 32.7193 2.84116 32.7819L4.23802 34.808C4.68743 35.4597 5.62283 35.9512 6.41464 35.9512H9.97879L11.5457 38.9608C11.9904 39.8145 12.9974 40.8522 13.8379 41.3223L19.2211 44.3331H19.079C18.3923 44.3331 17.8339 44.8915 17.8339 45.5782V49.7552C17.8339 50.442 18.3923 51.0003 19.079 51.0003H32.8909C33.5777 51.0003 34.136 50.442 34.136 49.7552V45.5782C34.136 44.8915 33.5777 44.3331 32.8909 44.3331H32.0679V44.0526C32.0679 43.3258 32.31 42.1476 32.5963 41.4799L34.8239 36.2858C34.8714 36.1741 34.908 36.0624 34.9356 35.9508H38.4978C39.2892 35.9508 40.225 35.4597 40.6744 34.808L42.0709 32.7819C42.1141 32.7193 42.1511 32.6559 42.1841 32.5921H43.2802C43.967 32.5921 44.5253 32.0337 44.5253 31.3469V29.731C44.5253 29.0446 43.967 28.4859 43.2802 28.4859ZM22.9187 12.3823C22.7646 12.3784 22.6105 12.3756 22.456 12.3756C22.3016 12.3756 22.1471 12.378 21.9934 12.3819V12.1103C22.1448 12.1247 22.2988 12.1328 22.456 12.1328C22.6132 12.1328 22.7673 12.1247 22.9187 12.1103V12.3823ZM20.372 9.37257C20.372 8.62628 21.4704 8.10645 22.456 8.10645C23.4416 8.10645 24.54 8.62628 24.54 9.37257C24.54 10.1189 23.4416 10.6387 22.456 10.6387C21.4704 10.6387 20.372 10.1189 20.372 9.37257ZM32.6419 45.8273V49.5062H29.7773V45.8273H32.6419ZM31.2232 40.8908C30.859 41.7398 30.5738 43.1289 30.5738 44.0526V44.3331H27.2373C26.8248 44.3331 26.4902 44.6674 26.4902 45.0802C26.4902 45.4926 26.8248 45.8273 27.2373 45.8273H28.2832V49.5062H19.3281V45.8273H23.751C24.1634 45.8273 24.498 45.4926 24.498 45.0802C24.498 44.6674 24.1634 44.3331 23.751 44.3331H21.4483C21.1541 43.8775 20.7693 43.4868 20.3409 43.2472L14.5674 40.018C13.9764 39.6877 13.1838 38.871 12.8714 38.2706L11.6636 35.9508H14.1052L14.5052 36.7414C14.9705 37.662 16.0635 38.5892 17.0472 38.8986L21.2027 40.2052C22.0634 40.476 23.4443 40.688 24.3463 40.688H26.1147C27.189 40.688 28.4622 40.0235 29.0766 39.1425L31.0792 36.271C31.1563 36.1605 31.2613 36.0523 31.3835 35.9508H33.3419L31.2232 40.8908ZM15.7795 35.9508H29.4804L27.8509 38.2881C27.5202 38.762 26.6929 39.1939 26.1147 39.1939H24.3459C23.5984 39.1939 22.3642 39.0044 21.6506 38.7799L17.4954 37.4733C16.9067 37.2881 16.1168 36.6177 15.8382 36.0671L15.7795 35.9508ZM39.4441 33.9597C39.271 34.2107 38.8025 34.4566 38.4978 34.4566H6.41464C6.10959 34.4566 5.64111 34.2107 5.46796 33.9597L4.52518 32.5921H40.3869L39.4441 33.9597ZM43.0312 31.0979H1.88086V29.98H43.0312V31.0979Z" fill="#E07496"/>
<path d="M9.64687 11.8519H12.3748C12.7873 11.8519 13.1219 11.5173 13.1219 11.1048C13.1219 10.692 12.7873 10.3578 12.3748 10.3578H9.64687C8.71109 10.3578 7.95001 9.59553 7.95001 8.65935C7.95001 7.72279 8.71109 6.96094 9.64687 6.96094H11.4663C11.8787 6.96094 12.2134 6.62631 12.2134 6.21387C12.2134 5.80103 11.8787 5.4668 11.4663 5.4668H9.64687C7.88737 5.4668 6.45587 6.89907 6.45587 8.65935C6.45587 10.4196 7.88737 11.8519 9.64687 11.8519Z" fill="#E07496"/>
<path d="M14.0278 1.49414H16.4379C17.5316 1.49414 18.4219 2.38518 18.4219 3.4801C18.4219 4.57542 17.5316 5.46645 16.4379 5.46645H14.9853C14.5729 5.46645 14.2383 5.80069 14.2383 6.21352C14.2383 6.62597 14.5729 6.96059 14.9853 6.96059H16.4379C18.3557 6.96059 19.916 5.39914 19.916 3.4801C19.916 1.56145 18.3557 0 16.4379 0H14.0278C13.6149 0 13.2807 0.334236 13.2807 0.74707C13.2807 1.1599 13.6149 1.49414 14.0278 1.49414Z" fill="#E07496"/>
<path d="M28.6318 11.9033C29.0443 11.9033 29.3789 11.5691 29.3789 11.1562V9.67495C29.3789 9.0629 29.8761 8.56524 30.487 8.56524H34.8811C36.5142 8.56524 37.8422 7.23608 37.8422 5.60225C37.8422 3.96881 36.5138 2.63965 34.8811 2.63965H33.3535C32.9407 2.63965 32.6065 2.97388 32.6065 3.38672C32.6065 3.79955 32.9407 4.13379 33.3535 4.13379H34.8811C35.6901 4.13379 36.348 4.79253 36.348 5.60225C36.348 6.41235 35.6901 7.0711 34.8811 7.0711H30.487C29.052 7.0711 27.8847 8.23917 27.8847 9.67495V11.1562C27.8847 11.5691 28.2194 11.9033 28.6318 11.9033Z" fill="#E07496"/>
<path d="M21.958 46.667H20.6631C20.2506 46.667 19.916 47.0012 19.916 47.4141C19.916 47.8269 20.2506 48.1611 20.6631 48.1611H21.958C22.3704 48.1611 22.705 47.8269 22.705 47.4141C22.705 47.0012 22.3704 46.667 21.958 46.667Z" fill="#E07496"/>
</g>
<defs>
<clipPath id="clip0_199_528">
<rect width="45" height="51" fill="white"/>
</clipPath>
</defs>
</svg>
