<svg width="336" height="336" viewBox="0 0 336 336" fill="none" xmlns="http://www.w3.org/2000/svg">
<path d="M107.225 246.99C108.619 247.681 109.792 248.749 110.61 250.074C111.429 251.398 111.859 252.924 111.854 254.481V273.771H123.021V254.481C123.033 250.849 122.028 247.287 120.118 244.197C118.209 241.108 115.472 238.615 112.218 237.002L88.7314 225.258L84.3073 207.563L85.6166 206.778C88.5036 205.034 90.893 202.576 92.5547 199.642C94.2164 196.707 95.0944 193.393 95.1041 190.021V160.708C95.0962 153.677 92.2995 146.936 87.3276 141.964C82.3557 136.992 75.6146 134.195 68.5833 134.187H54.625C47.5936 134.195 40.8526 136.992 35.8807 141.964C30.9088 146.936 28.1121 153.677 28.1041 160.708V190.021C28.1139 193.393 28.9919 196.707 30.6535 199.642C32.3152 202.576 34.7046 205.034 37.5916 206.778L38.9009 207.563L34.4768 225.258L10.9898 237.002C7.73601 238.615 4.99926 241.108 3.08995 244.197C1.18063 247.287 0.175139 250.849 0.18749 254.481V268.187H11.3542V254.481C11.3488 252.924 11.7797 251.398 12.5979 250.074C13.4162 248.749 14.589 247.681 15.9834 246.99L38.1681 235.898L57.656 255.385C58.1745 255.904 58.79 256.315 59.4674 256.596C60.1448 256.876 60.8709 257.021 61.6041 257.021C62.3374 257.021 63.0634 256.876 63.7408 256.596C64.4183 256.315 65.0338 255.904 65.5522 255.385L85.0402 235.898L107.225 246.99ZM39.2708 160.708C39.2754 156.637 40.8946 152.735 43.773 149.856C46.6515 146.978 50.5542 145.359 54.625 145.354H68.5833C72.654 145.359 76.5568 146.978 79.4352 149.856C82.3137 152.735 83.9328 156.637 83.9374 160.708V190.021C83.9335 191.466 83.5573 192.886 82.8451 194.144C82.1329 195.402 81.1088 196.455 79.8714 197.202L65.9131 205.577C64.6121 206.36 63.1224 206.774 61.6041 206.774C60.0858 206.774 58.5962 206.36 57.2952 205.577L43.3369 197.202C42.0995 196.455 41.0753 195.402 40.3632 194.144C39.651 192.886 39.2748 191.466 39.2708 190.021V160.708ZM61.6041 243.542L45.4543 227.391L48.9097 213.568L51.5499 215.153C54.5859 216.978 58.0616 217.943 61.6041 217.943C65.1467 217.943 68.6224 216.978 71.6583 215.153L74.2985 213.568L77.7539 227.391L61.6041 243.542Z" fill="#DF7495"/>
<path d="M0.1875 279.354H11.3542V335.187H0.1875V279.354Z" fill="#DF7495"/>
<path d="M28.1041 279.354H39.2708V335.187H28.1041V279.354Z" fill="#DF7495"/>
<path d="M324.385 237.002L300.898 225.258L296.474 207.563L297.783 206.778C300.67 205.034 303.06 202.576 304.721 199.642C306.383 196.707 307.261 193.393 307.271 190.021V178.854H296.104V190.021C296.1 191.466 295.724 192.886 295.012 194.144C294.299 195.402 293.275 196.455 292.038 197.202L278.08 205.577C276.779 206.36 275.289 206.774 273.771 206.774C272.252 206.774 270.763 206.36 269.462 205.577L255.503 197.202C254.266 196.455 253.242 195.402 252.53 194.144C251.817 192.886 251.441 191.466 251.437 190.021V160.708C251.442 156.637 253.061 152.735 255.94 149.856C258.818 146.978 262.721 145.359 266.791 145.354H280.75C284.821 145.359 288.723 146.978 291.602 149.856C294.48 152.735 296.099 156.637 296.104 160.708V167.687H307.271V160.708C307.263 153.677 304.466 146.936 299.494 141.964C294.522 136.992 287.781 134.195 280.75 134.187H266.791C259.76 134.195 253.019 136.992 248.047 141.964C243.075 146.936 240.279 153.677 240.271 160.708V190.021C240.28 193.393 241.158 196.707 242.82 199.642C244.482 202.576 246.871 205.034 249.758 206.778L251.067 207.563L246.643 225.258L223.156 237.002C219.903 238.615 217.166 241.108 215.256 244.197C213.347 247.287 212.342 250.849 212.354 254.481V273.771H223.521V254.481C223.515 252.924 223.946 251.398 224.764 250.074C225.583 248.749 226.755 247.681 228.15 246.99L250.335 235.898L269.822 255.385C270.341 255.904 270.956 256.315 271.634 256.596C272.311 256.876 273.037 257.021 273.771 257.021C274.504 257.021 275.23 256.876 275.907 256.596C276.585 256.315 277.2 255.904 277.719 255.385L297.207 235.898L319.391 246.99C320.786 247.681 321.959 248.749 322.777 250.074C323.595 251.398 324.026 252.924 324.021 254.481V335.187H335.187V254.481C335.2 250.849 334.194 247.287 332.285 244.197C330.375 241.108 327.639 238.615 324.385 237.002V237.002ZM273.771 243.542L257.621 227.391L261.076 213.568L263.716 215.153C266.752 216.978 270.228 217.943 273.771 217.943C277.313 217.943 280.789 216.978 283.825 215.153L286.465 213.568L289.92 227.391L273.771 243.542Z" fill="#DF7495"/>
<path d="M296.104 279.354H307.271V335.187H296.104V279.354Z" fill="#DF7495"/>
<path d="M218.302 287.252L194.815 275.508L190.391 257.813L191.7 257.028C194.587 255.284 196.976 252.826 198.638 249.892C200.3 246.957 201.178 243.643 201.187 240.271V210.958C201.186 206.686 200.153 202.477 198.175 198.69C196.197 194.903 193.333 191.651 189.827 189.209L203.32 168.969L227.031 178.454L231.178 168.086L205.665 157.882L196.865 131.479L202.601 128.16C205.474 126.491 207.875 124.119 209.579 121.266C211.284 118.414 212.235 115.175 212.344 111.854H215.146C220.327 111.848 225.294 109.787 228.957 106.124C232.621 102.46 234.681 97.4934 234.687 92.3124V86.7291C234.681 81.5482 232.621 76.5811 228.957 72.9176C225.294 69.2541 220.327 67.1934 215.146 67.1875H212.354V55.9433C215.424 55.5963 218.258 54.132 220.317 51.8295C222.377 49.5271 223.517 46.5474 223.521 43.4583V31.1478C223.533 27.516 222.528 23.9535 220.618 20.8642C218.709 17.7748 215.972 15.2823 212.718 13.6692L187.025 0.82191C186.226 0.404095 185.338 0.186388 184.437 0.187504H106.271C104.79 0.187504 103.37 0.775746 102.323 1.82282C101.276 2.8699 100.688 4.29004 100.688 5.77083V29.5C100.696 35.8059 102.947 41.9032 107.039 46.7015C111.13 51.4997 116.795 54.6858 123.021 55.69V67.1875H120.229C115.048 67.1934 110.081 69.2541 106.418 72.9176C102.754 76.5811 100.693 81.5482 100.688 86.7291V92.3124C100.693 97.4934 102.754 102.46 106.418 106.124C110.081 109.787 115.048 111.848 120.229 111.854H123.025C123.094 115.234 124.036 118.539 125.76 121.446C127.485 124.354 129.933 126.766 132.866 128.447L138.455 131.641L129.708 157.883L104.196 168.088L108.343 178.456L132.053 168.972L145.546 189.211C142.041 191.653 139.177 194.905 137.199 198.692C135.222 202.478 134.188 206.686 134.187 210.958V240.271C134.197 243.643 135.075 246.957 136.737 249.892C138.399 252.826 140.788 255.284 143.675 257.028L144.984 257.813L140.56 275.508L117.073 287.252C113.819 288.865 111.083 291.358 109.173 294.447C107.264 297.537 106.258 301.099 106.271 304.731V335.187H117.437V304.731C117.432 303.174 117.863 301.648 118.681 300.323C119.499 298.999 120.672 297.931 122.067 297.239L144.251 286.148L163.739 305.635C164.258 306.154 164.873 306.565 165.551 306.846C166.228 307.126 166.954 307.271 167.687 307.271C168.421 307.271 169.147 307.126 169.824 306.846C170.502 306.565 171.117 306.154 171.636 305.635L191.123 286.148L213.308 297.239C214.703 297.931 215.875 298.999 216.694 300.323C217.512 301.648 217.943 303.174 217.937 304.731V335.187H229.104V304.731C229.116 301.099 228.111 297.537 226.202 294.447C224.292 291.358 221.556 288.865 218.302 287.252V287.252ZM215.146 78.3541C217.366 78.3565 219.495 79.2397 221.065 80.8098C222.635 82.3799 223.518 84.5087 223.521 86.7291V92.3124C223.518 94.5329 222.635 96.6617 221.065 98.2318C219.495 99.8019 217.366 100.685 215.146 100.687H212.354V78.3541H215.146ZM212.354 31.1478V43.4583C212.354 43.8285 212.207 44.1835 211.945 44.4453C211.683 44.7071 211.328 44.8541 210.958 44.8541H190.021V14.8047L207.725 23.6563C209.119 24.3479 210.292 25.4162 211.11 26.7403C211.928 28.0644 212.359 29.5913 212.354 31.1478ZM178.854 44.8541H162.104V11.3542H178.854V44.8541ZM150.937 11.3542V44.8541H139.771V11.3542H150.937ZM111.854 29.5V11.3542H128.604V44.8541H127.208C123.138 44.8495 119.235 43.2304 116.356 40.3519C113.478 37.4735 111.859 33.5707 111.854 29.5V29.5ZM111.854 92.3124V86.7291C111.857 84.5087 112.74 82.3799 114.31 80.8098C115.88 79.2397 118.009 78.3565 120.229 78.3541H123.021V100.687H120.229C118.009 100.685 115.88 99.8019 114.31 98.2318C112.74 96.6617 111.857 94.5329 111.854 92.3124V92.3124ZM134.187 111.481V56.0208H201.187V111.246C201.185 112.714 200.798 114.156 200.064 115.428C199.331 116.7 198.277 117.757 197.008 118.495L171.838 133.061C170.569 133.792 169.131 134.179 167.666 134.183C166.201 134.187 164.761 133.808 163.488 133.084L138.407 118.752C137.127 118.018 136.062 116.959 135.321 115.683C134.581 114.406 134.19 112.957 134.187 111.481V111.481ZM140.348 161.279L148.344 137.291L157.948 142.779C160.919 144.469 164.279 145.354 167.697 145.344C171.115 145.335 174.471 144.432 177.432 142.726L186.997 137.19L195.023 161.279L179.313 184.846C177.779 184.574 176.224 184.437 174.667 184.437H160.708C159.149 184.437 157.594 184.574 156.059 184.846L140.348 161.279ZM145.354 210.958C145.359 206.887 146.978 202.985 149.856 200.106C152.735 197.228 156.638 195.609 160.708 195.604H174.667C178.737 195.609 182.64 197.228 185.519 200.106C188.397 202.985 190.016 206.887 190.021 210.958V240.271C190.017 241.716 189.641 243.136 188.928 244.394C188.216 245.652 187.192 246.705 185.955 247.452L171.996 255.827C170.695 256.61 169.206 257.023 167.687 257.023C166.169 257.023 164.68 256.61 163.379 255.827L149.42 247.452C148.183 246.705 147.159 245.652 146.446 244.394C145.734 243.136 145.358 241.716 145.354 240.271V210.958ZM167.687 293.792L151.538 277.641L154.993 263.818L157.633 265.403C160.669 267.228 164.145 268.193 167.687 268.193C171.23 268.193 174.706 267.228 177.742 265.403L180.382 263.818L183.837 277.641L167.687 293.792Z" fill="#DF7495"/>
<path d="M253.038 74.4269L297.698 29.7668L305.593 37.6617L260.933 82.3217L253.038 74.4269Z" fill="#DF7495"/>
<path d="M262.604 100.688H312.854V111.854H262.604V100.688Z" fill="#DF7495"/>
<path d="M29.7286 37.6382L37.6235 29.7434L82.2835 74.4034L74.3887 82.2982L29.7286 37.6382Z" fill="#DF7495"/>
<path d="M22.5209 100.688H72.7708V111.854H22.5209V100.688Z" fill="#DF7495"/>
</svg>
