<svg width="70" height="70" viewBox="0 0 70 70" fill="none" xmlns="http://www.w3.org/2000/svg">
<path d="M59.8407 27.8383C59.838 27.8354 59.8365 27.8332 59.8335 27.8303L53.8452 22.1272C53.6331 21.9252 53.3515 21.8125 53.0586 21.8125H50.5332L49.9997 4.58096C49.9711 3.6941 49.5979 2.85334 48.9594 2.23722C48.3209 1.6211 47.4673 1.27818 46.58 1.28127H23.6075C22.7194 1.27847 21.8651 1.62222 21.2265 2.23944C20.5878 2.85665 20.2151 3.69864 20.1876 4.58637L19.6543 21.8125H17.1289C16.836 21.8125 16.5544 21.9252 16.3423 22.1272L10.354 27.8303C10.1576 28.0181 10.0349 28.27 10.0081 28.5405C10.0071 28.5466 10.0061 28.5526 10.0054 28.5592C10.004 28.575 10.0034 28.5908 10.0027 28.6068C10.002 28.6228 10 28.6377 10 28.6563V33.2188C10 33.5213 10.1202 33.8114 10.3341 34.0253C10.548 34.2392 10.8381 34.3594 11.1406 34.3594H16.8438V38.4495L14.8983 40.395L14.8971 40.396L14.8963 40.3972C14.6826 40.611 14.5626 40.9009 14.5625 41.2031V45.7656C14.5625 46.0227 14.6494 46.2722 14.809 46.4738C14.9686 46.6753 15.1915 46.817 15.4418 46.8759C15.9082 46.9857 16.3755 47.0909 16.8438 47.1914V64.9709L15.7617 68.2171C15.7045 68.3886 15.6889 68.5712 15.7161 68.7499C15.7433 68.9286 15.8126 69.0983 15.9183 69.245C16.024 69.3916 16.163 69.5111 16.3239 69.5934C16.4848 69.6758 16.663 69.7188 16.8438 69.7188H23.6875C23.8682 69.7188 24.0464 69.6758 24.2072 69.5934C24.3681 69.5111 24.5071 69.3917 24.6128 69.245C24.7185 69.0984 24.7878 68.9288 24.815 68.7501C24.8423 68.5715 24.8267 68.3889 24.7695 68.2174L23.9945 65.8924L35.0938 58.2083L46.193 65.8923L45.418 68.2174C45.3608 68.3889 45.3452 68.5715 45.3725 68.7501C45.3997 68.9288 45.469 69.0984 45.5747 69.245C45.6804 69.3917 45.8194 69.5111 45.9803 69.5934C46.1411 69.6758 46.3193 69.7188 46.5 69.7188H53.3438C53.5245 69.7188 53.7026 69.6758 53.8635 69.5934C54.0244 69.5111 54.1634 69.3917 54.269 69.245C54.3747 69.0984 54.444 68.9288 54.4713 68.7501C54.4985 68.5715 54.4829 68.3889 54.4258 68.2174L53.3438 64.9709V47.1914C53.8119 47.0898 54.2792 46.9845 54.7457 46.8755C54.9959 46.8166 55.2188 46.675 55.3784 46.4735C55.538 46.2721 55.6249 46.0226 55.625 45.7656V41.2031C55.6248 40.9032 55.5066 40.6155 55.2958 40.4021C55.2938 40.4003 55.2928 40.3986 55.2909 40.3966L55.2898 40.3956L53.3438 38.4495V34.3594H59.0469C59.3494 34.3594 59.6395 34.2392 59.8534 34.0253C60.0673 33.8114 60.1875 33.5213 60.1875 33.2188V28.6563C60.1876 28.5036 60.157 28.3525 60.0974 28.212C60.0378 28.0714 59.9505 27.9444 59.8407 27.8383ZM56.1953 27.5156H52.6755L49.2536 24.0938H52.6023L56.1953 27.5156ZM47.6406 27.0433V25.7068L51.0625 29.1286V30.4652L47.6406 27.0433ZM52.2068 40.5387C40.9189 42.8864 29.2686 42.8864 17.9807 40.5387L22.8891 35.6303C30.8945 37.695 39.293 37.695 47.2984 35.6303L52.2068 40.5387ZM19.125 29.1286L22.5469 25.7068V27.0433L19.125 30.4652V29.1286ZM47.7198 4.65695L47.8623 9.26565H45.5534L45.3554 6.88958C45.3316 6.60448 45.2015 6.33873 44.991 6.14501C44.7805 5.9513 44.5048 5.84378 44.2188 5.84377H40.7969V3.56252H46.58C46.8749 3.56118 47.1588 3.67465 47.3715 3.87892C47.5842 4.08319 47.7091 4.36222 47.7198 4.65695V4.65695ZM40.7969 8.12502H43.1692L43.2643 9.26565H41.3672C41.2159 9.26565 41.0709 9.20556 40.9639 9.09861C40.857 8.99165 40.7969 8.84659 40.7969 8.69533V8.12502ZM23.6075 3.56252H29.3906V5.84377H25.9688C25.6827 5.84378 25.407 5.9513 25.1965 6.14501C24.986 6.33873 24.8559 6.60448 24.8321 6.88958L24.6341 9.26565H22.3243L22.4669 4.66237C22.4764 4.36663 22.6009 4.08627 22.8139 3.88089C23.0269 3.67551 23.3116 3.56129 23.6075 3.56252V3.56252ZM29.3906 8.12502V8.69533C29.3906 8.84659 29.3305 8.99165 29.2236 9.09861C29.1166 9.20556 28.9716 9.26565 28.8203 9.26565H26.9232L27.0183 8.12502H29.3906ZM22.2544 11.5469H28.8203C29.5763 11.546 30.3011 11.2453 30.8357 10.7107C31.3703 10.1762 31.671 9.45135 31.6719 8.69533V3.56252H38.5156V8.69533C38.5165 9.45135 38.8172 10.1762 39.3518 10.7107C39.8864 11.2453 40.6112 11.546 41.3672 11.5469H47.9332L48.251 21.8125C48.251 21.8125 46.1993 21.843 46.0634 21.8994C45.855 21.9857 45.6769 22.1319 45.5516 22.3195C45.4263 22.507 45.3594 22.7276 45.3594 22.9531V27.5156C45.3594 27.6654 45.3889 27.8138 45.4462 27.9522C45.5035 28.0905 45.5875 28.2163 45.6934 28.3222L46.5 29.1286V33.4791C45.743 33.6704 44.9826 33.8423 44.2188 33.9948V32.0781C44.2188 31.7756 44.0986 31.4855 43.8847 31.2716C43.6708 31.0577 43.3806 30.9375 43.0781 30.9375C42.7756 30.9375 42.4855 31.0577 42.2716 31.2716C42.0577 31.4855 41.9375 31.7756 41.9375 32.0781V34.3919C37.3999 35.0654 32.7876 35.0654 28.25 34.3919V32.0781C28.25 31.7756 28.1298 31.4855 27.9159 31.2716C27.702 31.0577 27.4119 30.9375 27.1094 30.9375C26.8069 30.9375 26.5167 31.0577 26.3028 31.2716C26.0889 31.4855 25.9688 31.7756 25.9688 32.0781V33.9948C25.2051 33.8423 24.4447 33.6704 23.6875 33.4791V29.1286L24.4941 28.3222C24.6 28.2163 24.684 28.0905 24.7413 27.9522C24.7986 27.8138 24.8281 27.6654 24.8281 27.5156C24.8281 27.5156 24.7886 22.6309 24.7413 22.5166C24.655 22.3082 24.5088 22.13 24.3212 22.0047C24.1336 21.8794 23.9131 21.8125 23.6875 21.8125H21.9365L22.2544 11.5469ZM17.5852 24.0938H20.9339L17.512 27.5156H13.9922L17.5852 24.0938ZM12.2812 29.7969H16.8438V32.0781H12.2812V29.7969ZM19.125 33.6911L21.4062 31.4099V33.887L19.125 36.1683V33.6911ZM21.3725 48.0488C21.3663 48.1642 21.4062 64.0156 21.4062 64.0156H19.125V47.6559C19.8723 47.797 20.6215 47.9278 21.3725 48.0483V48.0488ZM46.5 58.3838L40.6258 54.3786L46.5 50.3116V58.3838ZM23.6875 63.3303V61.1447L41.6552 48.8941C42.7718 48.8092 43.8864 48.7033 44.9989 48.5763L23.6875 63.3303ZM23.6875 50.3116L29.5617 54.3785L23.6875 58.3838V50.3116ZM35.0938 50.6067L32.9067 49.1162C33.6356 49.1347 34.3646 49.1442 35.0938 49.1448C35.8229 49.1453 36.5519 49.1358 37.2808 49.1162L35.0938 50.6067ZM28.5323 48.8941L33.0691 51.9872L31.5812 53.0018L25.1888 48.5763C26.3009 48.7045 27.4153 48.8104 28.5323 48.8941ZM18.4264 67.4375L18.8065 66.2969H21.7248L22.1049 67.4375H18.4264ZM38.6164 55.7695L46.5 61.1447V63.3303L37.0977 56.8209L38.6164 55.7695ZM48.0826 67.4375L48.4627 66.2969H51.381L51.7611 67.4375H48.0826ZM51.0625 64.0156H48.7812V48.054C49.5435 47.9314 50.3039 47.7987 51.0625 47.6559V64.0156ZM53.3438 44.8571C41.3242 47.5329 28.8633 47.5329 16.8438 44.8571V42.6306C28.8713 45.233 41.3162 45.233 53.3438 42.6306V44.8571ZM48.7812 33.887V31.4099L51.0625 33.6911V36.1683L48.7812 33.887ZM57.9062 32.0781H53.3438V29.7969H57.9062V32.0781Z" fill="#67A755"/>
<path d="M27.1094 17.25C27.4119 17.25 27.702 17.1298 27.9159 16.9159C28.1298 16.702 28.25 16.4119 28.25 16.1094V14.9688C28.25 14.6662 28.1298 14.3761 27.9159 14.1622C27.702 13.9483 27.4119 13.8281 27.1094 13.8281C26.8069 13.8281 26.5167 13.9483 26.3028 14.1622C26.0889 14.3761 25.9688 14.6662 25.9688 14.9688V16.1094C25.9688 16.4119 26.0889 16.702 26.3028 16.9159C26.5167 17.1298 26.8069 17.25 27.1094 17.25Z" fill="#67A755"/>
<path d="M27.1094 22.9531C27.4119 22.9531 27.702 22.833 27.9159 22.619C28.1298 22.4051 28.25 22.115 28.25 21.8125V20.6719C28.25 20.3694 28.1298 20.0792 27.9159 19.8653C27.702 19.6514 27.4119 19.5312 27.1094 19.5312C26.8069 19.5312 26.5167 19.6514 26.3028 19.8653C26.0889 20.0792 25.9688 20.3694 25.9688 20.6719V21.8125C25.9688 22.115 26.0889 22.4051 26.3028 22.619C26.5167 22.833 26.8069 22.9531 27.1094 22.9531Z" fill="#67A755"/>
<path d="M27.1094 28.6562C27.4119 28.6562 27.702 28.5361 27.9159 28.3222C28.1298 28.1083 28.25 27.8181 28.25 27.5156V26.375C28.25 26.0725 28.1298 25.7824 27.9159 25.5685C27.702 25.3545 27.4119 25.2344 27.1094 25.2344C26.8069 25.2344 26.5167 25.3545 26.3028 25.5685C26.0889 25.7824 25.9688 26.0725 25.9688 26.375V27.5156C25.9688 27.8181 26.0889 28.1083 26.3028 28.3222C26.5167 28.5361 26.8069 28.6562 27.1094 28.6562Z" fill="#67A755"/>
<path d="M43.0781 17.25C43.3806 17.25 43.6708 17.1298 43.8847 16.9159C44.0986 16.702 44.2188 16.4119 44.2188 16.1094V14.9688C44.2188 14.6662 44.0986 14.3761 43.8847 14.1622C43.6708 13.9483 43.3806 13.8281 43.0781 13.8281C42.7756 13.8281 42.4855 13.9483 42.2716 14.1622C42.0577 14.3761 41.9375 14.6662 41.9375 14.9688V16.1094C41.9375 16.4119 42.0577 16.702 42.2716 16.9159C42.4855 17.1298 42.7756 17.25 43.0781 17.25Z" fill="#67A755"/>
<path d="M43.0781 22.9531C43.3806 22.9531 43.6708 22.833 43.8847 22.619C44.0986 22.4051 44.2188 22.115 44.2188 21.8125V20.6719C44.2188 20.3694 44.0986 20.0792 43.8847 19.8653C43.6708 19.6514 43.3806 19.5312 43.0781 19.5312C42.7756 19.5312 42.4855 19.6514 42.2716 19.8653C42.0577 20.0792 41.9375 20.3694 41.9375 20.6719V21.8125C41.9375 22.115 42.0577 22.4051 42.2716 22.619C42.4855 22.833 42.7756 22.9531 43.0781 22.9531Z" fill="#67A755"/>
<path d="M43.0781 28.6562C43.3806 28.6562 43.6708 28.5361 43.8847 28.3222C44.0986 28.1083 44.2188 27.8181 44.2188 27.5156V26.375C44.2188 26.0725 44.0986 25.7824 43.8847 25.5685C43.6708 25.3545 43.3806 25.2344 43.0781 25.2344C42.7756 25.2344 42.4855 25.3545 42.2716 25.5685C42.0577 25.7824 41.9375 26.0725 41.9375 26.375V27.5156C41.9375 27.8181 42.0577 28.1083 42.2716 28.3222C42.4855 28.5361 42.7756 28.6562 43.0781 28.6562Z" fill="#67A755"/>
</svg>
