<svg width="65" height="70" viewBox="0 0 65 70" fill="none" xmlns="http://www.w3.org/2000/svg">
<path d="M6.49996 33.4168H19.4999C20.696 33.4154 21.6652 32.4462 21.6666 31.2501V20.4168C21.6652 19.2208 20.696 18.2515 19.4999 18.2501H6.49996C5.30393 18.2515 4.33465 19.2207 4.33325 20.4168V31.2501C4.33478 32.4461 5.30393 33.4154 6.49996 33.4168ZM6.49996 20.4168H19.4999L19.5009 31.2501H6.49996V20.4168Z" fill="#67A755"/>
<path d="M24.9165 21.5002H40.0832C40.6816 21.5002 41.1665 21.0151 41.1665 20.4169C41.1665 19.8187 40.6816 19.3336 40.0832 19.3336H24.9165C24.3182 19.3336 23.8333 19.8186 23.8333 20.4169C23.8333 21.0152 24.3182 21.5002 24.9165 21.5002Z" fill="#67A755"/>
<path d="M24.9165 25.8334H40.0832C40.6816 25.8334 41.1665 25.3485 41.1665 24.7502C41.1665 24.1518 40.6816 23.6669 40.0832 23.6669H24.9165C24.3182 23.6669 23.8333 24.1518 23.8333 24.7502C23.8333 25.3485 24.3182 25.8334 24.9165 25.8334Z" fill="#67A755"/>
<path d="M24.9165 30.1668H40.0832C40.6816 30.1668 41.1665 29.6817 41.1665 29.0835C41.1665 28.4852 40.6816 28.0002 40.0832 28.0002H24.9165C24.3182 28.0002 23.8333 28.4853 23.8333 29.0835C23.8333 29.6817 24.3182 30.1668 24.9165 30.1668Z" fill="#67A755"/>
<path d="M62.8333 36.6668H45.4999V13.9168C45.4964 10.9267 43.0733 8.50367 40.0832 8.50011H33.4294C32.9383 6.59176 31.2204 5.25583 29.2498 5.25012H26.9294C26.4437 3.33834 24.7226 2 22.75 2C20.7774 2 19.0564 3.33834 18.5704 5.25012H16.25C14.2795 5.25596 12.5615 6.59176 12.0704 8.50011H5.4167C2.42658 8.50367 0.00355468 10.9267 0 13.9168V61.5834C0.00355468 64.5735 2.42658 66.9966 5.4167 67.0001H59.5833C61.3774 66.9982 62.8314 65.5442 62.8333 63.7501V43.1668C64.0293 43.1654 64.9986 42.1962 65 41V38.8333C64.9986 37.6373 64.0293 36.668 62.8333 36.6668ZM14.0834 9.5834C14.0848 8.38738 15.0539 7.41809 16.2501 7.4167H19.5001C19.7874 7.41683 20.063 7.30269 20.2663 7.09944C20.4694 6.89632 20.5835 6.6207 20.5835 6.33328C20.5835 5.13662 21.5536 4.16658 22.7502 4.16658C23.9469 4.16658 24.9169 5.13662 24.9169 6.33328C24.9168 6.62058 25.0309 6.89619 25.2342 7.09944C25.4373 7.30257 25.7129 7.4167 26.0003 7.4167H29.2503C30.4463 7.41809 31.4156 8.38725 31.417 9.5834V12.8334H14.0834V9.5834ZM5.4167 64.8333C3.6226 64.8314 2.16861 63.3774 2.1667 61.5833V13.9168C2.16861 12.1227 3.6226 10.6687 5.4167 10.6668H11.9167V12.8335C11.9181 14.0295 12.8872 14.9988 14.0834 15.0002H31.4166C32.6127 14.9988 33.582 14.0295 33.5834 12.8335V10.6668H40.0833C41.8774 10.6687 43.3314 12.1227 43.3333 13.9168V36.6668H30.3334C29.1373 36.6682 28.1681 37.6374 28.1667 38.8335V41.0002C28.1681 42.1962 29.1372 43.1655 30.3334 43.1669V44.2502H6.49999C5.30396 44.2516 4.33468 45.2208 4.33328 46.4169V49.6669C4.33468 50.8629 5.30384 51.8322 6.49999 51.8336H30.3332V60.5003H6.49999C5.90166 60.5003 5.4167 60.9852 5.4167 61.5836C5.4167 62.1819 5.90166 62.6668 6.49999 62.6668H30.3332V63.7501C30.3369 64.1201 30.4045 64.4866 30.5329 64.8334H5.4167V64.8333ZM30.3334 46.4167V49.6667H6.49999V46.4167H30.3334ZM60.6666 63.75C60.666 64.3481 60.1814 64.8328 59.5833 64.8333H33.5834C32.9853 64.8327 32.5006 64.3481 32.5001 63.75V43.1668H60.6667V63.75H60.6666ZM61.7499 41H30.3334V38.8333H62.8333L62.8344 41H61.7499Z" fill="#67A755"/>
<path d="M35.7499 54.0001H43.3332C43.6205 54.0002 43.8961 53.8861 44.0994 53.6828C44.3025 53.4797 44.4166 53.2041 44.4166 52.9166V46.4167C44.4167 46.1294 44.3026 45.8538 44.0994 45.6505C43.8962 45.4474 43.6206 45.3333 43.3332 45.3333H35.7499C35.4626 45.3331 35.187 45.4473 34.9838 45.6505C34.7806 45.8536 34.6665 46.1292 34.6665 46.4167V52.9166C34.6664 53.2039 34.7805 53.4796 34.9838 53.6828C35.187 53.8861 35.4626 54.0001 35.7499 54.0001ZM36.8333 47.5001H42.2499V51.8334H36.8332V47.5001H36.8333Z" fill="#67A755"/>
<path d="M48.7498 48.5834H57.4165C58.0148 48.5834 58.4998 48.0985 58.4998 47.5002C58.4998 46.9018 58.0147 46.4169 57.4165 46.4169H48.7498C48.1515 46.4169 47.6665 46.9018 47.6665 47.5002C47.6665 48.0985 48.1516 48.5834 48.7498 48.5834Z" fill="#67A755"/>
<path d="M48.7498 52.9168H57.4165C58.0148 52.9168 58.4998 52.4317 58.4998 51.8335C58.4998 51.2352 58.0147 50.7502 57.4165 50.7502H48.7498C48.1515 50.7502 47.6665 51.2353 47.6665 51.8335C47.6665 52.4317 48.1516 52.9168 48.7498 52.9168Z" fill="#67A755"/>
<path d="M45.5 59.4166C45.7873 59.4166 46.063 59.3025 46.266 59.0992L46.5833 58.7818V61.5833C46.5833 62.1816 47.0683 62.6666 47.6666 62.6666C48.265 62.6666 48.7499 62.1816 48.7499 61.5833V58.7818L49.0673 59.0992C49.4915 59.5156 50.1719 59.5126 50.5923 59.0922C51.0126 58.6719 51.0157 57.9914 50.5991 57.5673L48.4325 55.4007C48.4228 55.3909 48.4096 55.3881 48.3995 55.3787C48.3071 55.2892 48.1993 55.217 48.0813 55.1658L48.0775 55.1649C48.0678 55.161 48.0576 55.1613 48.048 55.1576C47.9392 55.1173 47.8246 55.0951 47.7085 55.0914C47.6706 55.0913 47.6326 55.0932 47.5949 55.0972C47.5049 55.103 47.4159 55.1204 47.3302 55.1487C47.2934 55.1595 47.2572 55.1724 47.2218 55.1873C47.1027 55.2383 46.9938 55.3106 46.9006 55.4006L44.7339 57.5673C44.5306 57.7704 44.4165 58.0459 44.4165 58.3332C44.4165 58.6205 44.5306 58.8959 44.7339 59.0991C44.9371 59.3025 45.2128 59.4166 45.5 59.4166Z" fill="#67A755"/>
<path d="M56.016 55.4007C56.0063 55.3909 55.9931 55.3881 55.983 55.3787C55.8906 55.2892 55.7828 55.217 55.6648 55.1658L55.661 55.1649C55.6513 55.161 55.6412 55.1613 55.6315 55.1576C55.5227 55.1173 55.4081 55.0951 55.292 55.0914C55.2541 55.0913 55.2161 55.0932 55.1783 55.0972C55.0885 55.1031 55 55.1204 54.9146 55.1484C54.8773 55.1594 54.8406 55.1724 54.8047 55.1875C54.6858 55.2387 54.5772 55.3108 54.484 55.4006L52.3174 57.5674C51.8974 57.9909 51.899 58.6743 52.3207 59.096C52.7424 59.5178 53.4257 59.5192 53.8493 59.0993L54.1667 58.7819V61.5834C54.1667 62.1817 54.6517 62.6667 55.25 62.6667C55.8483 62.6667 56.3333 62.1817 56.3333 61.5834V58.7819L56.6507 59.0993C57.0745 59.5178 57.7566 59.5156 58.1778 59.0945C58.5989 58.6734 58.6011 57.9913 58.1826 57.5674L56.016 55.4007Z" fill="#67A755"/>
<path d="M6.50024 58.3333C6.50024 58.6206 6.61437 58.8961 6.81763 59.0992C7.02075 59.3024 7.29624 59.4166 7.58353 59.4166C7.87083 59.4166 8.14632 59.3024 8.34944 59.0992L9.20853 58.2401L10.0676 59.0992C10.3402 59.378 10.7416 59.4887 11.1185 59.3891C11.4955 59.2896 11.7899 58.9952 11.8894 58.6183C11.9889 58.2414 11.8781 57.8399 11.5994 57.5674L10.7403 56.7083L11.5994 55.8492C12.016 55.425 12.0128 54.7446 11.5926 54.3242C11.1724 53.9039 10.4918 53.9008 10.0676 54.3174L9.20853 55.1765L8.34944 54.3174C7.92529 53.9008 7.24482 53.904 6.82448 54.3242C6.40414 54.7446 6.40109 55.425 6.81763 55.8492L7.67672 56.7083L6.81763 57.5674C6.61437 57.7705 6.50024 58.046 6.50024 58.3333Z" fill="#67A755"/>
<path d="M16.5674 21.8176L10.8334 27.5515L9.43256 26.1508C9.00841 25.7343 8.32794 25.7375 7.9076 26.1577C7.48726 26.5779 7.48421 27.2585 7.90074 27.6827L10.0674 29.8494C10.2706 30.0526 10.5461 30.1667 10.8334 30.1667C11.1207 30.1667 11.3961 30.0526 11.5993 29.8494L18.0993 23.3494C18.5177 22.9256 18.5155 22.2435 18.0944 21.8223C17.6733 21.4013 16.9912 21.3991 16.5674 21.8176Z" fill="#67A755"/>
</svg>
