<svg width="70" height="70" viewBox="0 0 70 70" fill="none" xmlns="http://www.w3.org/2000/svg">
<path d="M56.8383 8H13.2755C11.9632 7.99996 10.6979 8.48909 9.72685 9.37187C8.75577 10.2546 8.14859 11.4677 8.02388 12.7741C7.89918 14.0805 8.2659 15.3865 9.05243 16.4371C9.83896 17.4876 10.9888 18.2073 12.2775 18.4555V58.1402C12.2774 58.2713 12.3032 58.4011 12.3533 58.5222C12.4034 58.6433 12.477 58.7534 12.5697 58.8461C12.6623 58.9388 12.7724 59.0123 12.8935 59.0624C13.0146 59.1125 13.1445 59.1383 13.2755 59.1382H16.7237V61.4668C16.7237 61.7315 16.8288 61.9854 17.016 62.1725C17.2031 62.3597 17.457 62.4648 17.7217 62.4648C17.9864 62.4648 18.2403 62.3597 18.4274 62.1725C18.6146 61.9854 18.7198 61.7315 18.7198 61.4668V59.1382H23.215V61.4668C23.215 61.7315 23.3201 61.9854 23.5073 62.1725C23.6944 62.3597 23.9483 62.4648 24.213 62.4648C24.4777 62.4648 24.7316 62.3597 24.9187 62.1725C25.1059 61.9854 25.211 61.7315 25.211 61.4668V59.1382H29.7068V61.4668C29.7068 61.7315 29.812 61.9854 29.9991 62.1725C30.1863 62.3597 30.4402 62.4648 30.7049 62.4648C30.9696 62.4648 31.2234 62.3597 31.4106 62.1725C31.5978 61.9854 31.7029 61.7315 31.7029 61.4668V59.1382H36.1975V61.4668C36.1975 61.7315 36.3027 61.9854 36.4899 62.1725C36.677 62.3597 36.9309 62.4648 37.1956 62.4648C37.4603 62.4648 37.7141 62.3597 37.9013 62.1725C38.0885 61.9854 38.1936 61.7315 38.1936 61.4668V59.1382H42.6888V61.4668C42.6888 61.7315 42.794 61.9854 42.9812 62.1725C43.1683 62.3597 43.4222 62.4648 43.6869 62.4648C43.9516 62.4648 44.2054 62.3597 44.3926 62.1725C44.5798 61.9854 44.6849 61.7315 44.6849 61.4668V59.1382H49.1807V61.4668C49.1807 61.7315 49.2859 61.9854 49.473 62.1725C49.6602 62.3597 49.9141 62.4648 50.1788 62.4648C50.4435 62.4648 50.6973 62.3597 50.8845 62.1725C51.0717 61.9854 51.1768 61.7315 51.1768 61.4668V59.1382H55.672V61.4668C55.672 61.7315 55.7772 61.9854 55.9643 62.1725C56.1515 62.3597 56.4054 62.4648 56.6701 62.4648C56.9348 62.4648 57.1886 62.3597 57.3758 62.1725C57.563 61.9854 57.6681 61.7315 57.6681 61.4668V59.1382H61.1162C61.2473 59.1383 61.3771 59.1125 61.4982 59.0624C61.6194 59.0123 61.7294 58.9388 61.8221 58.8461C61.9148 58.7534 61.9883 58.6433 62.0384 58.5222C62.0886 58.4011 62.1143 58.2713 62.1143 58.1402V13.2754C62.1124 11.8767 61.556 10.5359 60.5669 9.54692C59.5779 8.55797 58.237 8.00166 56.8383 8V8ZM60.1187 13.2765C60.1187 13.9253 59.9263 14.5596 59.5659 15.099C59.2054 15.6385 58.6931 16.059 58.0937 16.3073C57.4942 16.5555 56.8347 16.6205 56.1983 16.4939C55.562 16.3674 54.9775 16.0549 54.5187 15.5962C54.0599 15.1374 53.7475 14.5529 53.6209 13.9165C53.4943 13.2802 53.5593 12.6206 53.8076 12.0212C54.0559 11.4217 54.4763 10.9094 55.0158 10.5489C55.5553 10.1885 56.1895 9.99609 56.8383 9.99609C57.7078 9.997 58.5415 10.3427 59.1565 10.9575C59.7715 11.5723 60.1175 12.4058 60.1187 13.2754V13.2765ZM9.99511 13.2765C9.99617 12.4068 10.3421 11.5731 10.9571 10.9581C11.5721 10.3431 12.4058 9.99715 13.2755 9.99609H52.7132C51.9682 10.9267 51.5622 12.0833 51.5622 13.2754C51.5622 14.4675 51.9682 15.6241 52.7132 16.5547H13.2755C12.406 16.5536 11.5724 16.2078 10.9575 15.5931C10.3426 14.9784 9.99647 14.1449 9.99511 13.2754V13.2765ZM14.2725 57.1421V18.5531H56.8372C58.0297 18.5534 59.1867 18.1474 60.1176 17.4022V57.1421H14.2725Z" fill="#67A755"/>
<path d="M21.5895 22.1724C21.5061 22.0079 21.3788 21.8697 21.2216 21.7731C21.0645 21.6766 20.8836 21.6255 20.6992 21.6255C20.5148 21.6255 20.334 21.6766 20.1768 21.7731C20.0197 21.8697 19.8923 22.0079 19.809 22.1724L18.2999 25.1494C18.2291 25.2892 18.1921 25.4438 18.1921 25.6005C18.1921 25.7573 18.2291 25.9118 18.2999 26.0516L19.809 29.0293C19.8925 29.1936 20.0199 29.3316 20.177 29.428C20.3341 29.5244 20.5149 29.5755 20.6992 29.5755C20.8836 29.5755 21.0643 29.5244 21.2214 29.428C21.3786 29.3316 21.506 29.1936 21.5895 29.0293L23.0979 26.0505C23.1688 25.9107 23.2057 25.7561 23.2057 25.5994C23.2057 25.4426 23.1688 25.2881 23.0979 25.1483L21.5895 22.1724ZM20.6992 26.3699L20.3091 25.6005L20.6992 24.8312L21.0887 25.6005L20.6992 26.3699Z" fill="#67A755"/>
<path d="M32.5874 22.1724C32.5041 22.0079 32.3767 21.8697 32.2196 21.7731C32.0624 21.6766 31.8816 21.6255 31.6972 21.6255C31.5127 21.6255 31.3319 21.6766 31.1748 21.7731C31.0176 21.8697 30.8903 22.0079 30.8069 22.1724L29.2967 25.1506C29.2259 25.2904 29.189 25.4449 29.189 25.6017C29.189 25.7584 29.2259 25.913 29.2967 26.0528L30.8058 29.0304C30.8893 29.1947 31.0167 29.3328 31.1738 29.4292C31.3309 29.5256 31.5117 29.5766 31.696 29.5766C31.8804 29.5766 32.0611 29.5256 32.2183 29.4292C32.3754 29.3328 32.5028 29.1947 32.5863 29.0304L34.0959 26.0505C34.1668 25.9107 34.2037 25.7561 34.2037 25.5994C34.2037 25.4426 34.1668 25.2881 34.0959 25.1483L32.5874 22.1724ZM31.6972 26.3699L31.3071 25.6005L31.6972 24.8312L32.0867 25.6005L31.6972 26.3699Z" fill="#67A755"/>
<path d="M43.5855 22.1724C43.5021 22.0079 43.3748 21.8697 43.2176 21.7731C43.0605 21.6766 42.8797 21.6255 42.6952 21.6255C42.5108 21.6255 42.33 21.6766 42.1728 21.7731C42.0157 21.8697 41.8883 22.0079 41.805 22.1724L40.2965 25.1494C40.2256 25.2892 40.1887 25.4438 40.1887 25.6005C40.1887 25.7573 40.2256 25.9118 40.2965 26.0516L41.805 29.0293C41.8885 29.1936 42.0159 29.3316 42.173 29.428C42.3301 29.5244 42.5109 29.5755 42.6952 29.5755C42.8796 29.5755 43.0603 29.5244 43.2175 29.428C43.3746 29.3316 43.502 29.1936 43.5855 29.0293L45.0945 26.0505C45.1654 25.9107 45.2023 25.7561 45.2023 25.5994C45.2023 25.4426 45.1654 25.2881 45.0945 25.1483L43.5855 22.1724ZM42.6952 26.3699L42.3051 25.6005L42.6952 24.8312L43.0853 25.6005L42.6952 26.3699Z" fill="#67A755"/>
<path d="M54.5833 22.1724C54.4999 22.0079 54.3726 21.8697 54.2154 21.7731C54.0583 21.6766 53.8775 21.6255 53.693 21.6255C53.5086 21.6255 53.3278 21.6766 53.1706 21.7731C53.0135 21.8697 52.8861 22.0079 52.8028 22.1724L51.2943 25.1494C51.2234 25.2892 51.1865 25.4438 51.1865 25.6005C51.1865 25.7573 51.2234 25.9118 51.2943 26.0516L52.8028 29.0293C52.8863 29.1936 53.0137 29.3316 53.1708 29.428C53.3279 29.5244 53.5087 29.5755 53.693 29.5755C53.8774 29.5755 54.0581 29.5244 54.2153 29.428C54.3724 29.3316 54.4998 29.1936 54.5833 29.0293L56.0923 26.0516C56.1632 25.9118 56.2001 25.7573 56.2001 25.6005C56.2001 25.4438 56.1632 25.2892 56.0923 25.1494L54.5833 22.1724ZM53.693 26.3699L53.3035 25.6005L53.693 24.8312L54.0831 25.6005L53.693 26.3699Z" fill="#67A755"/>
<path d="M21.5895 34.687C21.5061 34.5225 21.3788 34.3843 21.2216 34.2878C21.0645 34.1912 20.8836 34.1401 20.6992 34.1401C20.5148 34.1401 20.334 34.1912 20.1768 34.2878C20.0197 34.3843 19.8923 34.5225 19.809 34.687L18.2999 37.6641C18.2291 37.8039 18.1921 37.9584 18.1921 38.1152C18.1921 38.2719 18.2291 38.4265 18.2999 38.5663L19.809 41.5433C19.8923 41.7078 20.0197 41.846 20.1768 41.9426C20.334 42.0391 20.5148 42.0902 20.6992 42.0902C20.8836 42.0902 21.0645 42.0391 21.2216 41.9426C21.3788 41.846 21.5061 41.7078 21.5895 41.5433L23.0979 38.5663C23.1688 38.4265 23.2057 38.2719 23.2057 38.1152C23.2057 37.9584 23.1688 37.8039 23.0979 37.6641L21.5895 34.687ZM20.6992 38.8823L20.3091 38.1129L20.6992 37.3436L21.0887 38.1129L20.6992 38.8823Z" fill="#67A755"/>
<path d="M32.5874 34.687C32.5041 34.5225 32.3767 34.3843 32.2196 34.2878C32.0624 34.1912 31.8816 34.1401 31.6972 34.1401C31.5127 34.1401 31.3319 34.1912 31.1748 34.2878C31.0176 34.3843 30.8903 34.5225 30.8069 34.687L29.2967 37.6641C29.2259 37.8039 29.189 37.9584 29.189 38.1152C29.189 38.2719 29.2259 38.4265 29.2967 38.5663L30.8058 41.5433C30.8892 41.7078 31.0165 41.846 31.1736 41.9426C31.3308 42.0391 31.5116 42.0902 31.696 42.0902C31.8805 42.0902 32.0613 42.0391 32.2185 41.9426C32.3756 41.846 32.5029 41.7078 32.5863 41.5433L34.0948 38.5663C34.1656 38.4265 34.2025 38.2719 34.2025 38.1152C34.2025 37.9584 34.1656 37.8039 34.0948 37.6641L32.5874 34.687ZM31.6972 38.8823L31.3071 38.1129L31.6972 37.3436L32.0867 38.1129L31.6972 38.8823Z" fill="#67A755"/>
<path d="M43.5855 34.687C43.5021 34.5225 43.3748 34.3843 43.2176 34.2878C43.0605 34.1912 42.8797 34.1401 42.6952 34.1401C42.5108 34.1401 42.33 34.1912 42.1728 34.2878C42.0157 34.3843 41.8883 34.5225 41.805 34.687L40.2965 37.6641C40.2256 37.8039 40.1887 37.9584 40.1887 38.1152C40.1887 38.2719 40.2256 38.4265 40.2965 38.5663L41.805 41.5433C41.8883 41.7078 42.0157 41.846 42.1728 41.9426C42.33 42.0391 42.5108 42.0902 42.6952 42.0902C42.8797 42.0902 43.0605 42.0391 43.2176 41.9426C43.3748 41.846 43.5021 41.7078 43.5855 41.5433L45.0945 38.5663C45.1654 38.4265 45.2023 38.2719 45.2023 38.1152C45.2023 37.9584 45.1654 37.8039 45.0945 37.6641L43.5855 34.687ZM42.6952 38.8823L42.3051 38.1129L42.6952 37.3436L43.0853 38.1129L42.6952 38.8823Z" fill="#67A755"/>
<path d="M54.5833 34.687C54.4999 34.5225 54.3726 34.3843 54.2154 34.2878C54.0583 34.1912 53.8775 34.1401 53.693 34.1401C53.5086 34.1401 53.3278 34.1912 53.1706 34.2878C53.0135 34.3843 52.8861 34.5225 52.8028 34.687L51.2943 37.6641C51.2234 37.8039 51.1865 37.9584 51.1865 38.1152C51.1865 38.2719 51.2234 38.4265 51.2943 38.5663L52.8028 41.5433C52.8861 41.7078 53.0135 41.846 53.1706 41.9426C53.3278 42.0391 53.5086 42.0902 53.693 42.0902C53.8775 42.0902 54.0583 42.0391 54.2154 41.9426C54.3726 41.846 54.4999 41.7078 54.5833 41.5433L56.0923 38.5663C56.1632 38.4265 56.2001 38.2719 56.2001 38.1152C56.2001 37.9584 56.1632 37.8039 56.0923 37.6641L54.5833 34.687ZM53.693 38.8823L53.3035 38.1129L53.693 37.3436L54.0831 38.1129L53.693 38.8823Z" fill="#67A755"/>
<path d="M21.5895 47.2012C21.5061 47.0367 21.3788 46.8985 21.2216 46.8019C21.0645 46.7054 20.8836 46.6543 20.6992 46.6543C20.5148 46.6543 20.334 46.7054 20.1768 46.8019C20.0197 46.8985 19.8923 47.0367 19.809 47.2012L18.2999 50.1782C18.2291 50.318 18.1921 50.4726 18.1921 50.6293C18.1921 50.7861 18.2291 50.9406 18.2999 51.0805L19.809 54.0575C19.8923 54.222 20.0197 54.3602 20.1768 54.4567C20.334 54.5533 20.5148 54.6044 20.6992 54.6044C20.8836 54.6044 21.0645 54.5533 21.2216 54.4567C21.3788 54.3602 21.5061 54.222 21.5895 54.0575L23.0979 51.0805C23.1688 50.9406 23.2057 50.7861 23.2057 50.6293C23.2057 50.4726 23.1688 50.318 23.0979 50.1782L21.5895 47.2012ZM20.6992 51.3987L20.3091 50.6311L20.6992 49.8611L21.0887 50.6311L20.6992 51.3987Z" fill="#67A755"/>
<path d="M32.5874 47.2012C32.5041 47.0367 32.3767 46.8985 32.2196 46.8019C32.0624 46.7054 31.8816 46.6543 31.6972 46.6543C31.5127 46.6543 31.3319 46.7054 31.1748 46.8019C31.0176 46.8985 30.8903 47.0367 30.8069 47.2012L29.2967 50.1782C29.2259 50.318 29.189 50.4726 29.189 50.6293C29.189 50.7861 29.2259 50.9406 29.2967 51.0805L30.8058 54.0575C30.8892 54.222 31.0165 54.3602 31.1736 54.4567C31.3308 54.5533 31.5116 54.6044 31.696 54.6044C31.8805 54.6044 32.0613 54.5533 32.2185 54.4567C32.3756 54.3602 32.5029 54.222 32.5863 54.0575L34.0948 51.0805C34.1656 50.9406 34.2025 50.7861 34.2025 50.6293C34.2025 50.4726 34.1656 50.318 34.0948 50.1782L32.5874 47.2012ZM31.6972 51.3987L31.3071 50.6311L31.6972 49.8617L32.0867 50.6311L31.6972 51.3987Z" fill="#67A755"/>
<path d="M43.5855 47.2012C43.5021 47.0367 43.3748 46.8985 43.2176 46.8019C43.0605 46.7054 42.8797 46.6543 42.6952 46.6543C42.5108 46.6543 42.33 46.7054 42.1728 46.8019C42.0157 46.8985 41.8883 47.0367 41.805 47.2012L40.2965 50.1782C40.2256 50.318 40.1887 50.4726 40.1887 50.6293C40.1887 50.7861 40.2256 50.9406 40.2965 51.0805L41.805 54.0575C41.8883 54.222 42.0157 54.3602 42.1728 54.4567C42.33 54.5533 42.5108 54.6044 42.6952 54.6044C42.8797 54.6044 43.0605 54.5533 43.2176 54.4567C43.3748 54.3602 43.5021 54.222 43.5855 54.0575L45.0945 51.0805C45.1654 50.9406 45.2023 50.7861 45.2023 50.6293C45.2023 50.4726 45.1654 50.318 45.0945 50.1782L43.5855 47.2012ZM42.6952 51.3987L42.3051 50.6311L42.6952 49.8611L43.0853 50.6311L42.6952 51.3987Z" fill="#67A755"/>
<path d="M54.5833 47.2012C54.4999 47.0367 54.3726 46.8985 54.2154 46.8019C54.0583 46.7054 53.8775 46.6543 53.693 46.6543C53.5086 46.6543 53.3278 46.7054 53.1706 46.8019C53.0135 46.8985 52.8861 47.0367 52.8028 47.2012L51.2943 50.1782C51.2234 50.318 51.1865 50.4726 51.1865 50.6293C51.1865 50.7861 51.2234 50.9406 51.2943 51.0805L52.8028 54.0575C52.8861 54.222 53.0135 54.3602 53.1706 54.4567C53.3278 54.5533 53.5086 54.6044 53.693 54.6044C53.8775 54.6044 54.0583 54.5533 54.2154 54.4567C54.3726 54.3602 54.4999 54.222 54.5833 54.0575L56.0923 51.0805C56.1632 50.9406 56.2001 50.7861 56.2001 50.6293C56.2001 50.4726 56.1632 50.318 56.0923 50.1782L54.5833 47.2012ZM53.693 51.3987L53.3035 50.6311L53.693 49.8611L54.0831 50.6311L53.693 51.3987Z" fill="#67A755"/>
</svg>
