<svg width="70" height="70" viewBox="0 0 70 70" fill="none" xmlns="http://www.w3.org/2000/svg">
<g clip-path="url(#clip0)">
<path d="M10.0744 53.7059C10.4232 54.4899 11.0539 55.0901 11.8512 55.3962C12.2229 55.5393 12.6101 55.6103 12.9973 55.6103C13.4411 55.6103 13.8844 55.5169 14.3031 55.3305C15.0871 54.9823 15.6874 54.351 15.9939 53.5542L16.8618 51.2957C19.0893 53.8896 21.8349 55.9975 24.8929 57.4416C25.0345 57.5084 25.1835 57.5399 25.3303 57.5399C25.7148 57.5399 26.0828 57.323 26.258 56.9524C26.4999 56.4402 26.2809 55.8287 25.7688 55.5873C22.6376 54.1085 19.8621 51.8687 17.7088 49.0927L24.2505 32.0706C24.3482 31.817 24.3407 31.5345 24.2302 31.2861C24.1196 31.0378 23.9151 30.8434 23.6614 30.7457L22.4373 30.2757L24.737 24.2921C25.1963 24.3936 25.6646 24.4454 26.1389 24.4454C27.5995 24.4454 29.1125 23.9653 30.5566 23.0237C32.6822 21.6378 34.4205 19.3964 35.4523 16.7117C35.9992 15.289 36.3132 13.8256 36.3923 12.3986C38.984 12.5663 41.4941 13.1922 43.8664 14.2657C44.0036 14.3282 44.1473 14.3576 44.2883 14.3576C44.6787 14.3576 45.052 14.1333 45.2234 13.7546C45.4568 13.2387 45.2277 12.6309 44.7118 12.3976C42.0559 11.1954 39.2431 10.5065 36.3383 10.3414C36.2774 9.79617 36.1808 9.26265 36.044 8.74621C35.3621 6.17419 33.8229 4.31086 31.7107 3.4991C29.598 2.68679 27.2075 3.04034 24.9784 4.49351C22.8528 5.87886 21.1145 8.1203 20.0827 10.805C19.3718 12.6544 19.0514 14.5717 19.1331 16.388C19.1075 16.4067 19.0824 16.427 19.0583 16.4489C13.8513 21.1401 10.8654 27.9018 10.8654 35C10.8654 38.2422 11.4694 41.3884 12.6587 44.3588L10.0087 51.254C9.70272 52.0508 9.72568 52.9219 10.0744 53.7059V53.7059ZM21.9967 11.5404C22.8747 9.2557 24.3316 7.363 26.0983 6.21104C27.2001 5.49273 28.3323 5.12584 29.402 5.12584C29.9462 5.12584 30.4749 5.2209 30.9748 5.41316C32.4562 5.98246 33.5521 7.35286 34.0616 9.27173C34.6021 11.3102 34.4162 13.6911 33.5377 15.9763C31.7689 20.5777 27.7416 23.3265 24.5597 22.1035C23.0782 21.5342 21.9818 20.1638 21.4734 18.245C20.9324 16.2065 21.1187 13.8256 21.9967 11.5404ZM12.9161 35C12.9161 28.9117 15.3066 23.0958 19.5134 18.8484C20.0907 20.959 21.2501 22.5836 22.832 23.5311L20.5227 29.5397L19.5903 29.1814C19.0615 28.9785 18.4687 29.2423 18.2653 29.771L13.8037 41.3803C13.2147 39.3205 12.9161 37.1843 12.9161 35V35ZM11.9233 51.9899L19.8119 31.4634L21.9679 32.2923L15.5816 48.9095C15.5811 48.9116 15.58 48.9132 15.5795 48.9154L14.0793 52.8183C13.9693 53.1045 13.753 53.331 13.4694 53.457C13.1858 53.583 12.8724 53.5921 12.5866 53.4821C12.3009 53.3726 12.0745 53.1558 11.9484 52.8727C11.8224 52.5891 11.8133 52.2757 11.9233 51.9899V51.9899Z" fill="#67A755"/>
<path d="M62.1691 56.1813C66.7262 50.0535 69.1316 42.7454 69.1316 35C69.1316 25.6561 65.5823 16.8698 59.1367 10.2603C52.6848 3.64388 44.1041 0 34.976 0C27.8741 0 21.0654 2.2126 15.2858 6.39801C9.63867 10.4873 5.3801 16.1424 2.97043 22.7525C2.77657 23.2849 3.05054 23.8729 3.58246 24.0673C4.11491 24.2612 4.70291 23.9872 4.89677 23.4547C7.16599 17.2308 11.1741 11.9073 16.4885 8.05893C21.9161 4.12827 28.3088 2.05078 34.976 2.05078C43.5465 2.05078 51.606 5.47462 57.6686 11.6921C63.7382 17.9166 67.0808 26.1939 67.0808 35C67.0808 41.9796 65.0092 48.58 61.0759 54.1903L56.5337 45.9177C56.6219 45.8323 56.6977 45.7319 56.7527 45.6144C58.3015 42.2856 59.0865 38.7144 59.0865 35C59.0865 26.7531 55.0907 19.0813 48.3979 14.4788C47.9317 14.1579 47.2929 14.2764 46.972 14.7427C46.651 15.2094 46.7696 15.8476 47.2358 16.1686C53.3721 20.3887 57.0358 27.4281 57.0358 35C57.0358 38.0383 56.4632 40.9708 55.3348 43.7334L55.2055 43.4979C54.9332 43.0018 54.3099 42.8202 53.8132 43.0926L52.8007 43.6485L48.532 35.8732C48.4385 35.7028 48.3028 35.5709 48.1464 35.4801L48.2355 35.431C49.5023 34.7356 50.4236 33.5842 50.8295 32.1893C51.2359 30.7938 51.0767 29.3278 50.3814 28.0615L45.9995 20.08C45.2806 18.7716 43.6314 18.2915 42.3225 19.0098C41.6827 19.3612 41.241 19.9348 41.0402 20.5826C40.386 20.4042 39.665 20.4688 39.0252 20.8197C38.4148 21.1551 37.9848 21.6924 37.7723 22.3033C37.1432 22.1548 36.4585 22.2291 35.8486 22.5639C35.2163 22.9111 34.7565 23.4857 34.5535 24.1811C34.3511 24.8769 34.4307 25.6086 34.7778 26.2409L37.5747 31.3348C37.5918 31.3802 37.6121 31.4245 37.6356 31.4677L39.1507 34.2272C40.1371 36.0243 41.9994 37.0417 43.9177 37.0417C44.8 37.0417 45.694 36.8265 46.5207 36.3725L46.6099 36.3239C46.6019 36.505 46.6409 36.6898 46.7343 36.8601L51.003 44.6355L49.9905 45.1914C49.7523 45.3223 49.5755 45.5428 49.4997 45.804C49.4233 46.0651 49.4543 46.3455 49.5851 46.5837L51.4773 50.0294C47.2855 54.8776 41.3008 57.6483 34.976 57.6483C33.3615 57.6483 31.7508 57.4689 30.1897 57.1143C29.6375 56.9888 29.088 57.3348 28.9625 57.887C28.837 58.4393 29.183 58.9888 29.7353 59.1143C31.4453 59.5026 33.2088 59.6991 34.9754 59.6991C41.6485 59.6991 47.9733 56.8857 52.524 51.9376L56.5962 59.3546C50.6719 64.8987 43.0098 67.9492 34.976 67.9492C26.4054 67.9492 18.3465 64.5254 12.2839 58.3079C6.21376 52.0834 2.87109 43.8061 2.87109 35C2.87109 32.655 3.11249 30.3147 3.5878 28.0439C3.70369 27.4895 3.34854 26.9464 2.79419 26.83C2.24037 26.7141 1.6967 27.0692 1.58028 27.6236C1.07613 30.0322 0.820312 32.514 0.820312 35C0.820312 44.3439 4.36966 53.1302 10.8152 59.7397C17.2677 66.3561 25.8479 70 34.976 70C43.3601 70 51.3625 66.8843 57.6141 61.2073L60.662 66.7583C61.0727 67.507 61.7525 68.0512 62.5766 68.291C62.8751 68.3781 63.179 68.4213 63.4813 68.4213C64.0121 68.4213 64.5377 68.2878 65.0146 68.0256C65.7633 67.6149 66.3075 66.935 66.5473 66.111C66.7871 65.2875 66.6931 64.4212 66.2819 63.673L62.1691 56.1813ZM45.5338 34.5749C43.9017 35.471 41.8445 34.8724 40.9483 33.2403L39.5037 30.6084C39.4866 30.563 39.4663 30.5187 39.4423 30.4755L36.5755 25.254C36.404 24.9416 36.5231 24.533 36.8356 24.3616C37.148 24.1901 37.556 24.3092 37.7274 24.6217L40.5948 29.8431C40.8672 30.3393 41.4904 30.5214 41.9871 30.2485L42.2141 30.1241C42.4522 29.9932 42.629 29.7726 42.7048 29.5115C42.7807 29.2503 42.7502 28.97 42.6194 28.7318L39.7526 23.5098C39.5811 23.1979 39.7002 22.7893 40.0121 22.6179C40.324 22.4464 40.7331 22.565 40.9045 22.8774L43.7714 28.0989C44.0437 28.5956 44.667 28.7772 45.1637 28.5043L45.5113 28.3136C45.7495 28.1828 45.9263 27.9627 46.0021 27.7016C46.078 27.4404 46.0475 27.1595 45.9167 26.9213L43.0499 21.6998C42.8784 21.3874 42.997 20.9789 43.3094 20.8074C43.4616 20.7236 43.6389 20.7049 43.8087 20.7545C43.9786 20.8037 44.118 20.9148 44.2018 21.067L48.5832 29.0485C49.0153 29.8346 49.1135 30.7468 48.8604 31.6157C48.6073 32.4851 48.0347 33.2018 47.2486 33.6333L45.5338 34.5749ZM64.0276 66.2285C63.4695 66.5345 62.7662 66.33 62.4596 65.7719L51.8768 46.4956L53.9019 45.3842L60.0542 56.5903C60.0553 56.593 60.0569 56.5962 60.0585 56.5989L64.4843 64.66C64.7908 65.218 64.5863 65.9219 64.0276 66.2285V66.2285Z" fill="#67A755"/>
</g>
<defs>
<clipPath id="clip0">
<rect width="70" height="70" fill="white"/>
</clipPath>
</defs>
</svg>
