<svg width="32" height="10" viewBox="0 0 32 10" fill="none" xmlns="http://www.w3.org/2000/svg">
<path d="M23.26 0.49718C22.5167 0.226573 21.731 0.090668 20.94 0.0958457C18.38 0.0958457 16.5733 1.38651 16.56 3.23584C16.544 4.59584 17.8453 5.36118 18.828 5.81718C19.8373 6.28384 20.1747 6.57718 20.172 6.99718C20.1653 7.63318 19.3653 7.92118 18.6227 7.92118C17.6013 7.92118 17.0413 7.77851 16.1813 7.42118L15.8627 7.27318L15.5013 9.40384C16.1227 9.66384 17.2427 9.88651 18.4013 9.90384C21.1227 9.90384 22.9013 8.62251 22.9227 6.65184C22.944 5.56784 22.2427 4.74518 20.7613 4.06784C19.8627 3.62784 19.3027 3.33318 19.3027 2.88651C19.3027 2.49184 19.7813 2.07051 20.7813 2.07051C21.4464 2.05456 22.1073 2.17858 22.7213 2.43451L22.9613 2.54251L23.3227 0.483846L23.26 0.49718ZM29.904 0.270513H27.904C27.2813 0.270513 26.816 0.439846 26.5427 1.05851L22.696 9.77051H25.4173L25.9613 8.34384L29.2813 8.34651C29.3627 8.67984 29.6013 9.77051 29.6013 9.77051H32L29.904 0.270513ZM12.88 0.190512H15.4707L13.8507 9.69584H11.2587L12.88 0.187846V0.190512ZM6.29467 5.42918L6.564 6.74918L9.09867 0.270513H11.844L7.76267 9.75717H5.024L2.784 1.72251C2.74787 1.59011 2.66185 1.47685 2.544 1.40651C1.73836 0.988028 0.883805 0.671374 0 0.463846L0.0333333 0.263846H4.208C4.77333 0.285179 5.22933 0.463846 5.38533 1.06918L6.29467 5.43318V5.42918ZM26.7053 6.39851L27.7387 3.73984C27.7253 3.76651 27.952 3.19051 28.0827 2.83318L28.26 3.65318L28.8587 6.39584H26.7053V6.39851Z" fill="white"/>
</svg>
