<?xml version="1.0" standalone="no"?>
<!DOCTYPE svg PUBLIC "-//W3C//DTD SVG 20010904//EN"
 "http://www.w3.org/TR/2001/REC-SVG-20010904/DTD/svg10.dtd">
<svg version="1.0" xmlns="http://www.w3.org/2000/svg"
 width="700.000000pt" height="700.000000pt" viewBox="0 0 700.000000 700.000000"
 preserveAspectRatio="xMidYMid meet">
<metadata>
Created by potrace 1.14, written by Peter Selinger 2001-2017
</metadata>
<g transform="translate(0.000000,700.000000) scale(0.100000,-0.100000)"
fill="#000000" stroke="none">
<path d="M956 6989 c-232 -34 -457 -148 -627 -318 -144 -143 -240 -312 -297
-519 l-27 -97 -3 -2095 c-2 -1493 0 -2131 8 -2220 41 -460 226 -857 549 -1181
315 -315 717 -504 1170 -549 141 -14 3401 -14 3542 0 397 40 752 187 1050 437
383 321 618 772 669 1282 14 141 14 3401 0 3542 -92 923 -800 1632 -1718 1719
-133 12 -4229 12 -4316 -1z m1684 -1799 c328 -47 598 -181 737 -365 60 -79
116 -200 140 -300 26 -115 24 -340 -5 -448 -70 -256 -265 -457 -539 -552 -62
-22 -65 -24 -37 -30 248 -51 407 -124 541 -249 122 -113 185 -221 226 -385 31
-125 30 -359 -1 -486 -95 -379 -399 -595 -937 -666 -118 -15 -1823 -25 -1837
-11 -7 7 -8 604 -3 1762 l8 1751 811 -4 c570 -3 836 -8 896 -17z m3708 -202
l2 -218 -990 0 -990 0 0 -610 0 -610 880 0 880 0 0 -220 0 -220 -880 0 -880 0
0 -710 0 -710 -250 0 -250 0 0 1760 0 1760 1238 -2 1237 -3 3 -217z"/>
<path d="M1100 4301 l0 -751 669 0 c383 0 713 4 772 10 297 30 498 108 639
250 124 124 178 253 187 450 11 229 -47 394 -185 529 -43 42 -104 91 -136 110
-75 44 -214 96 -329 123 -89 21 -118 22 -854 25 l-763 4 0 -750z"/>
<path d="M1100 2625 l0 -776 828 4 c726 3 837 6 912 21 150 29 233 56 337 106
227 110 343 279 374 545 21 178 -21 390 -101 514 -93 143 -246 244 -453 301
-196 54 -173 53 -1064 57 l-833 4 0 -776z"/>
</g>
</svg>
