<svg width="18" height="18" viewBox="0 0 18 18" fill="none" xmlns="http://www.w3.org/2000/svg">
<g clip-path="url(#clip0_757_4758)">
<path d="M8.38293 11.6617C8.41243 11.9469 8.65312 12.1591 8.93373 12.1591C8.9528 12.1591 8.97202 12.1581 8.99139 12.1561C9.29595 12.1246 9.51734 11.8522 9.48585 11.5476L9.23023 9.07358C9.19874 8.76895 8.92641 8.54785 8.62178 8.57912C8.31722 8.61061 8.09582 8.88301 8.12724 9.18757L8.38293 11.6617Z" fill="white"/>
<path d="M11.8525 12.158C11.8719 12.16 11.8911 12.161 11.9101 12.161C12.1907 12.161 12.4314 11.9486 12.4609 11.6635L12.7166 9.18951C12.7481 8.88488 12.5267 8.61248 12.2221 8.58106C11.9175 8.54986 11.6451 8.77104 11.6136 9.07552L11.358 11.5495C11.3265 11.8542 11.5479 12.1266 11.8525 12.158Z" fill="white"/>
<path d="M7.55985 14.5684C6.61357 14.5684 5.84375 15.3382 5.84375 16.2845C5.84375 17.231 6.61357 18.001 7.55985 18.001C8.50613 18.001 9.27603 17.231 9.27603 16.2845C9.27595 15.3383 8.50613 14.5684 7.55985 14.5684ZM7.55985 16.8922C7.22498 16.8922 6.95258 16.6195 6.95258 16.2845C6.95258 15.9496 7.22498 15.6772 7.55985 15.6772C7.89472 15.6772 8.16719 15.9496 8.16719 16.2845C8.16712 16.6195 7.89472 16.8922 7.55985 16.8922Z" fill="white"/>
<path d="M13.2843 14.5684C12.338 14.5684 11.5681 15.3382 11.5681 16.2845C11.5681 17.231 12.338 18.001 13.2843 18.001C14.2306 18.001 15.0006 17.231 15.0006 16.2845C15.0006 15.3383 14.2306 14.5684 13.2843 14.5684ZM13.2843 16.8922C12.9494 16.8922 12.6769 16.6195 12.6769 16.2845C12.6769 15.9496 12.9494 15.6772 13.2843 15.6772C13.6192 15.6772 13.8918 15.9496 13.8918 16.2845C13.8918 16.6195 13.6192 16.8922 13.2843 16.8922Z" fill="white"/>
<path d="M16.6006 6.73114C16.4956 6.59535 16.3337 6.51581 16.162 6.51581H5.11108L4.64707 4.73126C4.58349 4.48694 4.36291 4.31641 4.11047 4.31641H1.83811C1.53192 4.31641 1.28369 4.56464 1.28369 4.87082C1.28369 5.17701 1.53192 5.42524 1.83811 5.42524H3.68179L4.14166 7.1936C4.14418 7.20469 4.14706 7.2157 4.15024 7.22657L5.86153 13.8072C5.9251 14.0516 6.14569 14.2221 6.39813 14.2221H14.4463C14.6988 14.2221 14.9193 14.0516 14.9829 13.8072L16.6987 7.20971C16.7417 7.04368 16.7056 6.86694 16.6006 6.73114ZM14.0176 13.1134H6.82673L5.39937 7.62471H15.4449L14.0176 13.1134Z" fill="white"/>
<path d="M10.0294 5.53129C10.1376 5.63951 10.2795 5.69369 10.4214 5.69369C10.5633 5.69369 10.7052 5.63958 10.8134 5.53129L12.6082 3.73646C12.8247 3.51994 12.8247 3.16889 12.6082 2.95244C12.3917 2.736 12.0406 2.736 11.8242 2.95244L10.9765 3.80018L10.9766 0.554489C10.9766 0.248304 10.7284 0 10.4223 0H10.4222C10.116 0 9.86778 0.24823 9.86778 0.554341L9.86763 3.80136L9.01989 2.95363C8.80337 2.73711 8.45232 2.73711 8.23587 2.95363C8.01936 3.17014 8.01936 3.5212 8.23587 3.73764L10.0294 5.53129Z" fill="white"/>
</g>
<defs>
<clipPath id="clip0_757_4758">
<rect width="18" height="18" fill="white"/>
</clipPath>
</defs>
</svg>
