<svg width="30" height="26" viewBox="0 0 30 26" fill="none" xmlns="http://www.w3.org/2000/svg">
<path d="M1.15385 10.0384L0 9.51546V7.28406L15 0.589844L30 7.28406V9.51546L28.8462 10.0384V19.3476C28.8462 19.7892 28.6869 20.1204 28.3684 20.3413C28.0499 20.5621 27.6322 20.6725 27.1154 20.6725C26.5986 20.6725 26.1809 20.5621 25.8624 20.3413C25.5439 20.1204 25.3846 19.7892 25.3846 19.3476V11.5725L16.7308 15.4426V23.8104C16.7308 24.252 16.5715 24.5833 16.253 24.8041C15.9345 25.0249 15.5168 25.1353 15 25.1353C14.4832 25.1353 14.0655 25.0249 13.747 24.8041C13.4285 24.5833 13.2692 24.252 13.2692 23.8104V15.4426L4.61538 11.5725V19.3476C4.61538 19.7892 4.45613 20.1204 4.13762 20.3413C3.81911 20.5621 3.40144 20.6725 2.88462 20.6725C2.36779 20.6725 1.95012 20.5621 1.63161 20.3413C1.3131 20.1204 1.15385 19.7892 1.15385 19.3476V10.0384Z" fill="#778E39"/>
</svg>
