<svg width="30" height="24" viewBox="0 0 30 24" fill="none" xmlns="http://www.w3.org/2000/svg">
<path d="M2.52672 9.20614L1.4873 8.72674V6.68129L14.9998 0.544922L28.5122 6.68129V8.72674L27.4728 9.20614V17.7395C27.4728 18.1444 27.3293 18.448 27.0424 18.6504C26.7555 18.8528 26.3793 18.954 25.9137 18.954C25.4481 18.954 25.0719 18.8528 24.7849 18.6504C24.498 18.448 24.3546 18.1444 24.3546 17.7395V10.6124L16.5589 14.16V21.8304C16.5589 22.2353 16.4154 22.5389 16.1285 22.7413C15.8416 22.9437 15.4653 23.0449 14.9998 23.0449C14.5342 23.0449 14.1579 22.9437 13.871 22.7413C13.5841 22.5389 13.4406 22.2353 13.4406 21.8304V14.16L5.64499 10.6124V17.7395C5.64499 18.1444 5.50152 18.448 5.2146 18.6504C4.92768 18.8528 4.55143 18.954 4.08586 18.954C3.62028 18.954 3.24403 18.8528 2.95711 18.6504C2.67019 18.448 2.52672 18.1444 2.52672 17.7395V9.20614Z" fill="#778E39"/>
<path d="M18.3472 18.3939C18.3472 19.1368 16.9041 19.739 15.124 19.739C13.3439 19.739 11.9009 19.1368 11.9009 18.3939C11.9009 17.6511 13.3439 17.0488 15.124 17.0488C16.9041 17.0488 18.3472 17.6511 18.3472 18.3939Z" fill="#778E39"/>
<path d="M13.5125 14.1133L11.9009 18.3932H18.2232L16.7356 14.1133H13.5125Z" fill="#778E39"/>
<path d="M6.44631 12.6459C6.44631 13.3888 5.00326 13.991 3.22316 13.991C1.44306 13.991 0 13.3888 0 12.6459C0 11.903 1.44306 11.3008 3.22316 11.3008C5.00326 11.3008 6.44631 11.903 6.44631 12.6459Z" fill="#778E39"/>
<path d="M1.61158 8.37109L0 12.651H6.32234L4.83473 8.37109H1.61158Z" fill="#778E39"/>
<path d="M30 12.6459C30 13.3888 28.557 13.991 26.7769 13.991C24.9968 13.991 23.5537 13.3888 23.5537 12.6459C23.5537 11.903 24.9968 11.3008 26.7769 11.3008C28.557 11.3008 30 11.903 30 12.6459Z" fill="#778E39"/>
<path d="M25.1653 8.37109L23.5537 12.651H29.8761L28.3884 8.37109H25.1653Z" fill="#778E39"/>
<path d="M11.9008 18.5167L3.59497 13.7477L5.95035 6.65532C8.80161 6.08466 14.6529 4.94336 15.2479 4.94336C15.843 4.94336 20.2066 5.59553 22.3141 5.92162L28.3885 13.7477L18.2231 18.5167H11.9008Z" fill="#778E39"/>
</svg>
