<svg width="30" height="25" viewBox="0 0 30 25" fill="none" xmlns="http://www.w3.org/2000/svg">
<path d="M15.3749 19.5979C19.6989 19.5979 23.2119 16.3417 23.3614 12.2736C23.2119 8.20541 19.6989 4.94922 15.3749 4.94922C11.0514 4.94922 7.53739 8.20541 7.38989 12.2736C7.53689 16.3417 11.0509 19.5979 15.3749 19.5979Z" fill="#778E39"/>
<path d="M15.3755 1.47266C9.3005 1.47266 4.375 6.3081 4.375 12.2726C4.375 18.2367 9.301 23.0726 15.3755 23.0726C21.45 23.0726 26.3755 18.2367 26.3755 12.2726C26.3755 6.3081 21.45 1.47266 15.3755 1.47266ZM15.375 20.1272C10.9565 20.1272 7.3745 16.7296 7.3745 12.5372C7.3745 12.4479 7.387 12.361 7.39 12.2726C7.387 12.1843 7.3745 12.0969 7.3745 12.008C7.3745 7.81568 10.957 4.4181 15.375 4.4181C19.7935 4.4181 23.375 7.81568 23.375 12.008C23.375 12.0969 23.3645 12.1843 23.362 12.2726C23.365 12.361 23.375 12.4479 23.375 12.5372C23.3745 16.7296 19.7935 20.1272 15.375 20.1272Z" fill="#778E39"/>
<path d="M0.740714 0.206718C0.860713 -0.255226 1.09821 0.201318 1.09821 0.201318C1.09821 0.201318 1.18121 4.98276 1.72121 5.0348C2.26121 5.08683 1.84521 0.114918 2.48421 0.0196821C3.07821 -0.0730995 2.73921 5.11383 3.28021 5.06131C3.81921 5.00534 3.91021 0.225863 3.91021 0.225863C3.91021 0.225863 4.15021 -0.23019 4.26871 0.228318C5.73271 5.87867 4.54821 8.18839 4.54821 8.18839C4.54821 8.18839 4.34821 8.6739 3.87321 8.67635C3.82871 8.6739 3.86221 22.0958 3.85921 23.9004C3.86021 24.7776 1.10921 24.7506 1.11071 23.8773C1.11271 22.0727 1.16621 8.6523 1.12321 8.65328C0.646714 8.65328 0.447214 8.16826 0.447214 8.16826C0.447214 8.16826 -0.732786 5.86001 0.740714 0.206718" fill="#778E39"/>
<path d="M26.81 9.35262e-07C27.429 -0.00147179 29.997 1.81636 30 8.57224C30.003 10.7327 28.8025 10.7322 28.8045 12.0837C28.8065 13.4327 28.814 24.163 28.814 24.163C28.814 24.163 27.497 25.0501 26.518 24.1217L26.5 0.191946C26.501 0.192437 26.4975 -0.000489973 26.81 9.35262e-07Z" fill="#778E39"/>
</svg>
