<svg width="30" height="31" viewBox="0 0 30 31" fill="none" xmlns="http://www.w3.org/2000/svg">
<path d="M15 0.589844C16.8892 0.589844 18.4979 1.25391 19.826 2.58203C21.1541 3.91016 21.8182 5.51882 21.8182 7.40803C21.8182 9.29723 21.1541 10.9059 19.826 12.234C18.4979 13.5621 16.8892 14.2262 15 14.2262C13.1108 14.2262 11.5021 13.5621 10.174 12.234C8.84588 10.9059 8.18182 9.29723 8.18182 7.40803C8.18182 5.51882 8.84588 3.91016 10.174 2.58203C11.5021 1.25391 13.1108 0.589844 15 0.589844ZM20.7955 7.45064C20.2415 7.56428 19.4496 7.51101 18.4197 7.29084C17.3899 7.07067 16.5199 6.81143 15.8097 6.51314C15.3267 6.30007 14.8651 6.05504 14.4247 5.77805C13.9844 5.50107 13.4801 5.15305 12.9119 4.73402C12.3438 4.31499 11.9034 4.00604 11.5909 3.80717C11.8182 5.49751 11.0227 6.7049 9.20455 7.42933C9.21875 9.03445 9.79048 10.3981 10.9197 11.5202C12.049 12.6424 13.4091 13.2035 15 13.2035C16.5909 13.2035 17.951 12.6424 19.0803 11.5202C20.2095 10.3981 20.7813 9.04155 20.7955 7.45064ZM17.7699 26.4776H12.358C12.2159 26.4776 12.0313 26.4492 11.804 26.3924C11.5767 26.3356 11.3068 26.1935 10.9943 25.9663C10.6818 25.739 10.4759 25.4549 10.3764 25.114C10.1491 24.3469 9.95739 23.1964 9.80114 21.6623C9.64489 20.1282 9.52415 18.761 9.43892 17.5607C9.35369 16.3604 9.26136 15.6964 9.16193 15.5685C9.0625 15.6112 8.83878 15.7248 8.49077 15.9094C8.14276 16.0941 7.78409 16.2575 7.41477 16.3995C6.98864 16.5558 6.40625 16.7688 5.66761 17.0387C4.92898 17.3086 4.34659 17.5252 3.92045 17.6886C3.49432 17.8519 3.02202 18.0472 2.50355 18.2745C1.98509 18.5018 1.56605 18.7326 1.24645 18.967C0.926847 19.2013 0.681818 19.4393 0.511364 19.6808C0.170455 20.5898 0 24.2262 0 30.5898H30C30 28.9989 29.9609 26.9251 29.8828 24.3683C29.8047 21.8114 29.6733 20.2489 29.4886 19.6808C29.3182 19.4393 29.0732 19.2013 28.7536 18.967C28.4339 18.7326 28.0149 18.5018 27.4964 18.2745C26.978 18.0472 26.5057 17.8519 26.0795 17.6886C25.6534 17.5252 25.071 17.3086 24.3324 17.0387C23.5938 16.7688 23.0114 16.5558 22.5852 16.3995C22.2159 16.2575 21.8572 16.0941 21.5092 15.9094C21.1612 15.7248 20.9375 15.6112 20.8381 15.5685C20.7386 15.6964 20.657 16.3604 20.593 17.5607C20.5291 18.761 20.4297 20.1282 20.2947 21.6623C20.1598 23.1964 19.9787 24.3469 19.7514 25.114C19.652 25.4549 19.446 25.739 19.1335 25.9663C18.821 26.1935 18.5511 26.3356 18.3239 26.3924C18.0966 26.4492 17.9119 26.4776 17.7699 26.4776ZM15 16.2717L19.0909 14.908V18.9989L15 17.6353L10.9091 18.9989V14.908L15 16.2717ZM15 21.0444C14.8295 21.0444 14.6733 20.9769 14.5313 20.842C14.3892 20.707 14.3182 20.5472 14.3182 20.3626C14.3182 20.1779 14.3892 20.0181 14.5313 19.8832C14.6733 19.7482 14.8295 19.6808 15 19.6808C15.1705 19.6808 15.3267 19.7482 15.4688 19.8832C15.6108 20.0181 15.6818 20.1779 15.6818 20.3626C15.6818 20.5472 15.6108 20.707 15.4688 20.842C15.3267 20.9769 15.1705 21.0444 15 21.0444ZM15 23.7717C14.8295 23.7717 14.6733 23.7042 14.5313 23.5692C14.3892 23.4343 14.3182 23.2745 14.3182 23.0898C14.3182 22.9052 14.3892 22.7454 14.5313 22.6104C14.6733 22.4755 14.8295 22.408 15 22.408C15.1705 22.408 15.3267 22.4755 15.4688 22.6104C15.6108 22.7454 15.6818 22.9052 15.6818 23.0898C15.6818 23.2745 15.6108 23.4343 15.4688 23.5692C15.3267 23.7042 15.1705 23.7717 15 23.7717Z" fill="#778E39"/>
</svg>
