<svg width="26" height="22" viewBox="0 0 26 22" fill="none" xmlns="http://www.w3.org/2000/svg">
<path d="M18.2982 7.34016L15.678 5.92191L16.1843 5.22147C16.4106 4.90663 16.5809 4.55319 16.6872 4.17751C17.0845 2.74003 16.5013 1.25346 15.2357 0.478479C13.9701 -0.296504 12.4182 -0.117448 11.3741 0.923974C11.1024 1.19836 10.8802 1.51991 10.7176 1.87375L10.3572 2.66363L7.89676 0.970685L7.86827 0.952157C7.6492 0.81836 7.3873 0.779298 7.14001 0.84354C6.89273 0.907782 6.68026 1.07008 6.54921 1.29484L4.64229 4.57429L4.92065 5.50772L6.47231 6.25278C6.67951 6.35224 6.86799 6.48842 7.0291 6.65509C7.63245 7.29284 7.73267 8.24616 7.27842 9.02728C6.82418 9.8084 5.95914 10.1705 5.12558 9.92852C4.90598 9.86211 4.69952 9.7565 4.51567 9.61652L3.14037 8.56916L2.20766 8.76101L0.136157 12.3232C0.0713675 12.4346 0.0285714 12.558 0.0102127 12.6863C-0.00814596 12.8147 -0.00170759 12.9455 0.0291602 13.0712C0.0600278 13.1969 0.11472 13.3152 0.190115 13.4191C0.265509 13.5231 0.360129 13.6108 0.468571 13.6772L9.00091 18.9022C9.36237 19.1236 9.76282 19.2696 10.1794 19.332C10.596 19.3944 11.0206 19.3719 11.4288 19.2659C11.8371 19.1598 12.2212 18.9722 12.559 18.7138C12.8968 18.4554 13.1819 18.1313 13.3978 17.76L18.6598 8.71112C18.7903 8.48605 18.8287 8.21712 18.7663 7.9633C18.704 7.70948 18.5462 7.4915 18.3274 7.35717L18.2982 7.34016ZM12.2968 17.0858C12.1673 17.3086 11.9962 17.5031 11.7935 17.6581C11.5908 17.8131 11.3604 17.9257 11.1154 17.9893C10.8705 18.053 10.6157 18.0664 10.3658 18.029C10.1158 17.9916 9.87555 17.904 9.65867 17.7711L1.40135 12.7146L2.945 10.0604L3.75402 10.6766L3.75908 10.6803C4.06547 10.9124 4.40952 11.0868 4.77529 11.1956C6.17494 11.6021 7.62333 11.0017 8.37946 9.70145C9.13559 8.4012 8.96277 6.80809 7.94957 5.73711C7.68261 5.45841 7.36964 5.23051 7.02515 5.06398L6.10699 4.6231L7.47687 2.26744L10.2635 4.1848L11.2015 3.91655L11.8751 2.44002C11.9722 2.22719 12.105 2.03355 12.2675 1.86797C12.8892 1.24783 13.8178 1.144 14.5781 1.60955C15.3384 2.0751 15.6903 2.96293 15.4537 3.81906C15.3888 4.04443 15.2858 4.25635 15.1493 4.44509L14.2028 5.75448L14.4181 6.729L17.3857 8.33526L12.2968 17.0858Z" fill="#E07496"/>
<path d="M26 18.7883H22.8251V22.0005H21.3598V18.7883H18.1849V17.3707H21.3598V14.1406H22.8251V17.3707H26V18.7883Z" fill="#E07496"/>
</svg>
