<svg width="30" height="25" viewBox="0 0 30 25" fill="none" xmlns="http://www.w3.org/2000/svg">
<path d="M28.125 8.81116C28.125 11.1488 27.5 12.3176 26.25 12.3176C26.1914 12.3176 26.1426 12.3633 26.1035 12.4546C26.2012 13.039 26.25 13.5778 26.25 14.0709C26.25 16.0433 25.7178 18.002 24.6533 19.947C23.5889 21.892 22.1973 23.4398 20.4785 24.5904H9.52148C7.58789 23.2937 6.07422 21.4948 4.98047 19.1937C4.62891 19.285 4.21875 19.3306 3.75 19.3306C3.08594 19.3306 2.46094 18.906 1.875 18.0568C1.28906 17.2076 0.830078 16.1803 0.498047 14.9749C0.166016 13.7696 0 12.5916 0 11.441C0 8.51895 1.25 7.05791 3.75 7.05791C4.74609 7.05791 5.52734 7.2588 6.09375 7.66059C7.14844 6.38218 8.45215 5.37771 10.0049 4.64719C11.5576 3.91667 13.2227 3.55142 15 3.55142C16.8945 3.55142 18.6621 3.9669 20.3027 4.79786C21.9434 5.62883 23.2813 6.75657 24.3164 8.18108C24.3555 8.0715 24.375 7.98932 24.375 7.93453C24.375 6.72917 24.834 5.69732 25.752 4.83896C26.6699 3.9806 27.7734 3.55142 29.0625 3.55142C29.375 3.55142 29.6875 3.57881 30 3.6336V7.05791C29.4727 7.05791 29.0283 7.22684 28.667 7.56471C28.3057 7.90257 28.125 8.31805 28.125 8.81116ZM3.75 8.81116C2.5 8.81116 1.875 9.85215 1.875 11.9341C1.875 12.9751 2.14355 14.0755 2.68066 15.2352C3.21777 16.3949 3.75977 17.1299 4.30664 17.4404C3.93555 16.2533 3.75 15.1301 3.75 14.0709C3.75 12.5185 4.11133 11.0301 4.83398 9.6056C4.50195 9.07597 4.14062 8.81116 3.75 8.81116ZM13.125 1.78447C13.125 1.3005 13.3057 0.889585 13.667 0.55172C14.0283 0.213855 14.4678 0.0449219 14.9854 0.0449219C15.5029 0.0449219 15.9473 0.213855 16.3184 0.55172C16.6895 0.889585 16.875 1.3005 16.875 1.78447C16.875 2.26844 16.6895 2.68392 16.3184 3.03092C15.9473 3.37792 15.5029 3.55142 14.9854 3.55142C14.4678 3.55142 14.0283 3.37792 13.667 3.03092C13.3057 2.68392 13.125 2.26844 13.125 1.78447Z" fill="#778E39"/>
</svg>
