<svg width="26" height="26" viewBox="0 0 26 26" fill="none" xmlns="http://www.w3.org/2000/svg">
<path fill-rule="evenodd" clip-rule="evenodd" d="M2.33333 2C2.24493 2 2.16014 2.03512 2.09763 2.09763C2.03512 2.16014 2 2.24493 2 2.33333V5.78112C2 5.78119 2 5.78105 2 5.78112C2.00008 5.86944 2.0352 5.95434 2.09767 6.01679L10.6497 14.5688C10.6497 14.5688 10.6496 14.5688 10.6497 14.5688C11.0872 15.0063 11.3332 15.5997 11.3333 16.2185V22.5858L14.6667 19.2525V16.2187C14.6668 15.5999 14.9127 15.0064 15.3502 14.5689C15.3503 14.5689 15.3502 14.5689 15.3502 14.5689L23.9022 6.01689C23.9647 5.95445 23.9999 5.86966 24 5.78133C24 5.78126 24 5.7814 24 5.78133V2.33333C24 2.24493 23.9649 2.16014 23.9024 2.09763C23.8399 2.03512 23.7551 2 23.6667 2H2.33333ZM0.683417 0.683417C1.121 0.245832 1.7145 0 2.33333 0H23.6667C24.2855 0 24.879 0.245832 25.3166 0.683417C25.7542 1.121 26 1.7145 26 2.33333V5.78133C25.9999 6.40007 25.754 6.99363 25.3164 7.43111C25.3164 7.43114 25.3165 7.43107 25.3164 7.43111L16.7644 15.9831C16.702 16.0456 16.6667 16.1303 16.6667 16.2187C16.6667 16.2187 16.6667 16.2186 16.6667 16.2187V19.6667C16.6667 19.9319 16.5613 20.1862 16.3738 20.3738L11.0404 25.7071C10.7544 25.9931 10.3243 26.0787 9.95065 25.9239C9.57698 25.7691 9.33333 25.4045 9.33333 25V16.2189C9.33333 16.2188 9.33333 16.219 9.33333 16.2189C9.33326 16.1306 9.29813 16.0457 9.23567 15.9832L0.683667 7.43121C0.683631 7.43118 0.683702 7.43125 0.683667 7.43121C0.246118 6.99374 0.000132203 6.40028 0 5.78155V2.33333C0 1.7145 0.245832 1.121 0.683417 0.683417Z" fill="#E07496"/>
</svg>
