<svg width="30" height="22" viewBox="0 0 30 22" fill="none" xmlns="http://www.w3.org/2000/svg">
<path d="M3.78329 10.3995C3.78329 10.6422 3.98005 10.839 4.22275 10.839H12.8946C13.1373 10.839 13.3341 10.6422 13.3341 10.3995C13.3341 10.1568 13.1373 9.96005 12.8946 9.96005H12.661C12.4631 8.06618 10.957 6.55616 9.06517 6.35144V5.99243C9.06517 5.74974 8.86841 5.55298 8.62572 5.55298C8.38302 5.55298 8.18626 5.74974 8.18626 5.99243V6.35144C6.29439 6.55616 4.78841 8.06618 4.59042 9.96005H4.22275C3.98005 9.96005 3.78329 10.1568 3.78329 10.3995ZM8.62572 7.20614C10.2345 7.20614 11.5679 8.40737 11.7762 9.96005H5.47531C5.68355 8.40737 7.01697 7.20614 8.62572 7.20614Z" fill="#A5B96E"/>
<path d="M12.1622 11.9021H4.95517C4.309 11.9021 3.78329 12.4278 3.78329 13.074C3.78329 13.7201 4.309 14.2458 4.95517 14.2458H12.1622C12.8084 14.2458 13.3341 13.7201 13.3341 13.074C13.3341 12.4278 12.8084 11.9021 12.1622 11.9021ZM12.1622 13.3669H4.95517C4.79363 13.3669 4.6622 13.2355 4.6622 13.074C4.6622 12.9124 4.79363 12.781 4.95517 12.781H12.1622C12.3237 12.781 12.4552 12.9124 12.4552 13.074C12.4552 13.2355 12.3237 13.3669 12.1622 13.3669Z" fill="#A5B96E"/>
<path d="M18.3883 4.48402H24.4824C25.2255 4.48402 25.8299 3.87957 25.8299 3.13654C25.8299 2.39357 25.2255 1.78906 24.4824 1.78906H18.3883C17.6453 1.78906 17.0409 2.39352 17.0409 3.13654C17.0409 3.87951 17.6453 4.48402 18.3883 4.48402ZM18.3883 2.66797H24.4824C24.7408 2.66797 24.951 2.87814 24.951 3.13654C24.951 3.39494 24.7408 3.60512 24.4824 3.60512H18.3883C18.13 3.60512 17.9198 3.39494 17.9198 3.13654C17.9198 2.87814 18.13 2.66797 18.3883 2.66797Z" fill="#A5B96E"/>
<path d="M17.4803 6.50195H19.9255C20.1682 6.50195 20.3649 6.3052 20.3649 6.0625C20.3649 5.8198 20.1682 5.62305 19.9255 5.62305H17.4803C17.2376 5.62305 17.0409 5.8198 17.0409 6.0625C17.0409 6.3052 17.2376 6.50195 17.4803 6.50195Z" fill="#A5B96E"/>
<path d="M17.4803 8.50415H22.6794C22.9222 8.50415 23.1189 8.30739 23.1189 8.0647C23.1189 7.822 22.9222 7.62524 22.6794 7.62524H17.4803C17.2376 7.62524 17.0409 7.822 17.0409 8.0647C17.0409 8.30739 17.2376 8.50415 17.4803 8.50415Z" fill="#A5B96E"/>
<path d="M25.3905 7.62524H24.1736C23.9308 7.62524 23.7341 7.822 23.7341 8.0647C23.7341 8.30739 23.9308 8.50415 24.1736 8.50415H25.3905C25.6332 8.50415 25.8299 8.30739 25.8299 8.0647C25.8299 7.822 25.6332 7.62524 25.3905 7.62524Z" fill="#A5B96E"/>
<path d="M17.4803 10.1985H22.6794C22.9222 10.1985 23.1189 10.0017 23.1189 9.75903C23.1189 9.51634 22.9222 9.31958 22.6794 9.31958H17.4803C17.2376 9.31958 17.0409 9.51634 17.0409 9.75903C17.0409 10.0017 17.2376 10.1985 17.4803 10.1985Z" fill="#A5B96E"/>
<path d="M25.3905 9.31958H24.1736C23.9308 9.31958 23.7341 9.51634 23.7341 9.75903C23.7341 10.0017 23.9308 10.1985 24.1736 10.1985H25.3905C25.6332 10.1985 25.8299 10.0017 25.8299 9.75903C25.8299 9.51634 25.6332 9.31958 25.3905 9.31958Z" fill="#A5B96E"/>
<path d="M17.4803 11.8926H22.6794C22.9222 11.8926 23.1189 11.6958 23.1189 11.4531C23.1189 11.2104 22.9222 11.0137 22.6794 11.0137H17.4803C17.2376 11.0137 17.0409 11.2104 17.0409 11.4531C17.0409 11.6958 17.2376 11.8926 17.4803 11.8926Z" fill="#A5B96E"/>
<path d="M25.3905 11.0137H24.1736C23.9308 11.0137 23.7341 11.2104 23.7341 11.4531C23.7341 11.6958 23.9308 11.8926 24.1736 11.8926H25.3905C25.6332 11.8926 25.8299 11.6958 25.8299 11.4531C25.8299 11.2104 25.6332 11.0137 25.3905 11.0137Z" fill="#A5B96E"/>
<path d="M17.4803 14.3813H19.9255C20.1682 14.3813 20.3649 14.1846 20.3649 13.9419C20.3649 13.6992 20.1682 13.5024 19.9255 13.5024H17.4803C17.2376 13.5024 17.0409 13.6992 17.0409 13.9419C17.0409 14.1846 17.2376 14.3813 17.4803 14.3813Z" fill="#A5B96E"/>
<path d="M17.4803 16.4126H22.6794C22.9222 16.4126 23.1189 16.2158 23.1189 15.9731C23.1189 15.7304 22.9222 15.5337 22.6794 15.5337H17.4803C17.2376 15.5337 17.0409 15.7304 17.0409 15.9731C17.0409 16.2158 17.2376 16.4126 17.4803 16.4126Z" fill="#A5B96E"/>
<path d="M25.3905 15.5337H24.1736C23.9308 15.5337 23.7341 15.7304 23.7341 15.9731C23.7341 16.2158 23.9308 16.4126 24.1736 16.4126H25.3905C25.6332 16.4126 25.8299 16.2158 25.8299 15.9731C25.8299 15.7304 25.6332 15.5337 25.3905 15.5337Z" fill="#A5B96E"/>
<path d="M17.4803 18.1313H22.6794C22.9222 18.1313 23.1189 17.9346 23.1189 17.6919C23.1189 17.4492 22.9222 17.2524 22.6794 17.2524H17.4803C17.2376 17.2524 17.0409 17.4492 17.0409 17.6919C17.0409 17.9346 17.2376 18.1313 17.4803 18.1313Z" fill="#A5B96E"/>
<path d="M25.3905 17.2524H24.1736C23.9308 17.2524 23.7341 17.4492 23.7341 17.6919C23.7341 17.9346 23.9308 18.1313 24.1736 18.1313H25.3905C25.6332 18.1313 25.8299 17.9346 25.8299 17.6919C25.8299 17.4492 25.6332 17.2524 25.3905 17.2524Z" fill="#A5B96E"/>
<path d="M29.5605 15.2727C29.8033 15.2727 30 15.076 30 14.8333V2.6045C30 2.1037 29.5926 1.6963 29.0918 1.6963H28.3103V0.993408C28.3103 0.524951 27.9291 0.143799 27.4607 0.143799H16.3477C15.8103 0.143799 15.3279 0.382568 15 0.759209C14.6721 0.382568 14.1898 0.143799 13.6523 0.143799H5.61885C5.37615 0.143799 5.17939 0.340557 5.17939 0.583252C5.17939 0.825947 5.37615 1.02271 5.61885 1.02271H13.6523C14.1531 1.02271 14.5605 1.43011 14.5605 1.93091V19.2911C13.9523 19.2911 3.15129 19.2911 2.56863 19.2911V2.13575V1.02271H3.56807C3.81076 1.02271 4.00752 0.825947 4.00752 0.583252C4.00752 0.340557 3.81076 0.143799 3.56807 0.143799H2.53934C2.07088 0.143799 1.68973 0.524951 1.68973 0.993408V1.6963H0.908203C0.407402 1.6963 0 2.1037 0 2.6045V20.9482C0 21.449 0.407402 21.8564 0.908203 21.8564H29.0918C29.5926 21.8564 30 21.449 30 20.9482V16.884C30 16.6413 29.8033 16.4446 29.5605 16.4446C29.3178 16.4446 29.1211 16.6413 29.1211 16.884V20.9482C29.1211 20.9644 29.1079 20.9775 29.0918 20.9775H15.4395V20.17H27.4607C27.9291 20.17 28.3103 19.7889 28.3103 19.3204V16.2663V14.2156V2.57521H29.0918C29.1079 2.57521 29.1211 2.58833 29.1211 2.6045V14.8333C29.1211 15.076 29.3178 15.2727 29.5605 15.2727ZM14.5605 20.9775H0.908203C0.892031 20.9775 0.878906 20.9644 0.878906 20.9482V2.6045C0.878906 2.58833 0.892031 2.57521 0.908203 2.57521H1.68973V19.3204C1.68973 19.7889 2.07088 20.17 2.53934 20.17H14.5605V20.9775ZM27.4314 2.13575V14.2156V16.2663V19.2911H15.4395C15.4395 18.4757 15.4395 2.77495 15.4395 1.93091C15.4395 1.43011 15.8469 1.02271 16.3477 1.02271H27.4314V2.13575Z" fill="#A5B96E"/>
</svg>
