<svg width="22" height="18" viewBox="0 0 22 18" fill="none" xmlns="http://www.w3.org/2000/svg">
<path d="M0.846154 6.92898L0 6.54545V4.90909L11 0L22 4.90909V6.54545L21.1538 6.92898V13.7557C21.1538 14.0795 21.0371 14.3224 20.8035 14.4844C20.5699 14.6463 20.2636 14.7273 19.8846 14.7273C19.5056 14.7273 19.1993 14.6463 18.9657 14.4844C18.7322 14.3224 18.6154 14.0795 18.6154 13.7557V8.05398L12.2692 10.892V17.0284C12.2692 17.3523 12.1524 17.5952 11.9189 17.7571C11.6853 17.919 11.379 18 11 18C10.621 18 10.3147 17.919 10.0811 17.7571C9.84756 17.5952 9.73077 17.3523 9.73077 17.0284V10.892L3.38462 8.05398V13.7557C3.38462 14.0795 3.26783 14.3224 3.03425 14.4844C2.80068 14.6463 2.49439 14.7273 2.11538 14.7273C1.73638 14.7273 1.43009 14.6463 1.19651 14.4844C0.962941 14.3224 0.846154 14.0795 0.846154 13.7557V6.92898Z" fill="#DFDFDF"/>
</svg>
