<svg width="16" height="16" viewBox="0 0 16 16" fill="none" xmlns="http://www.w3.org/2000/svg">
<path d="M15.6129 4.04468C15.3646 3.44887 15.0067 2.90895 14.5591 2.45516C14.1111 2 13.583 1.6383 13.0033 1.38972C12.4023 1.13092 11.7577 0.998461 11.1068 1.00001C10.1938 1.00001 9.30292 1.25917 8.52875 1.7487C8.34355 1.8658 8.1676 1.99442 8.00092 2.13456C7.83423 1.99442 7.65828 1.8658 7.47308 1.7487C6.69892 1.25917 5.80807 1.00001 4.895 1.00001C4.23752 1.00001 3.60041 1.13055 2.99849 1.38972C2.41694 1.63928 1.89281 1.99826 1.44276 2.45516C0.994552 2.90844 0.636513 3.44848 0.388933 4.04468C0.131497 4.66474 0 5.3232 0 6.00086C0 6.64013 0.12594 7.30627 0.375969 7.98392C0.585252 8.55024 0.885287 9.13767 1.26866 9.73086C1.87614 10.6696 2.71142 11.6487 3.74858 12.6411C5.46729 14.2863 7.16934 15.4228 7.24157 15.4689L7.68051 15.7607C7.87498 15.8893 8.12501 15.8893 8.31947 15.7607L8.75841 15.4689C8.83064 15.4209 10.5308 14.2863 12.2514 12.6411C13.2886 11.6487 14.1238 10.6696 14.7313 9.73086C15.1147 9.13767 15.4166 8.55024 15.624 7.98392C15.874 7.30627 16 6.64013 16 6.00086C16.0018 5.3232 15.8703 4.66474 15.6129 4.04468V4.04468ZM8.00092 14.2422C8.00092 14.2422 1.40757 9.86332 1.40757 6.00086C1.40757 4.04468 2.96886 2.45899 4.895 2.45899C6.24886 2.45899 7.42307 3.24224 8.00092 4.38638C8.57876 3.24224 9.75297 2.45899 11.1068 2.45899C13.033 2.45899 14.5943 4.04468 14.5943 6.00086C14.5943 9.86332 8.00092 14.2422 8.00092 14.2422Z" fill="#E07496"/>
</svg>
