<svg width="40" height="36" viewBox="0 0 40 36" fill="none" xmlns="http://www.w3.org/2000/svg">
<path fill-rule="evenodd" clip-rule="evenodd" d="M1.46446 1.67748C2.40214 0.603407 3.67391 0 4.99999 0H22.1428C23.4689 0 24.7406 0.603407 25.6783 1.67748C26.616 2.75155 27.1428 4.20831 27.1428 5.72727V9.81818C27.1428 10.7219 26.5032 11.4545 25.7142 11.4545C24.9252 11.4545 24.2856 10.7219 24.2856 9.81818V5.72727C24.2856 5.07629 24.0599 4.45196 23.658 3.99165C23.2562 3.53133 22.7111 3.27273 22.1428 3.27273H4.99999C4.43167 3.27273 3.88662 3.53133 3.48476 3.99165C3.0829 4.45196 2.85713 5.07629 2.85713 5.72727V30.2727C2.85713 30.9237 3.0829 31.548 3.48476 32.0084C3.88662 32.4687 4.43167 32.7273 4.99999 32.7273H22.1428C22.7111 32.7273 23.2562 32.4687 23.658 32.0084C24.0599 31.548 24.2856 30.9237 24.2856 30.2727V26.1818C24.2856 25.2781 24.9252 24.5455 25.7142 24.5455C26.5032 24.5455 27.1428 25.2781 27.1428 26.1818V30.2727C27.1428 31.7917 26.616 33.2484 25.6783 34.3225C24.7406 35.3966 23.4689 36 22.1428 36H4.99999C3.67391 36 2.40214 35.3966 1.46446 34.3225C0.526783 33.2484 0 31.7917 0 30.2727V5.72727C0 4.20831 0.526783 2.75155 1.46446 1.67748Z" fill="#788E39"/>
<path fill-rule="evenodd" clip-rule="evenodd" d="M30.4184 8.66287C30.9763 8.02383 31.8808 8.02383 32.4387 8.66287L39.5816 16.8447C40.1394 17.4837 40.1394 18.5198 39.5816 19.1589L32.4387 27.3407C31.8808 27.9797 30.9763 27.9797 30.4184 27.3407C29.8605 26.7016 29.8605 25.6655 30.4184 25.0265L36.5511 18.0018L30.4184 10.977C29.8605 10.338 29.8605 9.30191 30.4184 8.66287Z" fill="#788E39"/>
<path fill-rule="evenodd" clip-rule="evenodd" d="M12.7678 17.9996C12.7678 17.0959 13.4074 16.3633 14.1964 16.3633H38.5713C39.3603 16.3633 39.9999 17.0959 39.9999 17.9996C39.9999 18.9034 39.3603 19.636 38.5713 19.636H14.1964C13.4074 19.636 12.7678 18.9034 12.7678 17.9996Z" fill="#788E39"/>
</svg>
