<svg width="143" height="122" viewBox="0 0 143 122" fill="none" xmlns="http://www.w3.org/2000/svg">
<path d="M132.916 83.3197C110.07 106.165 86.6005 143.777 28.2641 104.533C5.41842 81.6873 15.3179 54.5466 38.1636 31.7009C61.0093 8.85527 88.1499 -1.04422 110.996 21.8014C133.841 44.6471 155.762 60.474 132.916 83.3197Z" fill="#A5B96E"/>
<g clip-path="url(#clip0)">
<path d="M103.768 14.1138V6.33742C103.787 4.34536 102.901 2.45232 101.358 1.19219C100.05 0.144285 98.3312 -0.240939 96.7012 0.148303L38.8159 14.1558C35.6518 14.369 33.1916 16.993 33.1824 20.1639V114.95C33.1859 118.29 35.8927 120.996 39.2325 121H103.768C107.107 120.996 109.814 118.29 109.818 114.95V20.1639C109.814 16.824 107.107 14.1175 103.768 14.1138ZM97.6505 4.06956C98.0783 3.9703 98.5281 4.07854 98.8637 4.3619C99.4377 4.85466 99.7579 5.58092 99.7341 6.33719V14.1138H56.1432L97.6505 4.06956ZM105.784 114.95C105.783 116.063 104.881 116.965 103.768 116.966H39.2325C38.1194 116.965 37.2173 116.063 37.2159 114.95V20.1639C37.2173 19.0508 38.1194 18.1487 39.2325 18.1473H103.768C104.881 18.1487 105.783 19.0508 105.784 20.1639V114.95Z" fill="#04051C"/>
<path d="M81.5836 86.2442C84.9235 86.2406 87.6302 83.5339 87.6337 80.194V55.9934C89.8605 55.9913 91.6649 54.1867 91.6673 51.9599V39.8596C91.6673 31.0443 87.1318 24.9242 79.8298 23.8863L77.8327 23.6036C77.2544 23.5218 76.669 23.6951 76.2278 24.0779C75.7868 24.461 75.5334 25.0164 75.5332 25.6006V80.1938C75.5372 83.5339 78.2437 86.2404 81.5836 86.2442ZM79.567 27.9276C86.8401 29.1605 87.6337 36.6592 87.6337 39.8594V51.9597H85.6171C84.5033 51.9597 83.6005 52.8627 83.6005 53.9763V80.1936C83.6005 81.3074 82.6977 82.2102 81.5838 82.2102C80.47 82.2102 79.5672 81.3074 79.5672 80.1936V27.9276H79.567Z" fill="#04051C"/>
<path d="M55.3663 48.8559V80.1939C55.3663 83.5354 58.075 86.244 61.4165 86.244C64.758 86.244 67.4666 83.5354 67.4666 80.1939V48.8559C69.9666 47.4221 71.5058 44.7582 71.5001 41.8763V25.7425C71.5001 24.6286 70.5974 23.7258 69.4835 23.7258C68.3697 23.7258 67.4669 24.6286 67.4669 25.7425V35.8261C67.4669 36.94 66.5638 37.8428 65.4502 37.8428C64.3364 37.8428 63.4336 36.94 63.4336 35.8261V25.7425C63.4336 24.6286 62.5308 23.7258 61.417 23.7258C60.3031 23.7258 59.4003 24.6286 59.4003 25.7425V35.8261C59.4003 36.94 58.4975 37.8428 57.3837 37.8428C56.2698 37.8428 55.367 36.94 55.367 35.8261V25.7425C55.367 24.6286 54.4642 23.7258 53.3504 23.7258C52.2366 23.7258 51.3338 24.6286 51.3338 25.7425V41.8763C51.3269 44.7579 52.8664 47.4219 55.3663 48.8559ZM55.3663 41.5043C56.0122 41.7435 56.6945 41.8692 57.383 41.8761C58.8764 41.8713 60.3145 41.3103 61.4165 40.3025C63.0422 41.8179 65.3852 42.2835 67.4666 41.5045V41.8761C67.4766 43.5765 66.4041 45.0952 64.7979 45.6546C63.9817 45.9332 63.4331 46.7003 63.4331 47.563V80.1939C63.4331 81.3077 62.5303 82.2105 61.4165 82.2105C60.3026 82.2105 59.3998 81.3077 59.3998 80.1939V47.563C59.3998 46.7003 58.8513 45.9332 58.035 45.6546C56.4291 45.0952 55.3566 43.5767 55.3663 41.8761V41.5043Z" fill="#04051C"/>
<path d="M51.3328 102.378H79.5669C80.6808 102.378 81.5836 101.475 81.5836 100.361C81.5836 99.247 80.6805 98.3442 79.5669 98.3442H51.3328C50.219 98.3442 49.3162 99.247 49.3162 100.361C49.3162 101.475 50.219 102.378 51.3328 102.378Z" fill="#04051C"/>
<path d="M91.6672 98.3442H87.6337C86.5199 98.3442 85.6171 99.247 85.6171 100.361C85.6171 101.475 86.5199 102.378 87.6337 102.378H91.6672C92.7811 102.378 93.6839 101.475 93.6839 100.361C93.6839 99.247 92.7811 98.3442 91.6672 98.3442Z" fill="#04051C"/>
<path d="M91.6673 106.411H75.5335C74.4196 106.411 73.5168 107.314 73.5168 108.428C73.5168 109.542 74.4196 110.444 75.5335 110.444H91.6673C92.7811 110.444 93.6839 109.542 93.6839 108.428C93.6839 107.314 92.7811 106.411 91.6673 106.411Z" fill="#04051C"/>
<path d="M67.4666 106.411H65.45C64.3361 106.411 63.4333 107.314 63.4333 108.428C63.4333 109.542 64.3364 110.444 65.45 110.444H67.4666C68.5805 110.444 69.4833 109.542 69.4833 108.428C69.4833 107.314 68.5805 106.411 67.4666 106.411Z" fill="#04051C"/>
<path d="M57.383 106.411H51.3328C50.219 106.411 49.3162 107.314 49.3162 108.428C49.3162 109.542 50.219 110.444 51.3328 110.444H57.383C58.4968 110.444 59.3996 109.542 59.3996 108.428C59.3996 107.314 58.4968 106.411 57.383 106.411Z" fill="#04051C"/>
</g>
<defs>
<clipPath id="clip0">
<rect width="110" height="121" fill="white"/>
</clipPath>
</defs>
</svg>
