<svg width="32" height="20" viewBox="0 0 32 20" fill="none" xmlns="http://www.w3.org/2000/svg">
<path d="M15.124 18.0415C15.2013 18.1068 15.284 18.1722 15.3653 18.2362C13.7433 19.3156 11.8377 19.8901 9.88929 19.8868C8.34637 19.8868 6.82487 19.5257 5.44648 18.8324C4.06809 18.1392 2.87106 17.1329 1.95115 15.8942C1.03123 14.6555 0.413958 13.2188 0.148694 11.6988C-0.116569 10.1789 -0.0224594 8.61794 0.423496 7.14087C0.869452 5.66381 1.65488 4.3116 2.71695 3.1924C3.77902 2.07321 5.08827 1.21809 6.53997 0.695432C7.99167 0.172778 9.54554 -0.00290116 11.0773 0.182445C12.609 0.367792 14.0761 0.909021 15.3613 1.76284C15.2813 1.83084 15.2013 1.89351 15.1413 1.96284C13.9863 2.95942 13.0596 4.19319 12.4243 5.58014C11.7891 6.9671 11.4601 8.47466 11.46 10.0002C11.4603 11.5246 11.7875 13.0312 12.4196 14.4183C13.0517 15.8055 13.9738 17.041 15.124 18.0415ZM22.112 0.112175C20.0853 0.112175 18.204 0.720175 16.6386 1.76284C16.7186 1.83084 16.7986 1.89351 16.8586 1.96284C18.0136 2.95942 18.9403 4.19319 19.5756 5.58014C20.2108 6.9671 20.5398 8.47466 20.54 10.0002C20.5391 11.5245 20.2116 13.0309 19.5796 14.418C18.9476 15.8051 18.0257 17.0407 16.876 18.0415C16.7986 18.1068 16.716 18.1722 16.6346 18.2362C18.2565 19.316 20.1622 19.8905 22.1106 19.8868C23.4092 19.8874 24.6952 19.632 25.8951 19.1354C27.095 18.6388 28.1853 17.9106 29.1037 16.9924C30.022 16.0743 30.7505 14.9842 31.2475 13.7845C31.7444 12.5847 32.0001 11.2988 32 10.0002C31.9996 7.37782 30.9577 4.86298 29.1034 3.00869C27.2492 1.15441 24.7343 0.112528 22.112 0.112175ZM16 2.23217C14.8221 3.15521 13.87 4.33448 13.2159 5.68045C12.5619 7.02642 12.2231 8.50371 12.2253 10.0002C12.2227 11.4969 12.5613 12.9745 13.2154 14.3208C13.8694 15.667 14.8217 16.8465 16 17.7695C17.1779 16.8462 18.13 15.6667 18.784 14.3205C19.438 12.9743 19.7768 11.4968 19.7746 10.0002C19.7768 8.50371 19.438 7.02642 18.784 5.68045C18.1299 4.33448 17.1778 3.15521 16 2.23217Z" fill="white"/>
</svg>
