<svg width="46" height="52" viewBox="0 0 46 52" fill="none" xmlns="http://www.w3.org/2000/svg">
<g clip-path="url(#clip0_199_545)">
<path d="M22.6648 47.3486C22.3297 47.3486 22.0555 47.6229 22.0555 47.958V50.6088C22.0555 50.944 22.3297 51.2182 22.6648 51.2182C23 51.2182 23.2742 50.944 23.2742 50.6088V47.958C23.2742 47.6229 23 47.3486 22.6648 47.3486Z" fill="#E07496"/>
<path d="M1.97656 25.147H4.6375C4.97266 25.147 5.24687 24.8728 5.24687 24.5376C5.24687 24.2024 4.97266 23.9282 4.6375 23.9282H1.97656C1.64141 23.9282 1.36719 24.2024 1.36719 24.5376C1.36719 24.8829 1.64141 25.147 1.97656 25.147Z" fill="#E07496"/>
<path d="M40.0828 24.5376C40.0828 24.8728 40.357 25.147 40.6922 25.147H43.3531C43.6883 25.147 43.9625 24.8728 43.9625 24.5376C43.9625 24.2024 43.6883 23.9282 43.3531 23.9282H40.6922C40.357 23.9282 40.0828 24.2024 40.0828 24.5376Z" fill="#E07496"/>
<path d="M39.443 40.4525C39.2094 40.2189 38.8235 40.2189 38.5797 40.4525C38.3461 40.6861 38.3461 41.0721 38.5797 41.3158L40.4586 43.1947C40.6922 43.4283 41.0781 43.4283 41.3219 43.1947C41.5555 42.9611 41.5555 42.5752 41.3219 42.3314L39.443 40.4525Z" fill="#E07496"/>
<path d="M5.89687 40.4523L4.01796 42.3313C3.77421 42.5648 3.77421 42.9508 4.00781 43.1945C4.2414 43.4383 4.62734 43.4383 4.87109 43.2047C4.87109 43.2047 4.87109 43.2047 4.88125 43.1945L6.76015 41.3156C6.99375 41.082 6.99375 40.6961 6.76015 40.4523C6.5164 40.2086 6.13046 40.2086 5.89687 40.4523Z" fill="#E07496"/>
<path d="M4.67813 32.7537C4.67813 32.4186 4.40391 32.1443 4.06875 32.1443H2.93125V31.0068C2.93125 30.6717 2.65703 30.3975 2.32188 30.3975C1.98672 30.3975 1.7125 30.6717 1.7125 31.0068V32.1443H0.585159C0.250003 32.1443 -0.0242157 32.4186 -0.0242157 32.7537C-0.0242157 33.0889 0.250003 33.3631 0.585159 33.3631H1.7125V34.5006C1.7125 34.8357 1.98672 35.11 2.32188 35.11C2.65703 35.11 2.93125 34.8357 2.93125 34.5006V33.3631H4.06875C4.40391 33.3631 4.67813 33.0889 4.67813 32.7537Z" fill="#E07496"/>
<path d="M39.2398 17.0523V15.9148H40.3672C40.7024 15.9148 40.9766 15.6406 40.9766 15.3055C40.9766 14.9703 40.7024 14.6961 40.3672 14.6961H39.2297V13.5586C39.2297 13.2234 38.9555 12.9492 38.6203 12.9492C38.2852 12.9492 38.0109 13.2234 38.0109 13.5586V14.6961H36.8734C36.5383 14.6961 36.2641 14.9703 36.2641 15.3055C36.2641 15.6406 36.5383 15.9148 36.8734 15.9148H38.0109V17.0523C38.0109 17.3875 38.2852 17.6617 38.6203 17.6617C38.9555 17.6617 39.2398 17.3875 39.2398 17.0523Z" fill="#E07496"/>
<path d="M10.132 16.951C10.8836 16.1994 10.8836 14.9705 10.132 14.2189C9.38047 13.4674 8.15157 13.4674 7.40001 14.2189C6.64844 14.9705 6.64844 16.1994 7.40001 16.951C7.76563 17.3166 8.25313 17.5197 8.7711 17.5197C9.27891 17.5096 9.76641 17.3064 10.132 16.951ZM8.26329 16.0877C8.13126 15.9557 8.06016 15.7728 8.06016 15.59C8.06016 15.1939 8.38516 14.8791 8.7711 14.8791C8.96407 14.8791 9.13672 14.9502 9.26876 15.0822C9.54297 15.3564 9.54297 15.8135 9.26876 16.0877C8.99454 16.3619 8.53751 16.3619 8.26329 16.0877Z" fill="#E07496"/>
<path d="M45.4656 32.8352C44.7141 32.0836 43.4852 32.0836 42.7336 32.8352C41.982 33.5867 41.982 34.8156 42.7336 35.5672C43.4852 36.3187 44.7141 36.3187 45.4656 35.5672C46.2172 34.8055 46.2172 33.5867 45.4656 32.8352ZM44.6023 34.7039C44.3281 34.9781 43.8711 34.9781 43.5969 34.7039C43.3227 34.4297 43.3227 33.9727 43.5969 33.6984C43.8711 33.4242 44.3281 33.4242 44.6023 33.6984C44.7344 33.8305 44.8156 34.0133 44.8156 34.2062C44.8055 34.3891 44.7344 34.5719 44.6023 34.7039Z" fill="#E07496"/>
<path d="M35.9594 47.1453H34.8219V46.0078C34.8219 45.6727 34.5477 45.3984 34.2125 45.3984C33.8774 45.3984 33.6031 45.6727 33.6031 46.0078V47.1453H32.4758C32.1406 47.1453 31.8664 47.4195 31.8664 47.7547C31.8664 48.0899 32.1406 48.3641 32.4758 48.3641H33.6031V49.5016C33.6031 49.8367 33.8774 50.111 34.2125 50.111C34.5477 50.111 34.8219 49.8367 34.8219 49.5016V48.3641H35.9594C36.2946 48.3641 36.5688 48.0899 36.5688 47.7547C36.5688 47.4195 36.2946 47.1453 35.9594 47.1453Z" fill="#E07496"/>
<path d="M34.3039 20.7595C34.4867 20.6173 34.6899 20.4853 34.9031 20.3837L36.0609 19.8048C36.3656 19.6524 36.4875 19.2868 36.3352 18.9923C36.2742 18.8704 36.1828 18.779 36.0609 18.7181L34.9031 18.1392C34.1719 17.7735 33.5727 17.1743 33.207 16.4431L32.6281 15.2853C32.4758 14.9806 32.1102 14.8587 31.8156 15.011C31.6938 15.072 31.6024 15.1634 31.5414 15.2853L30.9625 16.4431C30.8102 16.7579 30.607 17.0423 30.3734 17.2962C29.5609 16.8087 28.7078 16.4024 27.8242 16.0774V12.7563C27.8242 12.4212 27.55 12.147 27.2148 12.147H23.2742V7.92197H24.8992C26.4328 7.92197 27.682 6.67275 27.682 5.13916V4.52979H36.5688C38.143 4.52979 39.4125 3.26025 39.4125 1.68604V1.38135C39.4125 1.04619 39.1383 0.771973 38.8031 0.771973H6.52657C6.19141 0.771973 5.91719 1.04619 5.91719 1.38135V1.68604C5.91719 3.26025 7.18672 4.52979 8.76094 4.52979H17.6477V5.13916C17.6477 6.67275 18.8969 7.92197 20.4305 7.92197H22.0555V12.1368H18.1555C17.8203 12.1368 17.5461 12.411 17.5461 12.7462V16.0673C11.7164 18.2103 7.83672 23.7657 7.83672 29.9712C7.83672 38.1571 14.4789 44.7993 22.6648 44.7993C30.8508 44.7993 37.493 38.1571 37.493 29.9712C37.493 29.4024 37.4625 28.8337 37.4016 28.2649C37.0969 25.5329 36.0203 22.9228 34.3039 20.7595ZM29.8148 19.2259C30.7797 18.7384 31.5719 17.9563 32.0492 16.9915L32.0797 16.9306L32.1102 16.9915C32.5977 17.9563 33.3797 18.7485 34.3445 19.2259L34.4055 19.2563L34.3445 19.2868C33.3797 19.7743 32.5875 20.5563 32.1102 21.5212L32.0797 21.5821L32.0492 21.5212C31.5617 20.5563 30.7797 19.7642 29.8148 19.2868L29.7539 19.2563L29.8148 19.2259ZM29.3375 18.0985C29.3172 18.1087 29.2969 18.1188 29.2766 18.129L28.1188 18.7079C27.8141 18.8603 27.6922 19.2259 27.8445 19.5204C27.9055 19.6423 27.9969 19.7337 28.1188 19.7946L29.2766 20.3735C30.0078 20.7392 30.607 21.3384 30.9727 22.0696L31.5516 23.2274C31.7039 23.5321 32.0695 23.654 32.3641 23.5017C32.4859 23.4407 32.5773 23.3493 32.6383 23.2274L33.2172 22.0696C33.2883 21.9274 33.3695 21.7853 33.4609 21.6532C34.6188 23.1563 35.4414 24.8829 35.8883 26.7212C34.2328 25.5126 31.7242 24.5478 28.6977 23.9892C28.4945 22.872 28.2 21.7649 27.8344 20.6884C27.3266 19.236 26.707 18.0274 26.0063 17.1235H27.1133C27.8852 17.3774 28.6266 17.7024 29.3375 18.0985ZM22.4516 24.6493C24.1883 24.6493 25.925 24.7813 27.6313 25.0454C27.8852 26.6806 28.007 28.336 28.007 29.9915C28.0172 31.911 27.8445 33.8204 27.4992 35.6993C25.8336 35.9431 24.1375 36.0649 22.4516 36.0649C20.9078 36.0649 19.3742 35.9634 17.8508 35.7603C17.4953 33.861 17.3227 31.9212 17.3227 29.9915C17.3227 28.3157 17.4547 26.6399 17.7086 24.9845C19.2828 24.7509 20.8672 24.6493 22.4516 24.6493ZM17.9523 23.7149C18.6023 20.6681 19.7094 18.2509 21.0094 17.1235H24.3609C25.2547 17.9056 26.057 19.2665 26.6867 21.0845C26.9914 21.9681 27.2352 22.8618 27.418 23.7759C25.7727 23.5423 24.1172 23.4306 22.4617 23.4306C20.9484 23.4306 19.4453 23.522 17.9523 23.7149ZM20.4406 6.70322C19.5773 6.70322 18.8766 6.00244 18.8766 5.13916V4.52979H19.9531C20.2883 4.52979 20.5625 4.25557 20.5625 3.92041C20.5625 3.58525 20.2883 3.31103 19.9531 3.31103H8.76094C7.97891 3.31103 7.3086 2.75244 7.16641 1.99072H38.1633C38.0109 2.75244 37.3508 3.31103 36.5688 3.31103H23.1016C22.7664 3.31103 22.4922 3.58525 22.4922 3.92041C22.4922 4.25557 22.7664 4.52979 23.1016 4.52979H26.4633V5.13916C26.4633 6.00244 25.7625 6.70322 24.8992 6.70322H20.4406ZM18.7648 13.3556H26.6055V15.8946H18.7648V13.3556ZM12.2852 21.186C13.8695 19.3071 15.9414 17.9056 18.257 17.1134H19.3438C18.1656 18.6368 17.2211 21.0134 16.6625 23.8978C13.7781 24.3954 11.2898 25.2485 9.55313 26.3454C10.0813 24.4563 11.0156 22.6892 12.2852 21.186ZM9.05547 29.9813C9.05547 29.3618 9.0961 28.7423 9.1875 28.1329C10.6398 26.8329 13.25 25.7665 16.4492 25.1774C16.2156 26.772 16.1039 28.3767 16.1039 29.9813C16.0938 31.8501 16.2563 33.7087 16.5711 35.547C13.4227 34.9782 10.8328 33.9524 9.32969 32.6931C9.14688 31.7993 9.05547 30.8954 9.05547 29.9813ZM14.0727 40.5337C12.143 38.9595 10.6805 36.8774 9.8375 34.5313C11.5945 35.5673 13.9914 36.3595 16.825 36.8267C17.4648 39.6704 18.4703 41.8845 19.6992 43.2556C17.6375 42.7985 15.7078 41.8642 14.0727 40.5337ZM22.6648 43.5907C20.8773 43.5907 19.1 40.9806 18.1148 37.0196C19.557 37.1923 20.9992 37.2837 22.4516 37.2837C24.0461 37.2837 25.6406 37.1821 27.225 36.9688C26.25 40.9603 24.4625 43.5907 22.6648 43.5907ZM25.6406 43.2657C26.8797 41.8845 27.8953 39.6399 28.525 36.7556C31.4602 36.2274 33.918 35.3337 35.6141 34.1962C34.1211 38.7767 30.3328 42.2298 25.6406 43.2657ZM36.0914 32.2056C34.8219 33.6173 32.1406 34.8157 28.7789 35.4759C29.0836 33.6579 29.2359 31.8196 29.2359 29.9813C29.2359 28.4071 29.1344 26.8329 28.9109 25.2688C32.3336 25.9696 35.0149 27.2087 36.2234 28.661C36.2641 29.0978 36.2844 29.5446 36.2844 29.9813C36.2742 30.7329 36.2133 31.4743 36.0914 32.2056Z" fill="#E07496"/>
<path d="M13.118 45.236C12.3664 44.4845 11.1375 44.4845 10.3859 45.236C9.63438 45.9876 9.63438 47.2165 10.3859 47.9681C10.7617 48.3438 11.2594 48.5368 11.7469 48.5368C12.2445 48.5368 12.732 48.3438 13.1078 47.9681C13.8695 47.2165 13.8695 45.9876 13.118 45.236ZM12.2648 47.1048C11.9906 47.379 11.5336 47.379 11.2594 47.1048C10.9852 46.8306 10.9852 46.3735 11.2594 46.0993C11.4016 45.9571 11.5844 45.8962 11.7672 45.8962C11.95 45.8962 12.1328 45.9673 12.2648 46.0993C12.5391 46.3735 12.5391 46.8306 12.2648 47.1048Z" fill="#E07496"/>
</g>
<defs>
<clipPath id="clip0_199_545">
<rect width="46" height="52" fill="white"/>
</clipPath>
</defs>
</svg>
