<svg width="37" height="45" viewBox="0 0 37 45" fill="none" xmlns="http://www.w3.org/2000/svg">
<path d="M17.8123 39.479C18.1763 39.479 18.4714 39.1839 18.4714 38.8198C18.4714 38.4558 18.1763 38.1606 17.8123 38.1606H10.3987C10.0346 38.1606 9.73951 38.4558 9.73951 38.8198C9.73951 39.1839 10.0346 39.479 10.3987 39.479H17.8123Z" fill="#E07496"/>
<path d="M8.44567 41.8362C8.44567 42.2002 8.7408 42.4954 9.10484 42.4954H23.4689C24.4878 42.4954 25.3168 41.6666 25.3168 40.648V38.9556C25.3168 38.5915 25.0217 38.2964 24.6576 38.2964C24.2936 38.2964 23.9984 38.5915 23.9984 38.9556V40.648C23.9984 40.9397 23.7609 41.177 23.4689 41.177H9.10484C8.7408 41.177 8.44567 41.4721 8.44567 41.8362Z" fill="#E07496"/>
<path d="M24.6576 7.44662C25.0217 7.44662 25.3168 7.15148 25.3168 6.78744V4.35226C25.3168 3.3336 24.4878 2.50488 23.4689 2.50488H20.3054C19.9413 2.50488 19.6462 2.80002 19.6462 3.16406C19.6462 3.69 19.2179 4.11794 18.6915 4.11794H9.51934C8.99296 4.11794 8.56476 3.69009 8.56476 3.16406C8.56476 2.80002 8.26962 2.50488 7.90558 2.50488H4.74204C3.72312 2.50488 2.89414 3.3336 2.89414 4.35226V40.6478C2.89414 41.6665 3.72312 42.4952 4.74204 42.4952H5.99773C6.36178 42.4952 6.65691 42.2001 6.65691 41.836C6.65691 41.472 6.36178 41.1768 5.99773 41.1768H4.74204C4.45007 41.1768 4.2125 40.9395 4.2125 40.6478V4.35226C4.2125 4.06055 4.45007 3.82324 4.74204 3.82324H7.34395C7.62723 4.75576 8.49532 5.4363 9.51942 5.4363H18.6916C19.7158 5.4363 20.5839 4.75576 20.8671 3.82324H23.4689C23.7609 3.82324 23.9984 4.06055 23.9984 4.35226V6.78744C23.9984 7.15148 24.2936 7.44662 24.6576 7.44662Z" fill="#E07496"/>
<path d="M0.916195 6.49213C1.28024 6.49213 1.57537 6.19699 1.57537 5.83295V4.39515C1.57537 2.69859 2.9564 1.31836 4.65392 1.31836H23.5587C25.2563 1.31836 26.6374 2.69859 26.6374 4.39515V6.78744C26.6374 7.15148 26.9325 7.44662 27.2966 7.44662C27.6606 7.44662 27.9557 7.15148 27.9557 6.78744V4.39515C27.9557 1.97165 25.9833 0 23.5587 0H4.65392C2.22946 0 0.257015 1.97165 0.257015 4.39515V5.83295C0.257015 6.19699 0.552064 6.49213 0.916195 6.49213Z" fill="#E07496"/>
<path d="M27.2957 36.099C26.9316 36.099 26.6365 36.3941 26.6365 36.7582V40.605C26.6365 42.3015 25.2555 43.6817 23.5578 43.6817H4.65301C2.95549 43.6817 1.57438 42.3015 1.57438 40.605V8.9043C1.57438 8.54025 1.27924 8.24512 0.915196 8.24512C0.551152 8.24512 0.256016 8.54025 0.256016 8.9043V40.605C0.256016 43.0285 2.22846 45.0001 4.65301 45.0001H23.5578C25.9824 45.0001 27.9548 43.0285 27.9548 40.605V36.7582C27.9548 36.394 27.6598 36.099 27.2957 36.099Z" fill="#E07496"/>
<path d="M36.0847 26.4483C35.7207 26.4483 35.4255 26.7434 35.4255 27.1074V30.3321C35.4255 30.8646 34.9922 31.2979 34.4597 31.2979H28.8358C28.6791 31.2979 28.5275 31.3537 28.4083 31.4554L22.8945 36.1534L17.3808 31.4553C17.2615 31.3537 17.1099 31.2978 16.9533 31.2978H11.3294C10.7968 31.2978 10.3635 30.8645 10.3635 30.332V19.6025C10.3635 19.2385 10.0684 18.9434 9.70435 18.9434C9.34031 18.9434 9.04517 19.2385 9.04517 19.6025V30.3321C9.04517 31.5915 10.0699 32.6162 11.3294 32.6162H16.7106L22.467 37.5212C22.5902 37.6261 22.7424 37.6787 22.8945 37.6787C23.0467 37.6787 23.1989 37.6262 23.322 37.5212L29.0785 32.6162H34.4598C35.7193 32.6162 36.744 31.5915 36.744 30.3321V27.1074C36.7439 26.7434 36.4489 26.4483 36.0847 26.4483Z" fill="#E07496"/>
<path d="M34.4598 8.55615H11.3293C10.0698 8.55615 9.04507 9.58087 9.04507 10.8403V16.5029C9.04507 16.8669 9.34021 17.1621 9.70425 17.1621C10.0683 17.1621 10.3634 16.8669 10.3634 16.5029V10.8403C10.3634 10.3078 10.7967 9.87451 11.3293 9.87451H34.4597C34.9922 9.87451 35.4255 10.3078 35.4255 10.8403V24.032C35.4255 24.3961 35.7207 24.6912 36.0847 24.6912C36.4488 24.6912 36.7439 24.3961 36.7439 24.032V10.8403C36.7439 9.58078 35.7193 8.55615 34.4598 8.55615Z" fill="#E07496"/>
<path d="M16.7197 11.6216C16.3556 11.6216 16.0605 11.9167 16.0605 12.2808V16.5029C16.0605 18.0946 17.1946 19.4263 18.6972 19.7325V20.9896C17.9299 21.2616 17.3789 21.9947 17.3789 22.8542V28.065C17.3789 29.1555 18.2659 30.0426 19.3564 30.0426C20.4469 30.0426 21.3339 29.1555 21.3339 28.065V22.8542C21.3339 21.9948 20.7829 21.2617 20.0156 20.9896V19.7325C21.5182 19.4263 22.6523 18.0946 22.6523 16.5029V12.2808C22.6523 11.9167 22.3572 11.6216 21.9931 11.6216C21.6291 11.6216 21.3339 11.9167 21.3339 12.2808V16.5029C21.3339 17.3622 20.7829 18.0953 20.0156 18.3675V12.2808C20.0156 11.9167 19.7205 11.6216 19.3564 11.6216C18.9924 11.6216 18.6972 11.9167 18.6972 12.2808V18.3674C17.9299 18.0953 17.3789 17.3622 17.3789 16.5028V12.2808C17.3789 11.9167 17.0837 11.6216 16.7197 11.6216ZM20.0156 28.065C20.0156 28.4286 19.7199 28.7242 19.3564 28.7242C18.9929 28.7242 18.6972 28.4286 18.6972 28.065V22.8542C18.6972 22.4907 18.9929 22.195 19.3564 22.195C19.7199 22.195 20.0156 22.4907 20.0156 22.8542V28.065Z" fill="#E07496"/>
<path d="M29.0694 21.5566C29.4334 21.5566 29.7286 21.2614 29.7286 20.8974V12.2808C29.7286 11.9167 29.4334 11.6216 29.0694 11.6216C26.7674 11.6216 24.8946 13.4944 24.8946 15.7964V20.8974C24.8946 21.2614 25.1897 21.5566 25.5538 21.5566H26.6524V22.7475C25.8851 23.0195 25.334 23.7526 25.334 24.6121V28.0651C25.334 29.1556 26.2211 30.0427 27.3116 30.0427C28.402 30.0427 29.2891 29.1556 29.2891 28.0651V24.6121C29.2891 23.7527 28.738 23.0196 27.9707 22.7475V21.5566H29.0694ZM27.9707 28.065C27.9707 28.4286 27.6751 28.7242 27.3116 28.7242C26.9481 28.7242 26.6524 28.4286 26.6524 28.065V24.612C26.6524 24.2485 26.9481 23.9528 27.3116 23.9528C27.6751 23.9528 27.9707 24.2485 27.9707 24.612V28.065ZM26.2129 15.7964C26.2129 14.4481 27.1519 13.3151 28.4102 13.0168V20.2382H26.2129V15.7964Z" fill="#E07496"/>
</svg>
