<svg width="32" height="9" viewBox="0 0 32 9" fill="none" xmlns="http://www.w3.org/2000/svg">
<path d="M17.816 0.932795L15.795 5.21597H15.5897V0H12.7181V8.82644H15.1554C15.795 8.82644 16.3763 8.4632 16.6456 7.89364L18.6677 3.61047H18.873V8.82644H21.7446V0H19.3073C18.6666 0 18.0842 0.364339 17.816 0.932795Z" fill="white"/>
<path d="M7.0425 1.15996L5.8463 5.21597H5.64095L4.44476 1.15996C4.24166 0.472982 3.59868 0 2.86817 0H0V8.82754H2.87153V3.61047H3.07688L4.71744 8.82644H6.7687L8.41037 3.61047H8.61572V8.82644H11.4873V0H8.61909C7.88858 0 7.2456 0.472982 7.0425 1.15996Z" fill="white"/>
<path d="M22.9745 4.01221V8.82653H25.8405V6.01827H28.923C30.2617 6.01827 31.3984 5.17985 31.8214 4.01221H22.9745Z" fill="white"/>
<path d="M28.9231 0H22.564C22.95 2.05434 24.7881 3.61047 26.9998 3.61047H31.9383C31.9787 3.41623 32 3.2143 32 3.00799C32 1.34762 30.622 0 28.9231 0Z" fill="white"/>
</svg>
