<svg width="24" height="18" viewBox="0 0 24 18" fill="none" xmlns="http://www.w3.org/2000/svg">
<path d="M18.0082 0C15.8799 0 13.588 0.432562 12.0055 1.62211C10.4229 0.432562 8.13097 0 6.00273 0C4.42019 0 2.73943 0.237909 1.33151 0.854311C0.534789 1.21117 0 1.97897 0 2.85491V15.0532C0 16.459 1.33151 17.4971 2.70668 17.1511C3.77626 16.8807 4.91132 16.7618 6.00273 16.7618C7.70532 16.7618 9.51705 17.043 10.9795 17.7567C11.6344 18.0811 12.3765 18.0811 13.0205 17.7567C14.4829 17.0321 16.2947 16.7618 17.9973 16.7618C19.0887 16.7618 20.2237 16.8807 21.2933 17.1511C22.6685 17.508 24 16.4698 24 15.0532V2.85491C24 1.97897 23.4652 1.21117 22.6685 0.854311C21.2715 0.237909 19.5907 0 18.0082 0V0ZM21.8281 13.7663C21.8281 14.4476 21.1951 14.945 20.5184 14.8261C19.6999 14.6747 18.8486 14.6098 18.0082 14.6098C16.1528 14.6098 13.4789 15.3127 12.0055 16.2319V3.78492C13.4789 2.86573 16.1528 2.16281 18.0082 2.16281C19.0123 2.16281 20.0055 2.26014 20.955 2.46561C21.457 2.57375 21.8281 3.01712 21.8281 3.52538V13.7663Z" fill="#788E39"/>
<path d="M14.2242 6.99471C13.8693 6.99471 13.5477 6.78607 13.4368 6.45224C13.2926 6.04539 13.5366 5.59681 13.9691 5.47163C15.6769 4.95002 17.8837 4.78311 19.9131 5.00219C20.3678 5.05435 20.7005 5.44033 20.645 5.86805C20.5896 6.29576 20.1793 6.60872 19.7246 6.55656C17.9281 6.35835 15.9652 6.51483 14.4792 6.96341C14.3905 6.97384 14.3018 6.99471 14.2242 6.99471V6.99471ZM14.2242 9.76964C13.8693 9.76964 13.5477 9.561 13.4368 9.22717C13.2926 8.82032 13.5366 8.37174 13.9691 8.24656C15.6658 7.72495 17.8837 7.55804 19.9131 7.77711C20.3678 7.82927 20.7005 8.21526 20.645 8.64298C20.5896 9.07069 20.1793 9.38365 19.7246 9.33149C17.9281 9.13328 15.9652 9.28976 14.4792 9.73834C14.3958 9.75833 14.3102 9.76884 14.2242 9.76964V9.76964ZM14.2242 12.5446C13.8693 12.5446 13.5477 12.3359 13.4368 12.0021C13.2926 11.5953 13.5366 11.1467 13.9691 11.0215C15.6658 10.4999 17.8837 10.333 19.9131 10.552C20.3678 10.6042 20.7005 10.9902 20.645 11.4179C20.5896 11.8456 20.1793 12.1481 19.7246 12.1064C17.9281 11.9082 15.9652 12.0647 14.4792 12.5133C14.3958 12.5333 14.3102 12.5438 14.2242 12.5446V12.5446Z" fill="#788E39"/>
</svg>
