<svg width="30" height="23" viewBox="0 0 30 23" fill="none" xmlns="http://www.w3.org/2000/svg">
<path d="M2.52721 8.85369L1.48779 8.36364V6.27273L15.0002 0L28.5126 6.27273V8.36364L27.4732 8.85369V17.5767C27.4732 17.9905 27.3297 18.3009 27.0428 18.5078C26.7559 18.7147 26.3797 18.8182 25.9141 18.8182C25.4485 18.8182 25.0723 18.7147 24.7853 18.5078C24.4984 18.3009 24.355 17.9905 24.355 17.5767V10.2912L16.5593 13.9176V21.7585C16.5593 22.1723 16.4159 22.4827 16.1289 22.6896C15.842 22.8965 15.4658 23 15.0002 23C14.5346 23 14.1584 22.8965 13.8715 22.6896C13.5845 22.4827 13.4411 22.1723 13.4411 21.7585V13.9176L5.64546 10.2912V17.5767C5.64546 17.9905 5.502 18.3009 5.21508 18.5078C4.92815 18.7147 4.55191 18.8182 4.08633 18.8182C3.62076 18.8182 3.24452 18.7147 2.95759 18.5078C2.67067 18.3009 2.52721 17.9905 2.52721 17.5767V8.85369Z" fill="#788E39"/>
<path d="M18.3473 18.25C18.3473 19.0094 16.9042 19.625 15.1241 19.625C13.3441 19.625 11.901 19.0094 11.901 18.25C11.901 17.4906 13.3441 16.875 15.1241 16.875C16.9042 16.875 18.3473 17.4906 18.3473 18.25Z" fill="#788E39"/>
<path d="M13.5126 13.873L11.901 18.248H18.2233L16.7357 13.873H13.5126Z" fill="#788E39"/>
<path d="M6.44629 12.377C6.44629 13.1363 5.00324 13.752 3.22314 13.752C1.44305 13.752 0 13.1363 0 12.377C0 11.6176 1.44305 11.002 3.22314 11.002C5.00324 11.002 6.44629 11.6176 6.44629 12.377Z" fill="#788E39"/>
<path d="M1.61157 8L0 12.375H6.32232L4.83472 8H1.61157Z" fill="#788E39"/>
<path d="M30 12.377C30 13.1363 28.5569 13.752 26.7769 13.752C24.9968 13.752 23.5537 13.1363 23.5537 12.377C23.5537 11.6176 24.9968 11.002 26.7769 11.002C28.5569 11.002 30 11.6176 30 12.377Z" fill="#788E39"/>
<path d="M25.1654 8L23.5538 12.375H29.8762L28.3886 8H25.1654Z" fill="#788E39"/>
<path d="M11.9008 18.375L3.59497 13.5L5.95035 6.25C8.80159 5.66667 14.6528 4.5 15.2479 4.5C15.8429 4.5 20.2066 5.16667 22.314 5.5L28.3884 13.5L18.2231 18.375H11.9008Z" fill="#788E39"/>
</svg>
