<svg width="23" height="23" viewBox="0 0 23 23" fill="none" xmlns="http://www.w3.org/2000/svg">
<path d="M11.5 0C12.9484 0 14.1817 0.509115 15.1999 1.52734C16.2182 2.54557 16.7273 3.77888 16.7273 5.22727C16.7273 6.67566 16.2182 7.90897 15.1999 8.9272C14.1817 9.94543 12.9484 10.4545 11.5 10.4545C10.0516 10.4545 8.8183 9.94543 7.80007 8.9272C6.78184 7.90897 6.27273 6.67566 6.27273 5.22727C6.27273 3.77888 6.78184 2.54557 7.80007 1.52734C8.8183 0.509115 10.0516 0 11.5 0ZM15.9432 5.25994C15.5185 5.34706 14.9113 5.30623 14.1218 5.13743C13.3323 4.96863 12.6652 4.76989 12.1207 4.54119C11.7505 4.37784 11.3965 4.18999 11.0589 3.97763C10.7214 3.76527 10.3348 3.49846 9.89915 3.1772C9.46354 2.85594 9.12595 2.61908 8.88636 2.46662C9.06061 3.76255 8.45076 4.68821 7.05682 5.24361C7.06771 6.47419 7.50604 7.51965 8.3718 8.37997C9.23757 9.24029 10.2803 9.67045 11.5 9.67045C12.7197 9.67045 13.7624 9.24029 14.6282 8.37997C15.494 7.51965 15.9323 6.47964 15.9432 5.25994ZM13.6236 19.8473H9.47443C9.36553 19.8473 9.22396 19.8255 9.04972 19.782C8.87547 19.7384 8.66856 19.6295 8.42898 19.4553C8.18939 19.281 8.03149 19.0632 7.95526 18.8018C7.78101 18.2138 7.634 17.3317 7.5142 16.1555C7.39441 14.9794 7.30185 13.9312 7.23651 13.011C7.17116 12.0908 7.10038 11.5817 7.02415 11.4837C6.94792 11.5163 6.7764 11.6035 6.50959 11.745C6.24278 11.8866 5.9678 12.0118 5.68466 12.1207C5.35795 12.2405 4.91146 12.4039 4.34517 12.6108C3.77888 12.8177 3.33239 12.9838 3.00568 13.109C2.67898 13.2343 2.31688 13.384 1.91939 13.5582C1.5219 13.7325 1.20064 13.9094 0.955611 14.0891C0.710582 14.2688 0.522727 14.4512 0.392045 14.6364C0.130682 15.3333 0 18.1212 0 23H23C23 21.7803 22.9701 20.1903 22.9102 18.2301C22.8503 16.2699 22.7495 15.072 22.608 14.6364C22.4773 14.4512 22.2894 14.2688 22.0444 14.0891C21.7994 13.9094 21.4781 13.7325 21.0806 13.5582C20.6831 13.384 20.321 13.2343 19.9943 13.109C19.6676 12.9838 19.2211 12.8177 18.6548 12.6108C18.0885 12.4039 17.642 12.2405 17.3153 12.1207C17.0322 12.0118 16.7572 11.8866 16.4904 11.745C16.2236 11.6035 16.0521 11.5163 15.9759 11.4837C15.8996 11.5817 15.837 12.0908 15.788 13.011C15.739 13.9312 15.6628 14.9794 15.5593 16.1555C15.4558 17.3317 15.317 18.2138 15.1428 18.8018C15.0665 19.0632 14.9086 19.281 14.669 19.4553C14.4295 19.6295 14.2225 19.7384 14.0483 19.782C13.8741 19.8255 13.7325 19.8473 13.6236 19.8473ZM11.5 12.0227L14.6364 10.9773V14.1136L11.5 13.0682L8.36364 14.1136V10.9773L11.5 12.0227ZM11.5 15.6818C11.3693 15.6818 11.2495 15.6301 11.1406 15.5266C11.0317 15.4232 10.9773 15.3007 10.9773 15.1591C10.9773 15.0175 11.0317 14.895 11.1406 14.7915C11.2495 14.6881 11.3693 14.6364 11.5 14.6364C11.6307 14.6364 11.7505 14.6881 11.8594 14.7915C11.9683 14.895 12.0227 15.0175 12.0227 15.1591C12.0227 15.3007 11.9683 15.4232 11.8594 15.5266C11.7505 15.6301 11.6307 15.6818 11.5 15.6818ZM11.5 17.7727C11.3693 17.7727 11.2495 17.721 11.1406 17.6175C11.0317 17.5141 10.9773 17.3916 10.9773 17.25C10.9773 17.1084 11.0317 16.9859 11.1406 16.8825C11.2495 16.779 11.3693 16.7273 11.5 16.7273C11.6307 16.7273 11.7505 16.779 11.8594 16.8825C11.9683 16.9859 12.0227 17.1084 12.0227 17.25C12.0227 17.3916 11.9683 17.5141 11.8594 17.6175C11.7505 17.721 11.6307 17.7727 11.5 17.7727Z" fill="#788E39"/>
</svg>
