<svg width="24" height="22" viewBox="0 0 24 22" fill="none" xmlns="http://www.w3.org/2000/svg">
<path d="M24 20.24C24 20.812 23.8023 21.2483 23.407 21.549C23.0117 21.8497 22.5265 22 21.9515 22H2.04852C1.4735 22 0.98832 21.846 0.592992 21.538C0.197664 21.23 0 20.7973 0 20.24C0 19.8 0.12938 19.3527 0.38814 18.898L10.3288 1.21C10.8032 0.403333 11.3639 0 12.0108 0C12.6577 0 13.204 0.403333 13.6496 1.21L23.6119 18.92C23.8706 19.3893 24 19.8293 24 20.24ZM13.4987 8.998V5.786H10.5013V8.998C10.5013 9.20333 10.5157 9.39767 10.5445 9.581C10.5732 9.76433 10.6128 9.96967 10.6631 10.197C10.7134 10.4243 10.7529 10.6187 10.7817 10.78L11.3423 14.344H12.6146L13.1968 10.78C13.2255 10.6333 13.2686 10.4427 13.3261 10.208C13.3836 9.97333 13.4268 9.76433 13.4555 9.581C13.4843 9.39767 13.4987 9.20333 13.4987 8.998ZM13.4987 17.512C13.4987 17.0867 13.3513 16.7273 13.0566 16.434C12.7619 16.1407 12.4061 15.994 11.9892 15.994C11.5867 15.994 11.2381 16.1407 10.9434 16.434C10.6487 16.7273 10.5013 17.0867 10.5013 17.512C10.5013 17.9373 10.6487 18.3003 10.9434 18.601C11.2381 18.9017 11.5867 19.052 11.9892 19.052C12.4061 19.052 12.7619 18.9017 13.0566 18.601C13.3513 18.3003 13.4987 17.9373 13.4987 17.512Z" fill="#EB5757"/>
</svg>
