<svg width="16" height="16" viewBox="0 0 16 16" fill="none" xmlns="http://www.w3.org/2000/svg">
<path d="M7 1C7 0.734784 7.10536 0.48043 7.2929 0.292893C7.48043 0.105357 7.73479 0 8 0C8.26522 0 8.51957 0.105357 8.70711 0.292893C8.89465 0.48043 9 0.734784 9 1V8.158L12.243 4.915L13.657 6.329L8 11.986L2.343 6.33L3.757 4.916L7 8.158V1Z" fill="#788E39"/>
<path d="M0 10H2V14H14V10H16V14C16 14.5304 15.7893 15.0391 15.4142 15.4142C15.0391 15.7893 14.5304 16 14 16H2C1.46957 16 0.960859 15.7893 0.585786 15.4142C0.210714 15.0391 0 14.5304 0 14V10Z" fill="#788E39"/>
</svg>
