<svg width="34" height="28" viewBox="0 0 34 28" fill="none" xmlns="http://www.w3.org/2000/svg">
<path d="M17.4246 22.3588C22.3252 22.3588 26.3066 18.6443 26.476 14.0036C26.3066 9.36291 22.3252 5.64844 17.4246 5.64844C12.5246 5.64844 8.54205 9.36291 8.37488 14.0036C8.54148 18.6443 12.524 22.3588 17.4246 22.3588Z" fill="#788E39"/>
<path d="M17.4254 1.67969C10.5404 1.67969 4.95813 7.19568 4.95813 13.9997C4.95813 20.8031 10.541 26.3196 17.4254 26.3196C24.3099 26.3196 29.8922 20.8031 29.8922 13.9997C29.8922 7.19568 24.3099 1.67969 17.4254 1.67969ZM17.4249 22.9596C12.4172 22.9596 8.35758 19.0839 8.35758 14.3015C8.35758 14.1996 8.37175 14.1005 8.37515 13.9997C8.37175 13.8989 8.35758 13.7992 8.35758 13.6978C8.35758 8.91543 12.4178 5.03968 17.4249 5.03968C22.4325 5.03968 26.4916 8.91543 26.4916 13.6978C26.4916 13.7992 26.4797 13.8989 26.4768 13.9997C26.4802 14.1005 26.4916 14.1996 26.4916 14.3015C26.491 19.0839 22.4325 22.9596 17.4249 22.9596Z" fill="#788E39"/>
<path d="M0.83948 0.235812C0.975481 -0.291147 1.24465 0.229652 1.24465 0.229652C1.24465 0.229652 1.33872 5.68404 1.95072 5.7434C2.56272 5.80276 2.09125 0.131092 2.81546 0.0224522C3.48866 -0.0833876 3.10446 5.83356 3.7176 5.77364C4.32847 5.7098 4.4316 0.257652 4.4316 0.257652C4.4316 0.257652 4.7036 -0.262587 4.8379 0.260452C6.49711 6.70604 5.15467 9.34083 5.15467 9.34083C5.15467 9.34083 4.928 9.89467 4.38967 9.89747C4.33923 9.89467 4.3772 25.2056 4.3738 27.2641C4.37493 28.2649 1.25712 28.2341 1.25882 27.2378C1.26108 25.1793 1.32172 9.87003 1.27298 9.87115C0.732946 9.87115 0.506845 9.31787 0.506845 9.31787C0.506845 9.31787 -0.830496 6.68476 0.83948 0.235812" fill="#788E39"/>
<path d="M30.3847 1.06689e-06C31.0862 -0.00167893 33.9966 2.072 34 9.7787C34.0034 12.2433 32.6428 12.2427 32.6451 13.7844C32.6474 15.3232 32.6559 27.5637 32.6559 27.5637C32.6559 27.5637 31.1633 28.5756 30.0537 27.5167L30.0333 0.21896C30.0345 0.21952 30.0305 -0.000558932 30.3847 1.06689e-06Z" fill="#788E39"/>
</svg>
