<svg width="35" height="30" viewBox="0 0 35 30" fill="none" xmlns="http://www.w3.org/2000/svg">
<path d="M32.8125 10.7143C32.8125 13.5714 32.0833 15 30.625 15C30.5566 15 30.4997 15.0558 30.4541 15.1674C30.568 15.8817 30.625 16.5402 30.625 17.1429C30.625 19.5536 30.0041 21.9475 28.7622 24.3248C27.5203 26.702 25.8968 28.5937 23.8916 30H11.1084C8.85254 28.4152 7.08659 26.2165 5.81055 23.404C5.40039 23.5156 4.92188 23.5714 4.375 23.5714C3.60026 23.5714 2.87109 23.0525 2.1875 22.0145C1.50391 20.9766 0.968424 19.721 0.581055 18.2478C0.193685 16.7746 0 15.3348 0 13.9286C0 10.3571 1.45833 8.57143 4.375 8.57143C5.53711 8.57143 6.44857 8.81696 7.10938 9.30804C8.33984 7.74554 9.86084 6.51786 11.6724 5.625C13.4839 4.73214 15.4264 4.28571 17.5 4.28571C19.7103 4.28571 21.7725 4.79353 23.6865 5.80915C25.6006 6.82478 27.1615 8.20312 28.3691 9.9442C28.4147 9.81027 28.4375 9.70982 28.4375 9.64286C28.4375 8.16964 28.973 6.90848 30.0439 5.85937C31.1149 4.81027 32.4023 4.28571 33.9062 4.28571C34.2708 4.28571 34.6354 4.3192 35 4.38616V8.57143C34.3848 8.57143 33.8664 8.7779 33.4448 9.19085C33.0233 9.60379 32.8125 10.1116 32.8125 10.7143ZM4.375 10.7143C2.91667 10.7143 2.1875 11.9866 2.1875 14.5312C2.1875 15.8036 2.50081 17.1484 3.12744 18.5658C3.75407 19.9833 4.38639 20.8817 5.02441 21.2612C4.59147 19.8103 4.375 18.4375 4.375 17.1429C4.375 15.2455 4.79655 13.4263 5.63965 11.6853C5.25228 11.0379 4.83073 10.7143 4.375 10.7143ZM15.3125 2.12612C15.3125 1.5346 15.5233 1.03237 15.9448 0.61942C16.3664 0.206473 16.8791 0 17.4829 0C18.0868 0 18.6051 0.206473 19.0381 0.61942C19.471 1.03237 19.6875 1.5346 19.6875 2.12612C19.6875 2.71763 19.471 3.22545 19.0381 3.64955C18.6051 4.07366 18.0868 4.28571 17.4829 4.28571C16.8791 4.28571 16.3664 4.07366 15.9448 3.64955C15.5233 3.22545 15.3125 2.71763 15.3125 2.12612Z" fill="#788E39"/>
</svg>
