<svg width="14" height="14" viewBox="0 0 14 14" fill="none" xmlns="http://www.w3.org/2000/svg">
<g clip-path="url(#clip0_931_781)">
<path d="M7.01752 5.05859C6.79108 5.05859 6.60736 5.2422 6.60736 5.46875V11.8945C6.60736 12.1211 6.79108 12.3047 7.01752 12.3047C7.24407 12.3047 7.42768 12.1211 7.42768 11.8945V5.46875C7.42768 5.2422 7.24407 5.05859 7.01752 5.05859Z" fill="black"/>
<path d="M8.94912 5.05905C8.72332 5.04847 8.53148 5.22503 8.52187 5.45136L8.24843 11.8772C8.23871 12.1035 8.41442 12.2947 8.64075 12.3044C8.64673 12.3046 8.65261 12.3047 8.65848 12.3047C8.87702 12.3047 9.0586 12.1324 9.068 11.9121L9.34143 5.48629C9.35105 5.25985 9.17534 5.06866 8.94912 5.05905Z" fill="black"/>
<path d="M5.08606 5.05903C4.85972 5.06864 4.68412 5.25994 4.69374 5.48617L4.96717 11.912C4.97657 12.1324 5.15815 12.3047 5.37658 12.3047C5.38246 12.3047 5.38844 12.3046 5.39442 12.3043C5.62065 12.2947 5.79635 12.1034 5.78674 11.8771L5.5133 5.45135C5.50369 5.22501 5.31292 5.04867 5.08606 5.05903Z" fill="black"/>
<path d="M12.3025 5.035H11.3683L11.4155 4.23113H11.7451C11.9716 4.23113 12.1553 4.04752 12.1553 3.82098V2.92226C12.1553 2.24379 11.6033 1.69179 10.9248 1.69179H9.56232V1.47657C9.56232 0.647279 8.88759 -0.0273438 8.05841 -0.0273438H5.97675C5.14747 -0.0273438 4.47285 0.647279 4.47285 1.47657V1.69168H3.11036C2.43189 1.69168 1.87988 2.24369 1.87988 2.92216V3.82098C1.87988 4.04752 2.06349 4.23113 2.29004 4.23113H2.61956L2.66687 5.035H1.72266C1.49611 5.035 1.3125 5.21861 1.3125 5.44516C1.3125 5.6716 1.49611 5.85531 1.72266 5.85531H2.71515L3.16996 13.5866C3.18267 13.8034 3.36222 13.9727 3.57937 13.9727H10.4558C10.6729 13.9727 10.8525 13.8034 10.8652 13.5866L11.32 5.85531H12.3025C12.529 5.85531 12.7126 5.6716 12.7126 5.44516C12.7126 5.21861 12.529 5.035 12.3025 5.035ZM5.29316 1.47657C5.29316 1.09963 5.59982 0.79297 5.97675 0.79297H8.0583C8.43524 0.79297 8.7419 1.09963 8.7419 1.47657V1.69168H5.29316V1.47657ZM2.7002 2.92216C2.7002 2.69603 2.88423 2.512 3.11036 2.512H10.9247C11.1509 2.512 11.3349 2.69603 11.3349 2.92216V3.41082H2.7002V2.92216ZM10.069 13.1524H3.96613L3.44136 4.23113H10.5938L10.069 13.1524Z" fill="black"/>
</g>
<defs>
<clipPath id="clip0_931_781">
<rect width="14" height="14" fill="white"/>
</clipPath>
</defs>
</svg>
