<svg width="30" height="26" viewBox="0 0 30 26" fill="none" xmlns="http://www.w3.org/2000/svg">
<path d="M1.15385 10.0085L0 9.45455V7.09091L15 0L30 7.09091V9.45455L28.8462 10.0085V19.8693C28.8462 20.3371 28.6869 20.688 28.3684 20.9219C28.0499 21.1558 27.6322 21.2727 27.1154 21.2727C26.5986 21.2727 26.1809 21.1558 25.8624 20.9219C25.5439 20.688 25.3846 20.3371 25.3846 19.8693V11.6335L16.7308 15.733V24.5966C16.7308 25.0644 16.5715 25.4152 16.253 25.6491C15.9345 25.883 15.5168 26 15 26C14.4832 26 14.0655 25.883 13.747 25.6491C13.4285 25.4152 13.2692 25.0644 13.2692 24.5966V15.733L4.61538 11.6335V19.8693C4.61538 20.3371 4.45613 20.688 4.13762 20.9219C3.81911 21.1558 3.40144 21.2727 2.88462 21.2727C2.36779 21.2727 1.95012 21.1558 1.63161 20.9219C1.3131 20.688 1.15385 20.3371 1.15385 19.8693V10.0085Z" fill="#788E39"/>
</svg>
