<svg width="33" height="34" viewBox="0 0 33 34" fill="none" xmlns="http://www.w3.org/2000/svg">
<path fill-rule="evenodd" clip-rule="evenodd" d="M24.3632 22.5525L32.4983 30.9686C33.1865 31.6807 33.1637 32.8159 32.4485 33.5004C32.1118 33.8227 31.6684 34 31.201 34C30.7072 34 30.2464 33.8048 29.9038 33.4509L21.7069 24.9709C19.3794 26.5979 16.6571 27.455 13.8004 27.455C6.191 27.455 0 21.2967 0 13.7275C0 6.15827 6.191 0 13.8004 0C18.6928 0 22.9987 2.54554 25.4501 6.375H20.823C18.9927 4.64444 16.5191 3.58108 13.8004 3.58108C8.17587 3.58108 3.60012 8.13264 3.60012 13.7275C3.60012 19.3223 8.17587 23.8739 13.8004 23.8739C19.425 23.8739 24.0008 19.3223 24.0008 13.7275C24.0008 13.3978 23.9849 13.0717 23.9538 12.75H27.5663C27.5892 13.0729 27.6009 13.3989 27.6009 13.7275C27.6009 16.9672 26.4549 20.0791 24.3632 22.5525Z" fill="#E07496"/>
</svg>
