<svg width="70" height="70" viewBox="0 0 70 70" fill="none" xmlns="http://www.w3.org/2000/svg">
<path d="M51.3237 46.7056C51.3244 46.7058 51.325 46.706 51.3254 46.706C51.325 46.7058 51.3241 46.7057 51.3237 46.7056Z" fill="#67A755"/>
<path d="M57.2422 50.5089L57.1709 50.1514C56.2482 45.5297 51.9133 44.7435 51.8996 44.7372C51.5935 44.6415 53.6954 45.2667 44.0221 42.4138L41.3265 40.5908V38.8933C45.6741 36.6203 48.6114 32.0692 48.6114 26.8412V26.652C52.0325 26.02 53.6428 22.5436 51.6631 20.0228C51.6989 19.8421 51.6758 20.0013 51.6829 16.665C51.6829 7.74573 44.7094 0.433737 35.8073 0.0185223C26.1623 -0.431966 18.3535 7.4511 18.3535 16.8873C18.3669 19.8605 18.3238 19.7563 18.3907 20.0015C17.8383 20.6959 17.5136 21.5376 17.5136 22.4446C17.5136 24.5099 19.1935 26.2394 21.4251 26.6517V26.841C21.4251 32.0542 24.346 36.5938 28.6737 38.8733V40.6152L26.0431 42.3942C16.0994 45.3273 18.4746 44.633 18.1003 44.737C18.0203 44.7737 13.7458 45.56 12.8291 50.1518C9.70682 65.8351 9.83917 65.1608 9.83165 65.2137C9.43886 67.9852 10.9027 69.9999 13.9887 69.9999H24.2876C24.854 69.9999 25.313 69.541 25.313 68.9745C25.313 68.4081 24.854 67.9491 24.2876 67.9491H21.2187V58.2841C21.2187 57.7177 20.7597 57.2587 20.1933 57.2587C19.6269 57.2587 19.1679 57.7177 19.1679 58.2841V67.9491C14.7226 67.8191 13.0151 68.2945 12.2156 67.3736C11.7464 66.8333 11.8056 65.9226 11.8586 65.528L14.8403 50.5531C15.4898 47.2997 18.5137 46.78 18.6756 46.7058C18.6775 46.7052 18.6794 46.7047 18.6815 46.704L25.7175 44.6285C25.6049 45.1078 25.6757 45.0855 25.6551 49.6924C25.6551 50.9942 26.7155 52.0109 27.9718 52.0109C28.7903 52.0109 28.9448 51.7366 33.4352 49.8872C34.4025 50.5118 35.6332 50.5123 36.6013 49.8872C41.1614 51.7653 41.25 52.0109 42.0649 52.0109C43.3209 52.0109 44.3816 50.9945 44.3816 49.6924C44.3612 44.9849 44.4274 45.1003 44.3217 44.6401C50.4373 46.444 51.2789 46.6924 51.3236 46.7055C51.3073 46.7007 51.2073 46.6712 51.3252 46.7059C51.4583 46.7669 54.5072 47.2852 55.1597 50.5522L55.2307 50.9091C55.3412 51.4646 55.8813 51.8252 56.4366 51.7146C56.9921 51.604 57.3526 51.0642 57.2422 50.5089ZM48.6114 24.5481V20.3415C51.0882 21.0777 51.0861 23.8125 48.6114 24.5481ZM21.4248 24.5481C18.9489 23.8121 18.9497 21.0772 21.4248 20.3415V24.5481ZM21.4869 18.2269C21.1086 18.2924 20.7463 18.396 20.4042 18.5323C20.5172 17.8864 19.5271 11.3357 25.0252 6.08774C34.2865 -2.75072 49.6321 3.86838 49.6321 16.6647V18.5322C49.2902 18.3958 48.9279 18.2922 48.5497 18.2267C48.2667 16.7405 47.041 15.5715 45.4797 15.3958C44.324 15.2658 43.305 14.4179 42.6536 13.7294C42.0527 13.0943 41.1315 12.8831 40.3072 13.1911C37.2239 14.3438 32.7979 14.3436 29.7155 13.1993C28.8933 12.8941 27.975 13.1054 27.3759 13.7372C26.7267 14.4216 25.7108 15.265 24.5595 15.3957C22.9968 15.5729 21.7703 16.742 21.4869 18.2269ZM23.4758 26.841C23.4758 24.0505 23.4758 21.6857 23.4758 18.8841C23.4758 18.1421 24.041 17.5182 24.7906 17.4332C27.3632 17.1413 28.7218 15.1123 28.9505 15.1123C28.9672 15.1123 28.9844 15.1153 29.0015 15.1217C32.5576 16.4419 37.4782 16.4376 41.0251 15.112C41.0769 15.0923 41.1299 15.1028 41.1636 15.1385C42.4533 16.5015 43.828 17.2735 45.2503 17.4336C45.9973 17.5177 46.5607 18.1411 46.5607 18.8839V19.1691C46.5607 20.295 46.5607 25.8742 46.5607 26.8407C46.5607 35.3133 37.7655 40.8371 30.1703 37.3154C26.0041 35.3826 23.4758 31.2888 23.4758 26.841ZM41.2287 43.0002C41.2046 43.0095 41.1804 43.0181 41.1565 43.0282L38.4429 44.1825L40.3902 42.4329L41.2287 43.0002ZM31.4441 44.0485C31.4443 44.0485 31.4443 44.0485 31.4441 44.0485L31.594 44.1829C30.7064 43.8058 28.9307 43.0477 28.8077 43.0002L29.6462 42.4332L31.4441 44.0485ZM32.1904 48.1882C28.0541 49.8797 28.0687 50.076 27.8253 49.915C27.5832 49.7552 27.7685 49.7107 27.7057 45.1613C27.7057 44.9755 27.8945 44.8379 28.0769 44.9157L32.1904 46.6657C32.0493 47.1887 32.0657 47.7267 32.1904 48.1882ZM35.0181 48.3049C34.7266 48.3049 34.0112 47.9378 34.1598 47.2431C34.3076 46.5517 35.1792 46.3108 35.6615 46.8314C36.2031 47.4491 35.7341 48.3049 35.0181 48.3049ZM35.0233 44.4979C35.0213 44.4979 35.0154 44.4979 35.0133 44.4979L30.7243 40.6448V39.7454C33.4519 40.6478 36.4785 40.6743 39.2755 39.7579V40.6777L35.0233 44.4979ZM42.211 49.915C41.9744 50.0713 42.0315 49.9 37.8461 48.1881C37.9732 47.7178 37.9842 47.1769 37.8461 46.6655C41.9906 44.9701 41.9681 44.7776 42.211 44.9386C42.2656 44.9747 42.3307 45.0425 42.3307 45.161C42.2678 49.7251 42.451 49.7564 42.211 49.915Z" fill="#67A755"/>
<path d="M35.0186 55.3283C35.6334 55.3283 36.1319 54.8298 36.1319 54.215C36.1319 53.6001 35.6334 53.1017 35.0186 53.1017C34.4037 53.1017 33.9053 53.6001 33.9053 54.215C33.9053 54.8298 34.4037 55.3283 35.0186 55.3283Z" fill="#67A755"/>
<path d="M35.0184 60.1054C35.6332 60.1054 36.1316 59.607 36.1316 58.9922C36.1316 58.3774 35.6332 57.879 35.0184 57.879C34.4037 57.879 33.9053 58.3774 33.9053 58.9922C33.9053 59.607 34.4037 60.1054 35.0184 60.1054Z" fill="#67A755"/>
<path d="M35.0184 64.8814C35.6332 64.8814 36.1316 64.383 36.1316 63.7682C36.1316 63.1534 35.6332 62.655 35.0184 62.655C34.4037 62.655 33.9053 63.1534 33.9053 63.7682C33.9053 64.383 34.4037 64.8814 35.0184 64.8814Z" fill="#67A755"/>
<path d="M45.5339 57.9662H40.1216C39.5552 57.9662 39.0962 58.4252 39.0962 58.9916C39.0962 59.558 39.5552 60.017 40.1216 60.017H45.5337C46.1002 60.017 46.5591 59.558 46.5591 58.9916C46.5591 58.4252 46.1003 57.9662 45.5339 57.9662Z" fill="#67A755"/>
<path d="M60.1683 65.2136C60.1611 65.1623 60.2673 65.7055 58.1948 55.2941C58.0842 54.7386 57.5441 54.3777 56.9888 54.4887C56.4334 54.5993 56.0729 55.1392 56.1834 55.6947L58.1412 65.5278C58.3685 67.2198 57.6729 67.9489 56.0111 67.9489H50.8687V58.2839C50.8687 57.7174 50.4097 57.2585 49.8433 57.2585C49.2769 57.2585 48.8179 57.7174 48.8179 58.2839V67.9489H29.073C28.5066 67.9489 28.0476 68.4079 28.0476 68.9743C28.0476 69.5407 28.5066 69.9997 29.073 69.9997H56.0112C59.0867 69.9997 60.5623 67.9957 60.1683 65.2136Z" fill="#67A755"/>
</svg>
