<svg width="70" height="70" viewBox="0 0 70 70" fill="none" xmlns="http://www.w3.org/2000/svg">
<path d="M35.1258 5.20007C34.7744 4.93331 34.2871 4.93331 33.9357 5.20007L5.38883 26.8563C5.14372 27.0434 5 27.3328 5 27.6409V63.0784C5 63.6217 5.44002 64.0627 5.98438 64.0627H63.0781C63.6225 64.0627 64.0625 63.6217 64.0625 63.0784V27.6409C64.0625 27.3328 63.9188 27.0434 63.6727 26.8563L35.1258 5.20007ZM15.8281 28.6252V51.8427L6.96875 60.7021V28.6252H15.8281ZM51.2656 51.2659H42.4062V50.1004C43.5491 49.6928 44.375 48.61 44.375 47.3284C44.375 45.7701 43.1583 44.5032 41.6266 44.3959L48.0635 37.1549C48.3381 36.8458 48.3903 36.3989 48.1954 36.0346C48.0005 35.6704 47.6028 35.4667 47.1893 35.5257L44.6388 35.8899C42.8532 36.1449 41.2437 36.9718 39.9945 38.1845C40.6334 35.0572 40.8007 31.8382 40.4434 28.6203L40.4306 28.512C40.3834 28.0966 40.0782 27.756 39.6707 27.6645C39.2592 27.5749 38.8399 27.7482 38.6194 28.1025L38.2295 28.7266C36.9823 30.7229 35.9881 32.8462 35.2311 35.0483C34.9388 33.3384 34.4446 31.663 33.7388 30.0752L32.4798 27.2412C32.3144 26.8711 31.9266 26.6447 31.5328 26.6575C31.1273 26.6772 30.7739 26.9439 30.6469 27.3298L29.8023 29.8646C28.938 32.4574 28.6063 35.2087 28.7894 37.9266C27.5825 36.8576 26.0824 36.1262 24.4266 35.8899L21.8761 35.5257C21.4637 35.4676 21.065 35.6704 20.8701 36.0346C20.6752 36.3989 20.7264 36.8458 21.002 37.1549L27.4388 44.3959C25.9042 44.5032 24.6875 45.7701 24.6875 47.3284C24.6875 48.61 25.5134 49.6928 26.6562 50.1004V51.2659H17.7969V28.1232L34.5312 15.1078L51.2656 28.1232V51.2659ZM39.0111 44.3752H38.9048L39.8203 41.935C40.6295 39.7753 42.5342 38.2209 44.8052 37.8557L39.0111 44.3752ZM35.872 44.3752H35.5353C35.6367 40.0381 36.6998 35.7964 38.6646 31.9485C38.6774 36.2404 37.7236 40.4732 35.872 44.3752ZM33.1236 42.7235L32.7564 44.3752H32.2869L31.6667 42.5138C30.3742 38.6354 30.3742 34.3642 31.6657 30.4867L31.7081 30.3607L31.9364 30.8755C33.5794 34.5679 34.0017 38.7761 33.1236 42.7235V42.7235ZM30.1577 44.3752H30.0514L24.2563 37.8557C26.5283 38.2209 28.4321 39.7753 29.2412 41.935L30.1577 44.3752ZM41.4219 46.344C41.9652 46.344 42.4062 46.786 42.4062 47.3284C42.4062 47.8708 41.9652 48.3127 41.4219 48.3127H27.6406C27.0973 48.3127 26.6562 47.8708 26.6562 47.3284C26.6562 46.786 27.0973 46.344 27.6406 46.344H41.4219ZM28.625 50.2815H40.4375V57.1721C40.4375 57.7145 39.9965 58.1565 39.4531 58.1565H29.6094C29.066 58.1565 28.625 57.7145 28.625 57.1721V50.2815ZM17.22 53.2346H26.6562V57.1721C26.6562 58.8003 27.9812 60.1252 29.6094 60.1252H39.4531C41.0813 60.1252 42.4062 58.8003 42.4062 57.1721V53.2346H51.8425L60.7018 62.094H8.36066L17.22 53.2346ZM53.2344 51.8427V28.6252H62.0938V60.7021L53.2344 51.8427ZM34.5312 7.22001L60.1516 26.6565H52.5876L35.1357 13.082C34.7803 12.8063 34.2822 12.8063 33.9259 13.082L16.4749 26.6565H8.91092L34.5312 7.22001Z" fill="#67A755"/>
</svg>
